<?xml version="1.0" standalone="no"?>
<!DOCTYPE svg PUBLIC "-//W3C//DTD SVG 1.1//EN" "http://www.w3.org/Graphics/SVG/1.1/DTD/svg11.dtd" >
<svg xmlns="http://www.w3.org/2000/svg" xmlns:xlink="http://www.w3.org/1999/xlink" version="1.1">
<metadata>
Created by FontForge 20170731 at Thu Jul  7 18:38:17 2022
 By Aleksey,,,
Service d'Information du Gouvernement
</metadata>
<defs>
<font id="Marianne-RegularItalic" horiz-adv-x="1228" >
  <font-face 
    font-family="Marianne"
    font-weight="400"
    font-style="italic"
    font-stretch="normal"
    units-per-em="2048"
    panose-1="2 0 0 0 0 0 0 0 0 0"
    ascent="1536"
    descent="-512"
    x-height="1032"
    cap-height="1434"
    bbox="-539 -512 2451 2316"
    underline-thickness="151"
    underline-position="-417"
    slope="-10"
    unicode-range="U+0020-FEFF"
  />
<missing-glyph horiz-adv-x="1191" 
d="M-176 -504l358 2040h1190l-358 -2040h-1190zM399 266h176l37 144q191 33 321.5 142.5t160.5 278.5q16 90 -5 167t-70.5 128.5t-122 81t-157.5 29.5q-288 0 -497 -266l182 -131q71 86 131.5 125t132.5 39q75 0 118 -50t30 -125q-11 -61 -43 -104t-88 -69.5t-121.5 -41.5
t-157.5 -24zM408 -197q66 0 123 50t69 120q12 68 -27.5 118t-105.5 50q-69 0 -126.5 -50t-68.5 -118q-12 -71 27.5 -120.5t108.5 -49.5z" />
    <glyph glyph-name=".notdef" horiz-adv-x="1191" 
d="M-176 -504l358 2040h1190l-358 -2040h-1190zM399 266h176l37 144q191 33 321.5 142.5t160.5 278.5q16 90 -5 167t-70.5 128.5t-122 81t-157.5 29.5q-288 0 -497 -266l182 -131q71 86 131.5 125t132.5 39q75 0 118 -50t30 -125q-11 -61 -43 -104t-88 -69.5t-121.5 -41.5
t-157.5 -24zM408 -197q66 0 123 50t69 120q12 68 -27.5 118t-105.5 50q-69 0 -126.5 -50t-68.5 -118q-12 -71 27.5 -120.5t108.5 -49.5z" />
    <glyph glyph-name=".null" horiz-adv-x="0" 
 />
    <glyph glyph-name="nonmarkingreturn" horiz-adv-x="682" 
 />
    <glyph glyph-name="space" unicode=" " horiz-adv-x="552" 
 />
    <glyph glyph-name="exclam" unicode="!" horiz-adv-x="606" 
d="M219 418l148 1016h198l-213 -1016h-133zM233 -23q-55 0 -93 37.5t-38 91.5t38 93t93 39t93.5 -39t38.5 -93t-38.5 -91.5t-93.5 -37.5z" />
    <glyph glyph-name="quotedbl" unicode="&#x22;" horiz-adv-x="948" 
d="M418 885h-152l74 549h197zM813 885h-151l73 549h197z" />
    <glyph glyph-name="numbersign" unicode="#" horiz-adv-x="1318" 
d="M70 528h202l168 377h-305l27 146h342l170 383h170l-170 -383h338l170 383h170l-170 -383h166l-25 -146h-205l-166 -377h303l-24 -145h-342l-170 -383h-172l170 383h-338l-170 -383h-170l170 383h-166zM442 528h338l168 377h-338z" />
    <glyph glyph-name="dollar" unicode="$" 
d="M82 240l137 102q101 -144 262 -176l88 510q-50 26 -85 47.5t-76 55.5t-65.5 70.5t-41 88.5t-16.5 113q0 158 117 266t303 117l24 143h152l-27 -154q225 -45 330 -221l-137 -100q-70 133 -220 170l-84 -479q55 -28 90.5 -49.5t80 -57.5t70.5 -73t44.5 -90.5t18.5 -116.5
q0 -172 -121 -286t-324 -120l-24 -143h-152l27 153q-249 39 -371 230zM461 1065q0 -63 37 -109.5t106 -89.5l72 412q-102 -12 -158.5 -71t-56.5 -142zM870 391q0 71 -41.5 120.5t-119.5 92.5l-78 -446q117 10 178 72t61 161z" />
    <glyph glyph-name="percent" unicode="%" horiz-adv-x="1701" 
d="M555 1475q141 0 224 -86t83 -218q0 -155 -107.5 -269t-267.5 -114q-143 0 -226 86.5t-83 219.5q0 155 107 268t270 113zM156 0l1261 1434h193l-1262 -1434h-192zM489 911q103 0 169.5 77t66.5 183q0 80 -48 131.5t-128 51.5q-102 0 -169 -78t-67 -184q0 -78 48 -129.5
t128 -51.5zM1290 643q141 0 224 -85.5t83 -217.5q0 -155 -107 -269t-267 -114q-143 0 -226.5 86t-83.5 219q0 155 107 268t270 113zM1225 80q103 0 169 77t66 183q0 80 -48 131t-128 51q-102 0 -168.5 -78t-66.5 -184q0 -78 48 -129t128 -51z" />
    <glyph glyph-name="ampersand" unicode="&#x26;" horiz-adv-x="1478" 
d="M1323 0h-215l-104 131q-189 -170 -439 -170q-210 0 -338.5 110t-128.5 289q0 317 373 443q-59 85 -87 155.5t-28 149.5q0 154 109.5 260.5t286.5 106.5q163 0 261.5 -91.5t98.5 -240.5q0 -137 -107.5 -242t-273.5 -153l285 -361q107 150 190 381h187q-126 -325 -273 -512
zM532 1102q0 -58 26 -113t87 -135q142 40 219.5 111.5t77.5 164.5q0 80 -50 132.5t-142 52.5q-101 0 -159.5 -61t-58.5 -152zM283 377q0 -115 82 -187.5t210 -72.5q180 0 328 139l-325 406q-3 4 -10.5 12t-10.5 12q-274 -92 -274 -309z" />
    <glyph glyph-name="quotesingle" unicode="'" horiz-adv-x="555" 
d="M418 885h-152l74 549h197z" />
    <glyph glyph-name="parenleft" unicode="(" horiz-adv-x="645" 
d="M770 1421q-267 -223 -395.5 -478.5t-128.5 -553.5q0 -219 54 -380t175 -326l-135 -93q-270 325 -270 799q0 687 594 1147z" />
    <glyph glyph-name="parenright" unicode=")" horiz-adv-x="645" 
d="M-113 -295q525 438 525 1032q0 219 -54.5 380.5t-175.5 326.5l135 92q271 -327 271 -799q0 -687 -596 -1147z" />
    <glyph glyph-name="asterisk" unicode="*" horiz-adv-x="860" 
d="M766 752l-131 -80l-119 264l-213 -264l-117 94l242 250l-281 80l66 135l266 -113l37 316h154l-74 -318l305 115l23 -144l-314 -81z" />
    <glyph glyph-name="plus" unicode="+" 
d="M1102 440h-424l-78 -440h-151l77 440h-426l29 152h424l78 440h151l-77 -440h423z" />
    <glyph glyph-name="comma" unicode="," horiz-adv-x="552" 
d="M111 -328h-170l264 543h207z" />
    <glyph glyph-name="hyphen" unicode="-" horiz-adv-x="616" 
d="M57 608h537l-31 -168h-536z" />
    <glyph glyph-name="period" unicode="." horiz-adv-x="552" 
d="M207 -23q-56 0 -94.5 37.5t-38.5 91.5t39 93t94 39t93 -39t38 -93t-38 -91.5t-93 -37.5z" />
    <glyph glyph-name="slash" unicode="/" horiz-adv-x="710" 
d="M-133 -403l819 1939h176l-817 -1939h-178z" />
    <glyph glyph-name="zero" unicode="0" 
d="M739 1475q227 0 341 -154.5t114 -427.5q0 -181 -42.5 -347.5t-120.5 -298t-200 -210t-270 -78.5q-227 0 -341 154.5t-114 427.5q0 181 42.5 347.5t120.5 298t200 210t270 78.5zM559 131q132 0 235.5 110t156.5 282.5t53 369.5q0 191 -65.5 300.5t-197.5 109.5
q-100 0 -185 -64.5t-141.5 -171t-88 -243.5t-31.5 -283q0 -190 66 -300t198 -110z" />
    <glyph glyph-name="one" unicode="1" horiz-adv-x="917" 
d="M377 0l217 1225l-387 -199l-78 148l502 260h182l-252 -1434h-184z" />
    <glyph glyph-name="two" unicode="2" 
d="M61 0l31 166l588 510q166 145 226.5 230t60.5 184q0 96 -65.5 157.5t-164.5 61.5q-97 0 -177.5 -53.5t-156.5 -168.5l-145 101q183 287 494 287q174 0 289.5 -104.5t115.5 -264.5q0 -75 -20.5 -138.5t-71 -130.5t-113.5 -129.5t-170 -154.5l-448 -387h690l-29 -166h-934z
" />
    <glyph glyph-name="three" unicode="3" 
d="M1141 1106q0 -117 -73 -212.5t-208 -139.5q115 -50 171 -141.5t56 -202.5q0 -197 -140 -324t-372 -127q-183 0 -314 76.5t-202 214.5l162 88q120 -213 357 -213q146 0 232.5 81t86.5 208q0 121 -77.5 192.5t-233.5 71.5h-178l28 166h197q154 0 234.5 70t80.5 180
q0 94 -62.5 154.5t-154.5 60.5q-94 0 -167.5 -44.5t-141.5 -146.5l-146 101q173 256 469 256q169 0 282.5 -104.5t113.5 -264.5z" />
    <glyph glyph-name="four" unicode="4" 
d="M80 414l29 166l790 854h234l-150 -854h158l-29 -166h-160l-71 -414h-185l72 414h-688zM311 580h488l114 651z" />
    <glyph glyph-name="five" unicode="5" 
d="M252 680l174 754h768l-29 -166h-592l-96 -420h123q129 0 225.5 -32.5t152.5 -91.5t82.5 -133t26.5 -165q0 -97 -35 -182t-99.5 -148.5t-161 -100t-213.5 -36.5q-184 0 -315.5 76t-203.5 215l162 88q120 -213 359 -213q145 0 231 81t86 208q0 122 -78.5 194t-238.5 72
h-328z" />
    <glyph glyph-name="six" unicode="6" 
d="M782 1475q162 0 285 -75.5t182 -207.5l-162 -88q-43 99 -125 152t-184 53q-124 0 -222 -77.5t-156.5 -205.5t-82.5 -295q164 164 371 164q192 0 309 -116t117 -310q0 -107 -38 -200.5t-105.5 -162t-166 -108t-214.5 -39.5q-212 0 -344.5 148.5t-132.5 410.5q0 151 26 290
t80.5 261t132.5 212t188.5 142t241.5 52zM303 524q0 -199 81 -298t208 -99q148 0 239 94t91 242q0 124 -74 195t-193 71q-107 0 -197.5 -51t-154.5 -139v-15z" />
    <glyph glyph-name="seven" unicode="7" 
d="M324 0h-220l943 1268h-760l28 166h967l-27 -166z" />
    <glyph glyph-name="eight" unicode="8" 
d="M264 1075q0 75 30.5 145.5t87 128t147.5 92t202 34.5q201 0 319.5 -100.5t118.5 -260.5q0 -118 -71.5 -212.5t-208.5 -135.5q109 -47 166 -136t57 -210q0 -87 -32.5 -167.5t-96 -147t-168.5 -106.5t-237 -40q-239 0 -370.5 113.5t-131.5 298.5q0 145 91.5 265.5
t264.5 162.5q-82 43 -125 114t-43 162zM459 1069q0 -101 63.5 -158t186.5 -57q129 0 197.5 73.5t68.5 176.5q0 97 -67 155t-183 58q-121 0 -193.5 -74t-72.5 -174zM920 430q0 123 -80.5 194.5t-235.5 71.5q-163 0 -249.5 -90t-86.5 -219q0 -123 80.5 -194.5t235.5 -71.5
q163 0 249.5 90t86.5 219z" />
    <glyph glyph-name="nine" unicode="9" 
d="M508 -41q-162 0 -285 75.5t-182 207.5l162 88q43 -99 124.5 -152t182.5 -53q125 0 223.5 77.5t157 205t82.5 294.5q-163 -163 -371 -163q-192 0 -309 116t-117 310q0 107 38 200.5t105.5 162t166 108t214.5 39.5q212 0 345 -149t133 -411q0 -190 -43 -360t-124 -304
t-211 -213t-292 -79zM369 971q0 -124 73 -195t193 -71q107 0 198.5 51.5t153.5 140.5v12q0 199 -81 298.5t-208 99.5q-149 0 -239 -94t-90 -242z" />
    <glyph glyph-name="colon" unicode=":" horiz-adv-x="552" 
d="M350 795q-56 0 -94.5 38.5t-38.5 92.5t38 91.5t95 37.5q54 0 92.5 -37.5t38.5 -91.5t-38.5 -92.5t-92.5 -38.5zM207 -23q-55 0 -93 37.5t-38 91.5t38 93t93 39t94 -39t39 -93t-38.5 -91.5t-94.5 -37.5z" />
    <glyph glyph-name="semicolon" unicode=";" horiz-adv-x="552" 
d="M348 795q-56 0 -94.5 38.5t-38.5 92.5t38 91.5t95 37.5q54 0 92.5 -37.5t38.5 -91.5t-38.5 -92.5t-92.5 -38.5zM70 -328h-168l264 543h207z" />
    <glyph glyph-name="less" unicode="&#x3c;" 
d="M1053 158l-29 -158l-926 428l33 176l1075 428l-28 -170l-879 -352z" />
    <glyph glyph-name="equal" unicode="=" 
d="M1141 662h-1000l25 151h1001zM1063 219h-1000l25 152h1002z" />
    <glyph glyph-name="greater" unicode="&#x3e;" 
d="M53 170l877 352l-754 352l29 158l925 -428l-30 -176l-1075 -428z" />
    <glyph glyph-name="question" unicode="?" horiz-adv-x="1011" 
d="M340 418l22 330q248 23 372 100.5t124 230.5q0 96 -65.5 165t-174.5 69q-161 0 -284 -164l-137 96q77 113 189.5 171.5t248.5 58.5q180 0 297 -107.5t117 -280.5q0 -194 -142.5 -314t-386.5 -150l-49 -205h-131zM352 -23q-55 0 -93 37.5t-38 91.5t38 93t93 39t94 -39
t39 -93t-38.5 -91.5t-94.5 -37.5z" />
    <glyph glyph-name="at" unicode="@" horiz-adv-x="1667" 
d="M471 465q0 175 106 294.5t267 119.5q75 0 137 -30.5t102 -86.5l17 90h143l-86 -479q-8 -49 15 -79t75 -30q90 0 153.5 102t63.5 265q0 147 -73 267.5t-203.5 190.5t-292.5 70q-150 0 -279 -57.5t-215.5 -153.5t-135 -222t-48.5 -263q0 -131 47 -243.5t126.5 -189
t186 -120t224.5 -43.5q151 0 265.5 45.5t221.5 144.5l72 -94q-114 -107 -249 -157t-310 -50q-203 0 -365.5 88t-256 250t-93.5 369q0 161 59 308.5t163.5 258t257 176.5t329.5 66q198 0 357.5 -83t249 -229.5t89.5 -326.5q0 -132 -46.5 -244t-125 -177t-170.5 -65
q-79 0 -131.5 34.5t-73.5 92.5q-112 -127 -258 -127q-138 0 -226.5 90t-88.5 228zM621 471q0 -86 49.5 -141.5t136.5 -55.5q129 0 211 111l41 229q-31 63 -82 99.5t-119 36.5q-102 0 -169.5 -78.5t-67.5 -200.5z" />
    <glyph glyph-name="A" unicode="A" horiz-adv-x="1466" 
d="M-39 0l807 1434h256l301 -1434h-199l-84 422h-636l-234 -422h-211zM498 588h512l-136 676z" />
    <glyph glyph-name="B" unicode="B" horiz-adv-x="1196" 
d="M129 0l254 1434h297q206 0 314 -88.5t108 -247.5q0 -113 -62 -204t-174 -138q100 -45 152.5 -125.5t52.5 -181.5q0 -200 -150.5 -324.5t-390.5 -124.5h-401zM672 1270h-125l-78 -432h160q123 0 196.5 69t73.5 170q0 92 -59 142.5t-168 50.5zM625 674h-185l-90 -510h191
q149 0 239 77.5t90 202.5q0 104 -64.5 167t-180.5 63z" />
    <glyph glyph-name="C" unicode="C" horiz-adv-x="1501" 
d="M936 1475q193 0 342 -86.5t231 -225.5l-166 -110q-58 107 -169.5 173t-243.5 66q-173 0 -312.5 -88.5t-216.5 -238t-77 -328.5q0 -137 56 -249.5t163.5 -180.5t247.5 -68q262 0 454 215l137 -125q-108 -131 -262 -200.5t-338 -69.5q-193 0 -343.5 85.5t-233 237
t-82.5 343.5q0 169 60 324t164.5 271t258 185.5t330.5 69.5z" />
    <glyph glyph-name="D" unicode="D" horiz-adv-x="1589" 
d="M129 0l254 1434h430q328 0 524.5 -174.5t196.5 -468.5q0 -124 -37 -240.5t-111 -216t-175 -174.5t-238 -117.5t-293 -42.5h-551zM813 1257h-268l-193 -1081h328q147 0 271.5 48.5t207 131.5t128.5 193t46 233q0 216 -139.5 345.5t-380.5 129.5z" />
    <glyph glyph-name="E" unicode="E" horiz-adv-x="1120" 
d="M129 0l254 1434h750l-29 -164h-557l-82 -459h479l-29 -162h-479l-86 -485h559l-28 -164h-752z" />
    <glyph glyph-name="F" unicode="F" horiz-adv-x="1040" 
d="M129 0l254 1434h750l-29 -164h-557l-82 -459h479l-29 -162h-479l-114 -649h-193z" />
    <glyph glyph-name="G" unicode="G" horiz-adv-x="1605" 
d="M784 -41q-193 0 -343.5 85.5t-233 237t-82.5 343.5q0 169 60.5 324t167 271t261.5 185.5t334 69.5q199 0 345.5 -85t230.5 -225l-168 -108q-57 106 -167 170.5t-251 64.5q-175 0 -316 -88.5t-218.5 -238t-77.5 -328.5q0 -137 55.5 -249.5t163.5 -180.5t248 -68
q244 0 434 164l61 344h-401l28 166h594l-104 -592q-114 -120 -274.5 -191t-346.5 -71z" />
    <glyph glyph-name="H" unicode="H" horiz-adv-x="1658" 
d="M129 0l254 1434h192l-108 -617h836l108 617h193l-254 -1434h-193l115 643h-836l-114 -643h-193z" />
    <glyph glyph-name="I" unicode="I" horiz-adv-x="630" 
d="M129 0l254 1434h192l-253 -1434h-193z" />
    <glyph glyph-name="J" unicode="J" horiz-adv-x="655" 
d="M354 37q-35 -197 -134 -284t-259 -87q-106 0 -164 25l31 164q51 -19 113 -19q96 0 149 48.5t76 187.5l242 1362h192z" />
    <glyph glyph-name="K" unicode="K" horiz-adv-x="1435" 
d="M129 0l254 1434h192l-126 -713l827 713h254l-694 -598l456 -836h-225l-377 711l-287 -248l-81 -463h-193z" />
    <glyph glyph-name="L" unicode="L" horiz-adv-x="1040" 
d="M129 0l254 1434h192l-223 -1258h559l-30 -176h-752z" />
    <glyph glyph-name="M" unicode="M" horiz-adv-x="1767" 
d="M129 0l254 1434h238l292 -713l543 713h256l-252 -1434h-192l207 1169l-521 -677h-145l-281 677l-206 -1169h-193z" />
    <glyph glyph-name="N" unicode="N" horiz-adv-x="1658" 
d="M129 0l254 1434h246l569 -1207l213 1207h193l-254 -1434h-248l-567 1202l-213 -1202h-193z" />
    <glyph glyph-name="O" unicode="O" horiz-adv-x="1660" 
d="M940 1475q195 0 348 -85.5t237.5 -237t84.5 -343.5q0 -169 -60 -324t-165.5 -271t-260 -185.5t-331.5 -69.5q-194 0 -346.5 85.5t-237 237.5t-84.5 343q0 169 60 324t165 271t259 185.5t331 69.5zM797 139q175 0 316 89.5t218.5 239.5t77.5 329q0 102 -33.5 192.5
t-93.5 158t-149.5 107t-196.5 39.5q-175 0 -315.5 -89t-217.5 -239t-77 -329q0 -210 129.5 -354t341.5 -144z" />
    <glyph glyph-name="P" unicode="P" horiz-adv-x="1144" 
d="M129 0l254 1434h369q199 0 314.5 -96.5t115.5 -272.5q0 -191 -136.5 -313.5t-369.5 -122.5h-244l-110 -629h-193zM741 1270h-194l-84 -477h209q143 0 225 72.5t82 193.5q0 103 -62 157t-176 54z" />
    <glyph glyph-name="Q" unicode="Q" horiz-adv-x="1660" 
d="M125 631q0 166 59.5 319t164.5 269.5t260.5 186t336.5 69.5q198 0 350.5 -89t233 -240.5t80.5 -340.5q0 -232 -110 -430.5t-302 -308.5l94 -103q119 -125 254 -125q68 0 115 15l-29 -166q-58 -21 -125 -21q-202 0 -356 158l-156 160q-103 -25 -209 -25q-148 0 -272.5 52
t-209.5 142t-132 213.5t-47 264.5zM1409 807q0 134 -56.5 244t-164.5 176.5t-248 66.5q-135 0 -251 -55t-195 -147.5t-123.5 -214.5t-44.5 -254t56.5 -241.5t164.5 -176t246 -66.5q135 0 251.5 55t195.5 147.5t124 213.5t45 252z" />
    <glyph glyph-name="R" unicode="R" horiz-adv-x="1275" 
d="M129 0l254 1434h334q202 0 316 -96t114 -273q0 -145 -84.5 -254.5t-231.5 -155.5l343 -655h-216l-307 629h-219l-110 -629h-193zM707 1270h-160l-84 -477h176q141 0 223 72.5t82 193.5q0 104 -61 157.5t-176 53.5z" />
    <glyph glyph-name="S" unicode="S" horiz-adv-x="1167" 
d="M483 1087q0 -60 29 -110t75 -87t101.5 -73.5t111.5 -77t102 -87t75 -115.5t29 -152q0 -183 -129.5 -304.5t-335.5 -121.5q-308 0 -467 246l149 114q130 -188 322 -188q117 0 189.5 69.5t72.5 170.5q0 60 -29 111t-75 89t-102 74.5t-112 77t-102 87t-75 115t-29 150.5
q0 164 127 282t317 118q284 0 424 -240l-152 -113q-98 181 -280 181q-100 0 -168 -63.5t-68 -152.5z" />
    <glyph glyph-name="T" unicode="T" horiz-adv-x="1251" 
d="M201 1257l30 177h1110l-30 -177h-459l-221 -1257h-193l221 1257h-458z" />
    <glyph glyph-name="U" unicode="U" horiz-adv-x="1441" 
d="M1071 528l160 906h192l-159 -910q-102 -565 -600 -565q-126 0 -225.5 39t-165 114.5t-89.5 187.5t2 259l156 875h193l-156 -885q-35 -199 44 -304.5t253 -105.5q162 0 261.5 99t133.5 290z" />
    <glyph glyph-name="V" unicode="V" horiz-adv-x="1466" 
d="M215 1434h197l260 -1235l694 1235h211l-807 -1434h-254z" />
    <glyph glyph-name="W" unicode="W" horiz-adv-x="2068" 
d="M227 1434h193l82 -1213l561 1213h258l131 -1213l510 1213h205l-608 -1434h-265l-137 1225l-567 -1225h-258z" />
    <glyph glyph-name="X" unicode="X" horiz-adv-x="1425" 
d="M205 0h-236l660 760l-365 674h213l299 -551l477 551h238l-612 -701l395 -733h-213l-330 608z" />
    <glyph glyph-name="Y" unicode="Y" horiz-adv-x="1347" 
d="M1497 1434l-706 -793l-113 -641h-193l115 651l-424 783h217l328 -607l536 607h240z" />
    <glyph glyph-name="Z" unicode="Z" horiz-adv-x="1329" 
d="M18 0l31 176l1034 1081h-823l31 177h1071l-31 -177l-1032 -1081h862l-31 -176h-1112z" />
    <glyph glyph-name="bracketleft" unicode="[" horiz-adv-x="608" 
d="M0 -252l315 1788h445l-27 -152h-278l-289 -1636h280l-26 -151h-447z" />
    <glyph glyph-name="backslash" unicode="\" horiz-adv-x="710" 
d="M522 -403h-168l-145 1939h168z" />
    <glyph glyph-name="bracketright" unicode="]" horiz-adv-x="608" 
d="M313 -403h-444l27 151h278l289 1636h-279l27 152h444l-26 -152z" />
    <glyph glyph-name="asciicircum" unicode="^" 
d="M365 315h-168l348 463h235l187 -463h-152l-160 369z" />
    <glyph glyph-name="underscore" unicode="_" horiz-adv-x="1073" 
d="M-100 -190h1026l-27 -152h-1028z" />
    <glyph glyph-name="grave" unicode="`" horiz-adv-x="688" 
d="M498 1196l-174 340h188l147 -340h-161z" />
    <glyph glyph-name="a" unicode="a" horiz-adv-x="1116" 
d="M383 -29q-142 0 -228.5 70t-86.5 195q0 127 91.5 211t272.5 116l371 62l10 59q19 109 -36 171.5t-165 62.5q-164 0 -293 -146l-124 105q74 89 185.5 142.5t242.5 53.5q204 0 298 -114.5t60 -307.5l-117 -651h-172l21 113q-129 -142 -330 -142zM248 254q0 -64 45.5 -101.5
t128.5 -37.5q193 0 319 168l39 211l-311 -54q-111 -18 -166 -66t-55 -120z" />
    <glyph glyph-name="b" unicode="b" horiz-adv-x="1312" 
d="M1229 590q0 -170 -70 -313t-203.5 -230.5t-304.5 -87.5q-114 0 -209.5 44t-156.5 126l-23 -129h-176l272 1536h174l-104 -590q148 127 336 127q217 0 341 -134t124 -349zM723 909q-97 0 -183.5 -43.5t-148.5 -128.5l-72 -405q45 -99 127.5 -154t192.5 -55
q177 0 291 131.5t114 325.5q0 144 -86.5 236.5t-234.5 92.5z" />
    <glyph glyph-name="c" unicode="c" horiz-adv-x="1110" 
d="M694 1073q144 0 253.5 -60t162.5 -157l-147 -113q-39 75 -112 120.5t-171 45.5q-119 0 -214.5 -64t-147.5 -168.5t-52 -225.5q0 -141 87.5 -234.5t232.5 -93.5q185 0 301 147l119 -118q-74 -90 -183 -141.5t-239 -51.5q-231 0 -366.5 140t-135.5 354q0 124 46 237.5
t126 198t195 134.5t245 50z" />
    <glyph glyph-name="d" unicode="d" horiz-adv-x="1308" 
d="M84 442q0 169 72 312.5t206 231t300 87.5q114 0 209.5 -44t158.5 -126l111 633h174l-271 -1536h-174l19 104q-154 -145 -344 -145q-218 0 -339.5 133.5t-121.5 349.5zM268 453q0 -144 87 -237t235 -93q97 0 184 44t150 130l69 401q-43 100 -125.5 155.5t-193.5 55.5
q-177 0 -291.5 -131t-114.5 -325z" />
    <glyph glyph-name="e" unicode="e" horiz-adv-x="1153" 
d="M573 -41q-154 0 -266.5 66.5t-167.5 177t-55 250.5q0 169 66.5 308.5t198.5 225.5t306 86q184 0 305 -109.5t121 -275.5q0 -92 -32 -174h-783q-2 -20 -2 -63q0 -154 83.5 -244t236.5 -90q104 0 192.5 43t145.5 116l116 -112q-79 -97 -200 -151t-265 -54zM651 928
q-136 0 -227 -76t-131 -205h612q10 71 -15 134.5t-88 105t-151 41.5z" />
    <glyph glyph-name="f" unicode="f" horiz-adv-x="770" 
d="M139 1032h189l24 139q30 180 130.5 272.5t252.5 92.5q140 0 240 -70l-94 -137q-63 49 -144 49q-79 0 -136 -52.5t-75 -154.5l-24 -139h346l-27 -158h-346l-242 -1378h-176l242 1378h-190z" />
    <glyph glyph-name="g" unicode="g" horiz-adv-x="1105" 
d="M-63 -211q0 181 206 293q-53 53 -53 125q0 131 168 223q-106 92 -106 246q0 78 29 149t82.5 127t136.5 89.5t182 33.5q110 0 194 -43h393l-28 -151h-221q26 -59 26 -136q0 -78 -29 -150t-81.5 -128t-134.5 -89.5t-181 -33.5q-90 0 -158 27q-104 -60 -104 -125
q0 -62 74 -62h254q187 0 278.5 -81.5t91.5 -217.5q0 -171 -148 -284t-409 -113q-229 0 -345.5 80t-116.5 221zM782 741q0 83 -54.5 140t-145.5 57q-123 0 -194 -76.5t-71 -183.5q0 -85 54 -141t149 -56q119 0 190.5 76.5t71.5 183.5zM111 -188q0 -179 295 -179q184 0 278 66
t94 172q0 160 -205 160h-297q-80 -39 -122.5 -99.5t-42.5 -119.5z" />
    <glyph glyph-name="h" unicode="h" horiz-adv-x="1232" 
d="M86 0l270 1536h174l-108 -612q156 149 340 149t276.5 -117t55.5 -331l-111 -625h-174l109 618q25 137 -31 214t-176 77q-97 0 -180.5 -51.5t-143.5 -142.5v2l-127 -717h-174z" />
    <glyph glyph-name="i" unicode="i" horiz-adv-x="528" 
d="M424 1300q-51 0 -87 36t-36 87q0 50 36 85.5t87 35.5t86 -35.5t35 -85.5q0 -51 -35 -87t-86 -36zM88 0l180 1032h174l-182 -1032h-172z" />
    <glyph glyph-name="j" unicode="j" horiz-adv-x="528" 
d="M424 1300q-51 0 -87 36t-36 87q0 50 36 85.5t87 35.5q50 0 85.5 -36t35.5 -85q0 -51 -35.5 -87t-85.5 -36zM233 -150q-35 -202 -128 -282t-250 -80q-125 0 -199 41l27 154q76 -35 147 -35q48 0 82 8t65 29.5t52 64.5t32 109l207 1173h174z" />
    <glyph glyph-name="k" unicode="k" horiz-adv-x="1085" 
d="M90 0l268 1536h177l-173 -983l539 479h232l-492 -434l320 -598h-197l-254 481l-191 -168l-55 -313h-174z" />
    <glyph glyph-name="l" unicode="l" horiz-adv-x="528" 
d="M88 0l270 1536h174l-272 -1536h-172z" />
    <glyph glyph-name="m" unicode="m" horiz-adv-x="1873" 
d="M88 0l180 1032h174l-18 -106q144 147 317 147q112 0 191 -50t112 -146q168 196 379 196q173 0 262 -116t52 -322l-111 -635h-176l111 629q24 135 -28 207.5t-161 72.5q-167 0 -309 -200q0 -24 -8 -74l-113 -635h-174l111 629q24 135 -28 207.5t-161 72.5
q-171 0 -303 -194l-127 -715h-172z" />
    <glyph glyph-name="n" unicode="n" horiz-adv-x="1232" 
d="M86 0l182 1032h174l-18 -108q149 149 338 149q184 0 276.5 -117t55.5 -331l-111 -625h-174l111 618q24 137 -32.5 214t-176.5 77q-97 0 -180.5 -51.5t-143.5 -142.5l-127 -715h-174z" />
    <glyph glyph-name="o" unicode="o" horiz-adv-x="1267" 
d="M694 1073q227 0 360.5 -140t133.5 -353q0 -122 -44.5 -234.5t-122 -198t-193 -137t-248.5 -51.5q-152 0 -266.5 66t-173 177.5t-58.5 250.5q0 122 44.5 234.5t122.5 198t194 136.5t251 51zM582 123q122 0 220 64.5t150 169t52 225.5q0 140 -88 233.5t-228 93.5
q-122 0 -220 -64t-150 -168.5t-52 -225.5q0 -140 88 -234t228 -94z" />
    <glyph glyph-name="p" unicode="p" horiz-adv-x="1310" 
d="M-2 -504l270 1536h174l-18 -102q152 143 344 143q218 0 339.5 -133.5t121.5 -349.5q0 -169 -72 -312.5t-206 -231t-300 -87.5q-115 0 -210 44t-158 126l-111 -633h-174zM721 909q-96 0 -182.5 -44t-149.5 -130l-70 -401q43 -100 126 -155.5t194 -55.5q177 0 291 131.5
t114 325.5q0 144 -87 236.5t-236 92.5z" />
    <glyph glyph-name="q" unicode="q" horiz-adv-x="1310" 
d="M84 442q0 169 72 312.5t206 231t300 87.5q114 0 209.5 -44.5t158.5 -127.5l23 131h172l-271 -1536h-172l105 592q-147 -129 -338 -129q-219 0 -342 133.5t-123 349.5zM268 453q0 -144 87 -237t235 -93q98 0 184.5 44.5t149.5 131.5l69 399q-43 100 -125.5 155.5
t-193.5 55.5q-177 0 -291.5 -131t-114.5 -325z" />
    <glyph glyph-name="r" unicode="r" horiz-adv-x="790" 
d="M86 0l182 1032h174l-24 -137q68 78 140.5 118t168.5 40q50 0 94 -13l-30 -170q-63 13 -93 13q-94 0 -170 -50.5t-145 -140.5l-123 -692h-174z" />
    <glyph glyph-name="s" unicode="s" horiz-adv-x="876" 
d="M338 774q0 -42 22.5 -76t58.5 -58.5t79 -48t86.5 -51t79.5 -60.5t58.5 -83.5t22.5 -113.5q0 -131 -98.5 -227.5t-259.5 -96.5q-120 0 -217.5 52t-157.5 149l131 98q98 -154 252 -154q80 0 130 48.5t50 121.5q0 42 -22.5 76t-58.5 58.5t-79 48t-86.5 51t-79.5 60.5
t-58.5 84t-22.5 114q0 127 99 217t253 90q112 0 200 -51.5t132 -136.5l-133 -94q-69 137 -203 137q-76 0 -127 -46t-51 -108z" />
    <glyph glyph-name="t" unicode="t" horiz-adv-x="835" 
d="M209 373l90 501h-188l28 158h189l45 258h176l-45 -258h344l-27 -158h-346l-92 -514q-22 -124 20.5 -172.5t141.5 -48.5q76 0 151 27l-26 -156q-82 -30 -168 -30q-362 0 -293 393z" />
    <glyph glyph-name="u" unicode="u" horiz-adv-x="1200" 
d="M858 442l105 590h176l-107 -592q-40 -234 -163 -357.5t-326 -123.5q-219 0 -328.5 131.5t-69.5 368.5l103 573h174l-105 -590q-27 -152 36.5 -235.5t201.5 -83.5q121 0 198 81.5t105 237.5z" />
    <glyph glyph-name="v" unicode="v" horiz-adv-x="1060" 
d="M119 1032h182l168 -844l463 844h194l-571 -1032h-229z" />
    <glyph glyph-name="w" unicode="w" horiz-adv-x="1597" 
d="M160 1032h168l55 -856l381 856h237l80 -852l359 852h180l-432 -1032h-246l-82 877l-391 -877h-240z" />
    <glyph glyph-name="x" unicode="x" horiz-adv-x="1056" 
d="M160 0h-205l469 545l-260 487h188l199 -379l321 379h205l-436 -508l281 -524h-189l-219 416z" />
    <glyph glyph-name="y" unicode="y" horiz-adv-x="1091" 
d="M406 -250q-80 -139 -166.5 -200.5t-204.5 -61.5q-122 0 -187 41l27 154q65 -35 141 -35q69 0 127 38t111 128l111 188l-246 1030h184l186 -813l474 813h192z" />
    <glyph glyph-name="z" unicode="z" horiz-adv-x="1005" 
d="M8 0l29 158l706 716h-567l29 158h782l-26 -158l-709 -716h596l-29 -158h-811z" />
    <glyph glyph-name="braceleft" unicode="{" horiz-adv-x="608" 
d="M389 389q0 -57 -20 -117t-49 -111t-58 -100.5t-49 -101t-20 -96.5q0 -56 40.5 -85.5t114.5 -29.5h98l-26 -151h-90q-145 0 -225 67t-80 186q0 68 31.5 143.5t68.5 132t68.5 128t31.5 131.5q0 107 -94 107h-115l27 151h119q68 0 103.5 51.5t35.5 134.5q0 63 -22.5 190
t-22.5 200q0 143 93.5 230t260.5 87h152l-29 -152h-121q-91 0 -140.5 -46t-49.5 -138q0 -62 22.5 -177t22.5 -183q0 -89 -40.5 -168t-119.5 -117q82 -59 82 -166z" />
    <glyph glyph-name="bar" unicode="|" horiz-adv-x="710" 
d="M111 -403l342 1939h165l-342 -1939h-165z" />
    <glyph glyph-name="braceright" unicode="}" horiz-adv-x="608" 
d="M242 743q0 57 20 117.5t49 111.5t58 100t49 101t20 97q0 56 -41 85t-114 29h-99l27 152h90q144 0 224.5 -67.5t80.5 -186.5q0 -56 -20.5 -115t-50 -110t-59 -101t-50 -105t-20.5 -106q0 -102 92 -102h116l-28 -154h-119q-67 0 -103 -51.5t-36 -134.5q0 -63 23.5 -189.5
t23.5 -199.5q0 -142 -95 -229.5t-262 -87.5h-149l27 151h120q91 0 141 46t50 138q0 63 -21.5 177.5t-21.5 183.5q0 88 40.5 167.5t117.5 117.5q-80 59 -80 165z" />
    <glyph glyph-name="asciitilde" unicode="~" 
d="M172 332l35 194q43 248 227 248q72 0 123 -33.5t78 -81t49 -94.5t49.5 -80.5t65.5 -33.5q84 0 106 129l33 182h131l-35 -195q-43 -248 -227 -248q-61 0 -107 24t-71.5 60t-48.5 78t-39.5 78t-42 60t-58.5 24q-84 0 -106 -129l-31 -182h-131z" />
    <glyph glyph-name="nbspace" unicode="&#xa0;" horiz-adv-x="552" 
 />
    <glyph glyph-name="exclamdown" unicode="&#xa1;" horiz-adv-x="606" 
d="M379 1073q55 0 93 -37.5t38 -93.5q0 -54 -38 -91.5t-93 -37.5t-93 37.5t-38 91.5q0 56 38 93.5t93 37.5zM391 633l-145 -1016h-199l213 1016h131z" />
    <glyph glyph-name="cent" unicode="&#xa2;" 
d="M750 1434h149l-29 -164q112 -18 196 -74t128 -135l-147 -111q-29 59 -82 100t-123 54l-137 -774q163 14 266 149l116 -125q-74 -90 -180 -141t-231 -51l-29 -162h-151l30 178q-169 39 -264.5 169t-95.5 308q0 158 70 294t197.5 223.5t287.5 101.5zM350 655
q0 -110 55.5 -193.5t151.5 -115.5l135 760q-151 -29 -246.5 -158t-95.5 -293z" />
    <glyph glyph-name="sterling" unicode="&#xa3;" 
d="M68 0l30 166l146 108q143 110 192 169t49 137q0 26 -6 53h-299l27 149h219q-2 5 -13.5 29.5t-14.5 31.5t-12.5 29.5t-13 32.5t-11 30t-10 33.5t-6.5 31.5t-5.5 34t-1.5 33q0 181 121 294.5t307 113.5q141 0 242.5 -62.5t160.5 -169.5l-147 -94q-90 158 -246 158
q-120 0 -188 -68.5t-68 -185.5q0 -34 10 -74t17.5 -60.5t31.5 -73.5t29 -63h430l-26 -149h-357q4 -32 4 -51q0 -103 -62.5 -187.5t-209.5 -195.5l-45 -33h688l-31 -166h-931z" />
    <glyph glyph-name="currency" unicode="&#xa4;" 
d="M920 0l-168 215q-76 -39 -168 -39q-109 0 -185 51l-258 -227l-100 106l262 234q-29 66 -29 139q0 134 84 242l-168 217l123 94l164 -213q74 41 168 41q107 0 186 -53l256 225l101 -106l-262 -232q28 -64 28 -137q0 -134 -84 -242l172 -221zM588 299q99 0 163 76t64 180
q0 78 -47.5 130t-128.5 52q-97 0 -162 -76t-65 -180q0 -78 48 -130t128 -52z" />
    <glyph glyph-name="yen" unicode="&#xa5;" 
d="M133 475l27 152h383l30 170h-383l27 151h275l-242 488h209l225 -484l397 482h222l-410 -486h274l-28 -151h-381l-31 -170h383l-27 -152h-381l-84 -475h-186l84 475h-383z" />
    <glyph glyph-name="brokenbar" unicode="&#xa6;" horiz-adv-x="710" 
d="M492 817h-166l127 719h165zM276 -403h-165l127 718h165z" />
    <glyph glyph-name="section" unicode="&#xa7;" horiz-adv-x="1042" 
d="M401 -250q94 0 158 51t64 146q0 55 -29 98.5t-75 74t-101.5 58.5t-111.5 60.5t-102 71.5t-75 100t-29 137q0 111 74.5 191t202.5 118q-135 102 -135 266q0 161 115 257t286 96q234 0 397 -193l-118 -104q-134 149 -283 149q-95 0 -158 -51t-63 -146q0 -43 18 -79.5
t48 -63t69 -50t82 -45.5t86 -45.5t82 -54t69 -66t48 -86t18 -110.5q0 -111 -74.5 -191t-201.5 -118q135 -99 135 -266q0 -161 -115.5 -256.5t-286.5 -95.5q-235 0 -407 200l121 105q143 -158 292 -158zM276 555q0 -38 16 -71.5t29.5 -53t58.5 -48.5t58.5 -36.5t74.5 -37.5
q4 -3 7 -4.5t6 -2.5q106 22 171 83.5t65 137.5q0 38 -16 71.5t-29.5 53t-58.5 48.5t-58.5 36.5t-74.5 37.5q-9 5 -13 7q-106 -22 -171 -83.5t-65 -137.5z" />
    <glyph glyph-name="dieresis" unicode="&#xa8;" horiz-adv-x="688" 
d="M309 1315q-47 0 -81.5 34t-34.5 81t34.5 80.5t81.5 33.5q48 0 82.5 -33.5t34.5 -80.5t-35 -81t-82 -34zM702 1315q-47 0 -81.5 34t-34.5 81t34.5 80.5t81.5 33.5q46 0 81.5 -33.5t35.5 -80.5t-35.5 -81t-81.5 -34z" />
    <glyph glyph-name="copyright" unicode="&#xa9;" horiz-adv-x="1685" 
d="M938 1475q163 0 296 -52t219 -142.5t132.5 -212.5t46.5 -263q0 -172 -62.5 -328t-169.5 -270t-258.5 -181t-320.5 -67q-164 0 -297.5 52t-220.5 142.5t-133.5 212.5t-46.5 263q0 172 63 328t170.5 270t259.5 181t322 67zM817 68q146 0 275 58.5t220 158t144 234t53 282.5
q0 120 -38.5 223t-109.5 179t-179 119.5t-240 43.5q-196 0 -356 -100t-249 -267.5t-89 -365.5q0 -120 38.5 -223t110 -179t179.5 -119.5t241 -43.5zM934 1182q122 0 213.5 -53t144.5 -140l-125 -82q-33 62 -97 101t-140 39q-150 0 -247 -109t-97 -268q0 -121 71.5 -203
t192.5 -82q151 0 258 123l102 -92q-65 -80 -160.5 -123t-207.5 -43q-181 0 -294.5 113.5t-113.5 295.5q0 105 37 200.5t101.5 166.5t158.5 113.5t203 42.5z" />
    <glyph glyph-name="ordfeminine" unicode="&#xaa;" horiz-adv-x="712" 
d="M362 803q-88 0 -142 45t-54 125q0 79 56.5 134t168.5 75l219 37l4 26q10 60 -19 94.5t-91 34.5q-92 0 -166 -84l-94 78q45 54 114.5 87.5t153.5 33.5q132 0 190.5 -73.5t36.5 -196.5l-69 -390h-127l10 58q-74 -84 -191 -84zM299 989q0 -38 25 -60t71 -22q101 0 178 97
l21 118l-178 -28q-58 -10 -87.5 -37.5t-29.5 -67.5zM119 528l22 125h490l-23 -125h-489z" />
    <glyph glyph-name="guillemetleft" unicode="&#xab;" horiz-adv-x="1056" 
d="M465 98h-176l-193 410l336 410h201l-346 -429zM883 98h-176l-193 410l336 410h201l-346 -429z" />
    <glyph glyph-name="logicalnot" unicode="&#xac;" 
d="M1167 813l-104 -594h-152l78 443h-848l25 151h1001z" />
    <glyph glyph-name="registered" unicode="&#xae;" horiz-adv-x="1011" 
d="M633 1475q193 0 304.5 -114t111.5 -288q0 -138 -64 -254.5t-176.5 -185t-247.5 -68.5q-195 0 -306.5 114t-111.5 288q0 138 63.5 254.5t176.5 185t250 68.5zM559 639q171 0 287.5 126.5t116.5 305.5q0 144 -88.5 237t-239.5 93q-173 0 -289.5 -126.5t-116.5 -305.5
q0 -144 88 -237t242 -93zM393 758l94 530h140q79 0 124.5 -37t45.5 -104q0 -53 -32 -94t-87 -58l102 -237h-104l-88 225h-56l-40 -225h-99zM621 1206h-50l-24 -141h53q42 0 67 22t25 58q0 61 -71 61z" />
    <glyph glyph-name="macron" unicode="&#xaf;" horiz-adv-x="688" 
d="M182 1350l23 133h620l-22 -133h-621z" />
    <glyph glyph-name="degree" unicode="&#xb0;" horiz-adv-x="815" 
d="M549 1475q137 0 223 -87t86 -217q0 -156 -103.5 -268t-267.5 -112q-137 0 -223 86.5t-86 216.5q0 156 103.5 268.5t267.5 112.5zM494 913q99 0 162 75t63 177q0 80 -49 133.5t-129 53.5q-98 0 -162 -75t-64 -177q0 -80 50 -133.5t129 -53.5z" />
    <glyph glyph-name="plusminus" unicode="&#xb1;" 
d="M1126 586h-424l-53 -297h-149l53 297h-426l27 151h426l51 295h151l-53 -295h424zM1024 0h-999l24 152h1002z" />
    <glyph glyph-name="twosuperior" unicode="&#xb2;" horiz-adv-x="772" 
d="M150 829l22 123l360 312q90 78 123 125t33 104q0 54 -35.5 87.5t-91.5 33.5t-102.5 -33.5t-91.5 -103.5l-107 75q114 185 313 185q111 0 183.5 -65t72.5 -167q0 -87 -49.5 -157t-173.5 -177l-258 -219h406l-23 -123h-581z" />
    <glyph glyph-name="threesuperior" unicode="&#xb3;" horiz-adv-x="772" 
d="M823 1505q0 -71 -43 -127.5t-123 -85.5q67 -31 100.5 -86.5t33.5 -122.5q0 -119 -88 -198.5t-232 -79.5q-117 0 -200 48.5t-126 137.5l119 66q70 -129 209 -129q79 0 127.5 45t48.5 117q0 67 -44 106t-132 39h-111l21 123h119q88 0 133 38t45 99q0 52 -34 85.5t-87 33.5
q-103 0 -176 -111l-107 74q107 160 295 160q108 0 180 -65t72 -167z" />
    <glyph glyph-name="acute" unicode="&#xb4;" horiz-adv-x="688" 
d="M434 1196h-176l268 340h203z" />
    <glyph glyph-name="paragraph" unicode="&#xb6;" horiz-adv-x="1325" 
d="M563 -403h-166l183 1032h-19q-114 0 -206.5 41t-150 127t-57.5 204q0 87 34 164.5t97.5 137.5t162 95.5t218.5 35.5h230zM780 -403l324 1837h166l-326 -1837h-164z" />
    <glyph glyph-name="periodcentered" unicode="&#xb7;" horiz-adv-x="552" 
d="M289 393q-56 0 -94.5 37.5t-38.5 91.5t39 92.5t94 38.5t93 -38.5t38 -92.5t-38 -91.5t-93 -37.5z" />
    <glyph glyph-name="cedilla" unicode="&#xb8;" horiz-adv-x="688" 
d="M227 16l131 -10l-131 -139q80 -1 133.5 -51t53.5 -119q0 -89 -66 -147t-172 -58q-133 0 -215 82l80 90q53 -63 131 -63q47 0 75.5 23.5t28.5 66.5q0 35 -25.5 58.5t-68.5 23.5q-36 0 -80 -19l-51 74z" />
    <glyph glyph-name="onesuperior" unicode="&#xb9;" horiz-adv-x="772" 
d="M139 829l23 123h248l106 604l-221 -112l-55 108l305 160h135l-133 -760h217l-23 -123h-602z" />
    <glyph glyph-name="ordmasculine" unicode="&#xba;" horiz-adv-x="815" 
d="M555 1489q141 0 224 -85.5t83 -217.5q0 -155 -107.5 -269t-267.5 -114q-143 0 -226 86t-83 219q0 155 107 268t270 113zM489 926q103 0 169.5 77t66.5 183q0 80 -48 131t-128 51q-102 0 -169 -78t-67 -184q0 -78 48 -129t128 -51zM123 528l22 125h578l-23 -125h-577z" />
    <glyph glyph-name="guillemetright" unicode="&#xbb;" horiz-adv-x="1056" 
d="M182 918h178l191 -410l-336 -410h-201l348 430zM600 918h178l191 -410l-336 -410h-201l348 430z" />
    <glyph glyph-name="onequarter" unicode="&#xbc;" horiz-adv-x="1832" 
d="M92 553l23 123h247l107 604l-221 -113l-55 109l305 160h135l-133 -760h217l-23 -123h-602zM334 0l1261 1434h193l-1262 -1434h-192zM1079 246l23 123l467 512h170l-90 -512h92l-21 -123h-94l-43 -246h-137l43 246h-410zM1249 369h262l64 358z" />
    <glyph glyph-name="onehalf" unicode="&#xbd;" horiz-adv-x="1996" 
d="M92 553l23 123h247l107 604l-221 -113l-55 109l305 160h135l-133 -760h217l-23 -123h-602zM334 0l1261 1434h193l-1262 -1434h-192zM1231 0l22 123l361 311q89 77 122 125t33 105q0 54 -35.5 87t-91.5 33t-102.5 -33.5t-91.5 -103.5l-107 76q113 184 314 184
q111 0 183.5 -64.5t72.5 -166.5q0 -87 -49.5 -157t-173.5 -177l-258 -219h405l-23 -123h-581z" />
    <glyph glyph-name="threequarters" unicode="&#xbe;" horiz-adv-x="1763" 
d="M776 1229q0 -71 -43 -127.5t-123 -85.5q67 -31 100 -86.5t33 -122.5q0 -119 -87.5 -199t-231.5 -80q-116 0 -199 49t-127 138l119 65q71 -129 209 -129q79 0 127.5 45t48.5 117q0 67 -44 106t-132 39h-111l21 123h119q88 0 133 38.5t45 99.5q0 52 -34 85t-87 33
q-104 0 -176 -110l-107 73q107 160 295 160q108 0 180 -64.5t72 -166.5zM264 0l1262 1434h192l-1261 -1434h-193zM1010 246l22 123l467 512h170l-90 -512h92l-20 -123h-95l-43 -246h-137l43 246h-409zM1180 369h262l63 358z" />
    <glyph glyph-name="questiondown" unicode="&#xbf;" horiz-adv-x="1011" 
d="M664 1073q57 0 95 -37.5t38 -93.5q0 -54 -38 -91.5t-95 -37.5q-54 0 -93 37.5t-39 91.5q0 55 39 93t93 38zM678 633l-25 -330q-495 -45 -495 -342q0 -95 64.5 -159t176.5 -64q162 0 285 164l137 -97q-79 -113 -191 -171t-247 -58q-182 0 -299 102.5t-117 274.5
q0 194 143.5 319t387.5 156l47 205h133z" />
    <glyph glyph-name="Agrave" unicode="&#xc0;" horiz-adv-x="1466" 
d="M838 1556l-205 277h201l176 -277h-172zM-39 0l807 1434h256l301 -1434h-199l-84 422h-636l-234 -422h-211zM498 588h512l-136 676z" />
    <glyph glyph-name="Aacute" unicode="&#xc1;" horiz-adv-x="1466" 
d="M1012 1556h-185l273 277h215zM-39 0l807 1434h256l301 -1434h-199l-84 422h-636l-234 -422h-211zM498 588h512l-136 676z" />
    <glyph glyph-name="Acircumflex" unicode="&#xc2;" horiz-adv-x="1466" 
d="M754 1556h-166l272 277h213l174 -277h-147l-139 189zM-39 0l807 1434h256l301 -1434h-199l-84 422h-636l-234 -422h-211zM498 588h512l-136 676z" />
    <glyph glyph-name="Atilde" unicode="&#xc3;" horiz-adv-x="1466" 
d="M590 1569l14 80q12 89 65 140.5t128 51.5q49 0 88 -17.5t63 -42.5t44 -50t41 -42.5t44 -17.5q52 0 68 78l12 72h135l-14 -80q-12 -89 -66 -141t-129 -52q-49 0 -88.5 17.5t-64 42.5t-45 50t-41 42.5t-41.5 17.5q-53 0 -66 -78l-12 -71h-135zM-39 0l807 1434h256
l301 -1434h-199l-84 422h-636l-234 -422h-211zM498 588h512l-136 676z" />
    <glyph glyph-name="Adieresis" unicode="&#xc4;" horiz-adv-x="1466" 
d="M752 1616q-46 0 -78.5 31.5t-32.5 76.5q0 44 32.5 76.5t78.5 32.5q44 0 77 -32.5t33 -76.5q0 -45 -32.5 -76.5t-77.5 -31.5zM1143 1616q-46 0 -79.5 31.5t-33.5 76.5q0 44 33.5 76.5t79.5 32.5q44 0 77 -32.5t33 -76.5q0 -45 -32.5 -76.5t-77.5 -31.5zM-39 0l807 1434
h256l301 -1434h-199l-84 422h-636l-234 -422h-211zM498 588h512l-136 676z" />
    <glyph glyph-name="Aring" unicode="&#xc5;" horiz-adv-x="1466" 
d="M969 1978q98 0 164.5 -57.5t66.5 -153.5q0 -116 -77.5 -183.5t-190.5 -67.5q-99 0 -165.5 56.5t-66.5 151.5q0 117 77.5 185.5t191.5 68.5zM963 1874q-65 0 -105.5 -39.5t-40.5 -101.5q0 -52 33 -82.5t88 -30.5q66 0 105.5 39t39.5 102q0 51 -33.5 82t-86.5 31zM-39 0
l807 1434h256l301 -1434h-199l-84 422h-636l-234 -422h-211zM498 588h512l-136 676z" />
    <glyph glyph-name="AE" unicode="&#xc6;" horiz-adv-x="1943" 
d="M-49 0l1118 1434h889l-31 -164h-557l-80 -459h479l-30 -162h-477l-86 -485h557l-29 -164h-750l74 422h-516l-326 -422h-235zM641 588h416l123 698z" />
    <glyph glyph-name="Ccedilla" unicode="&#xc7;" horiz-adv-x="1501" 
d="M936 1475q193 0 342 -86.5t231 -225.5l-166 -110q-58 107 -169.5 173t-243.5 66q-173 0 -312.5 -88.5t-216.5 -238t-77 -328.5q0 -137 56 -249.5t163.5 -180.5t247.5 -68q262 0 454 215l137 -125q-194 -235 -510 -266l-229 -291h-182l231 293q-256 29 -412.5 211
t-156.5 449q0 169 60 324t164.5 271t258 185.5t330.5 69.5z" />
    <glyph glyph-name="Egrave" unicode="&#xc8;" horiz-adv-x="1120" 
d="M672 1556l-205 277h201l176 -277h-172zM129 0l254 1434h750l-29 -164h-557l-82 -459h479l-29 -162h-479l-86 -485h559l-28 -164h-752z" />
    <glyph glyph-name="Eacute" unicode="&#xc9;" horiz-adv-x="1120" 
d="M846 1556h-184l272 277h215zM129 0l254 1434h750l-29 -164h-557l-82 -459h479l-29 -162h-479l-86 -485h559l-28 -164h-752z" />
    <glyph glyph-name="Ecircumflex" unicode="&#xca;" horiz-adv-x="1120" 
d="M588 1556h-166l272 277h213l174 -277h-147l-139 189zM129 0l254 1434h750l-29 -164h-557l-82 -459h479l-29 -162h-479l-86 -485h559l-28 -164h-752z" />
    <glyph glyph-name="Edieresis" unicode="&#xcb;" horiz-adv-x="1120" 
d="M586 1616q-46 0 -78.5 31.5t-32.5 76.5q0 44 32.5 76.5t78.5 32.5q44 0 77 -32.5t33 -76.5q0 -45 -32.5 -76.5t-77.5 -31.5zM977 1616q-46 0 -79.5 31.5t-33.5 76.5q0 44 33.5 76.5t79.5 32.5q44 0 77 -32.5t33 -76.5q0 -45 -32.5 -76.5t-77.5 -31.5zM129 0l254 1434h750
l-29 -164h-557l-82 -459h479l-29 -162h-479l-86 -485h559l-28 -164h-752z" />
    <glyph glyph-name="Igrave" unicode="&#xcc;" horiz-adv-x="630" 
d="M420 1556l-205 277h201l176 -277h-172zM129 0l254 1434h192l-253 -1434h-193z" />
    <glyph glyph-name="Iacute" unicode="&#xcd;" horiz-adv-x="630" 
d="M594 1556h-184l272 277h215zM129 0l254 1434h192l-253 -1434h-193z" />
    <glyph glyph-name="Icircumflex" unicode="&#xce;" horiz-adv-x="630" 
d="M336 1556h-166l272 277h213l174 -277h-147l-139 189zM129 0l254 1434h192l-253 -1434h-193z" />
    <glyph glyph-name="Idieresis" unicode="&#xcf;" horiz-adv-x="630" 
d="M334 1616q-46 0 -78.5 31.5t-32.5 76.5q0 44 32.5 76.5t78.5 32.5q44 0 77 -32.5t33 -76.5q0 -45 -32.5 -76.5t-77.5 -31.5zM725 1616q-46 0 -79.5 31.5t-33.5 76.5q0 44 33.5 76.5t79.5 32.5q44 0 77.5 -32.5t33.5 -76.5q0 -45 -33 -76.5t-78 -31.5zM129 0l254 1434h192
l-253 -1434h-193z" />
    <glyph glyph-name="Eth" unicode="&#xd0;" horiz-adv-x="1589" 
d="M129 0l119 668h-221l24 131h219l113 635h430q328 0 524.5 -174.5t196.5 -468.5q0 -124 -37 -240.5t-111 -216t-175 -174.5t-238 -117.5t-293 -42.5h-551zM813 1257h-268l-82 -458h362l-22 -131h-363l-88 -492h328q147 0 271.5 48.5t207 131.5t128.5 193t46 233
q0 216 -139.5 345.5t-380.5 129.5z" />
    <glyph glyph-name="Ntilde" unicode="&#xd1;" horiz-adv-x="1658" 
d="M686 1569l14 80q12 89 65 140.5t128 51.5q49 0 88 -17.5t63.5 -42.5t44.5 -50t41 -42.5t44 -17.5q51 0 67 78l12 72h136l-15 -80q-12 -89 -65.5 -141t-128.5 -52q-49 0 -88.5 17.5t-64.5 42.5t-45.5 50t-41 42.5t-41.5 17.5q-52 0 -65 -78l-13 -71h-135zM129 0l254 1434
h246l569 -1207l213 1207h193l-254 -1434h-248l-567 1202l-213 -1202h-193z" />
    <glyph glyph-name="Ograve" unicode="&#xd2;" horiz-adv-x="1660" 
d="M924 1556l-205 277h201l176 -277h-172zM940 1475q195 0 348 -85.5t237.5 -237t84.5 -343.5q0 -169 -60 -324t-165.5 -271t-260 -185.5t-331.5 -69.5q-194 0 -346.5 85.5t-237 237.5t-84.5 343q0 169 60 324t165 271t259 185.5t331 69.5zM797 139q175 0 316 89.5
t218.5 239.5t77.5 329q0 102 -33.5 192.5t-93.5 158t-149.5 107t-196.5 39.5q-175 0 -315.5 -89t-217.5 -239t-77 -329q0 -210 129.5 -354t341.5 -144z" />
    <glyph glyph-name="Oacute" unicode="&#xd3;" horiz-adv-x="1660" 
d="M1098 1556h-185l273 277h215zM940 1475q195 0 348 -85.5t237.5 -237t84.5 -343.5q0 -169 -60 -324t-165.5 -271t-260 -185.5t-331.5 -69.5q-194 0 -346.5 85.5t-237 237.5t-84.5 343q0 169 60 324t165 271t259 185.5t331 69.5zM797 139q175 0 316 89.5t218.5 239.5
t77.5 329q0 102 -33.5 192.5t-93.5 158t-149.5 107t-196.5 39.5q-175 0 -315.5 -89t-217.5 -239t-77 -329q0 -210 129.5 -354t341.5 -144z" />
    <glyph glyph-name="Ocircumflex" unicode="&#xd4;" horiz-adv-x="1660" 
d="M840 1556h-166l272 277h213l174 -277h-147l-139 189zM940 1475q195 0 348 -85.5t237.5 -237t84.5 -343.5q0 -169 -60 -324t-165.5 -271t-260 -185.5t-331.5 -69.5q-194 0 -346.5 85.5t-237 237.5t-84.5 343q0 169 60 324t165 271t259 185.5t331 69.5zM797 139
q175 0 316 89.5t218.5 239.5t77.5 329q0 102 -33.5 192.5t-93.5 158t-149.5 107t-196.5 39.5q-175 0 -315.5 -89t-217.5 -239t-77 -329q0 -210 129.5 -354t341.5 -144z" />
    <glyph glyph-name="Otilde" unicode="&#xd5;" horiz-adv-x="1660" 
d="M676 1569l14 80q12 89 65 140.5t128 51.5q49 0 88 -17.5t63 -42.5t44 -50t41 -42.5t44 -17.5q52 0 68 78l12 72h135l-14 -80q-12 -89 -66 -141t-129 -52q-49 0 -88.5 17.5t-64 42.5t-45 50t-41 42.5t-41.5 17.5q-53 0 -66 -78l-12 -71h-135zM940 1475q195 0 348 -85.5
t237.5 -237t84.5 -343.5q0 -169 -60 -324t-165.5 -271t-260 -185.5t-331.5 -69.5q-194 0 -346.5 85.5t-237 237.5t-84.5 343q0 169 60 324t165 271t259 185.5t331 69.5zM797 139q175 0 316 89.5t218.5 239.5t77.5 329q0 102 -33.5 192.5t-93.5 158t-149.5 107t-196.5 39.5
q-175 0 -315.5 -89t-217.5 -239t-77 -329q0 -210 129.5 -354t341.5 -144z" />
    <glyph glyph-name="Odieresis" unicode="&#xd6;" horiz-adv-x="1660" 
d="M838 1616q-46 0 -78.5 31.5t-32.5 76.5q0 44 32.5 76.5t78.5 32.5q44 0 77 -32.5t33 -76.5q0 -45 -32.5 -76.5t-77.5 -31.5zM1229 1616q-46 0 -79.5 31.5t-33.5 76.5q0 44 33.5 76.5t79.5 32.5q44 0 77 -32.5t33 -76.5q0 -45 -32.5 -76.5t-77.5 -31.5zM940 1475
q195 0 348 -85.5t237.5 -237t84.5 -343.5q0 -169 -60 -324t-165.5 -271t-260 -185.5t-331.5 -69.5q-194 0 -346.5 85.5t-237 237.5t-84.5 343q0 169 60 324t165 271t259 185.5t331 69.5zM797 139q175 0 316 89.5t218.5 239.5t77.5 329q0 102 -33.5 192.5t-93.5 158
t-149.5 107t-196.5 39.5q-175 0 -315.5 -89t-217.5 -239t-77 -329q0 -210 129.5 -354t341.5 -144z" />
    <glyph glyph-name="multiply" unicode="&#xd7;" 
d="M920 0l-318 408l-461 -408l-100 106l471 418l-322 414l123 94l316 -405l458 405l101 -106l-469 -416l323 -416z" />
    <glyph glyph-name="Oslash" unicode="&#xd8;" horiz-adv-x="1660" 
d="M188 -41h-186l254 252q-131 173 -131 414q0 169 60 324t165 271t259 185.5t331 69.5q263 0 449 -156l155 156h187l-252 -250q131 -176 131 -416q0 -169 -60 -324t-165.5 -271t-260 -185.5t-331.5 -69.5q-264 0 -447 156zM326 637q0 -160 80 -289l837 838
q-127 108 -307 108q-175 0 -315.5 -89t-217.5 -239t-77 -329zM797 139q175 0 316 89.5t218.5 239.5t77.5 329q0 159 -80 288l-840 -837q128 -109 308 -109z" />
    <glyph glyph-name="Ugrave" unicode="&#xd9;" horiz-adv-x="1441" 
d="M825 1556l-204 277h200l176 -277h-172zM1071 528l160 906h192l-159 -910q-102 -565 -600 -565q-126 0 -225.5 39t-165 114.5t-89.5 187.5t2 259l156 875h193l-156 -885q-35 -199 44 -304.5t253 -105.5q162 0 261.5 99t133.5 290z" />
    <glyph glyph-name="Uacute" unicode="&#xda;" horiz-adv-x="1441" 
d="M999 1556h-184l272 277h216zM1071 528l160 906h192l-159 -910q-102 -565 -600 -565q-126 0 -225.5 39t-165 114.5t-89.5 187.5t2 259l156 875h193l-156 -885q-35 -199 44 -304.5t253 -105.5q162 0 261.5 99t133.5 290z" />
    <glyph glyph-name="Ucircumflex" unicode="&#xdb;" horiz-adv-x="1441" 
d="M741 1556h-166l273 277h213l174 -277h-148l-139 189zM1071 528l160 906h192l-159 -910q-102 -565 -600 -565q-126 0 -225.5 39t-165 114.5t-89.5 187.5t2 259l156 875h193l-156 -885q-35 -199 44 -304.5t253 -105.5q162 0 261.5 99t133.5 290z" />
    <glyph glyph-name="Udieresis" unicode="&#xdc;" horiz-adv-x="1441" 
d="M739 1616q-46 0 -78 31t-32 77q0 44 32.5 76.5t77.5 32.5q44 0 77.5 -32.5t33.5 -76.5q0 -45 -33 -76.5t-78 -31.5zM1130 1616q-46 0 -79 31.5t-33 76.5q0 44 33 76.5t79 32.5q44 0 77.5 -32.5t33.5 -76.5q0 -45 -33 -76.5t-78 -31.5zM1071 528l160 906h192l-159 -910
q-102 -565 -600 -565q-126 0 -225.5 39t-165 114.5t-89.5 187.5t2 259l156 875h193l-156 -885q-35 -199 44 -304.5t253 -105.5q162 0 261.5 99t133.5 290z" />
    <glyph glyph-name="Yacute" unicode="&#xdd;" horiz-adv-x="1347" 
d="M936 1556h-184l272 277h215zM1497 1434l-706 -793l-113 -641h-193l115 651l-424 783h217l328 -607l536 607h240z" />
    <glyph glyph-name="Thorn" unicode="&#xde;" horiz-adv-x="1144" 
d="M129 0l254 1434h192l-53 -299h176q199 0 314.5 -96t115.5 -271q0 -191 -136.5 -314.5t-368.5 -123.5h-242l-59 -330h-193zM688 971h-194l-84 -477h208q143 0 225.5 73t82.5 193q0 103 -62 157t-176 54z" />
    <glyph glyph-name="germandbls" unicode="&#xdf;" horiz-adv-x="1159" 
d="M553 -8q-79 0 -141 20l28 160q58 -16 105 -16q158 0 243.5 77.5t85.5 212.5q0 110 -67.5 182t-179.5 72h-80l28 164h80q129 0 212 75.5t83 201.5q0 105 -57.5 168t-167.5 63q-109 0 -176 -63.5t-88 -175.5l-199 -1133h-176l201 1137q33 182 145 290.5t301 108.5
q188 0 295 -106t107 -277q0 -135 -83.5 -238.5t-217.5 -134.5q105 -37 164 -129t59 -202q0 -142 -68.5 -247.5t-181.5 -157.5t-254 -52z" />
    <glyph glyph-name="agrave" unicode="&#xe0;" horiz-adv-x="1116" 
d="M598 1196l-174 340h188l148 -340h-162zM383 -29q-142 0 -228.5 70t-86.5 195q0 127 91.5 211t272.5 116l371 62l10 59q19 109 -36 171.5t-165 62.5q-164 0 -293 -146l-124 105q74 89 185.5 142.5t242.5 53.5q204 0 298 -114.5t60 -307.5l-117 -651h-172l21 113
q-129 -142 -330 -142zM248 254q0 -64 45.5 -101.5t128.5 -37.5q193 0 319 168l39 211l-311 -54q-111 -18 -166 -66t-55 -120z" />
    <glyph glyph-name="aacute" unicode="&#xe1;" horiz-adv-x="1116" 
d="M764 1196h-176l268 340h203zM383 -29q-142 0 -228.5 70t-86.5 195q0 127 91.5 211t272.5 116l371 62l10 59q19 109 -36 171.5t-165 62.5q-164 0 -293 -146l-124 105q74 89 185.5 142.5t242.5 53.5q204 0 298 -114.5t60 -307.5l-117 -651h-172l21 113q-129 -142 -330 -142
zM248 254q0 -64 45.5 -101.5t128.5 -37.5q193 0 319 168l39 211l-311 -54q-111 -18 -166 -66t-55 -120z" />
    <glyph glyph-name="acircumflex" unicode="&#xe2;" horiz-adv-x="1116" 
d="M516 1196h-166l268 340h234l147 -340h-149l-123 254zM383 -29q-142 0 -228.5 70t-86.5 195q0 127 91.5 211t272.5 116l371 62l10 59q19 109 -36 171.5t-165 62.5q-164 0 -293 -146l-124 105q74 89 185.5 142.5t242.5 53.5q204 0 298 -114.5t60 -307.5l-117 -651h-172
l21 113q-129 -142 -330 -142zM248 254q0 -64 45.5 -101.5t128.5 -37.5q193 0 319 168l39 211l-311 -54q-111 -18 -166 -66t-55 -120z" />
    <glyph glyph-name="atilde" unicode="&#xe3;" horiz-adv-x="1116" 
d="M457 1221h-129l12 84q15 104 69 162.5t138 58.5q47 0 88.5 -19.5t70.5 -47t54.5 -55.5t51.5 -47.5t50 -19.5q73 0 86 84l13 90h129l-13 -86q-15 -102 -69.5 -160.5t-137.5 -58.5q-48 0 -90 19.5t-71 47t-54.5 55.5t-52 47.5t-51.5 19.5q-33 0 -53.5 -22.5t-26.5 -61.5z
M383 -29q-142 0 -228.5 70t-86.5 195q0 127 91.5 211t272.5 116l371 62l10 59q19 109 -36 171.5t-165 62.5q-164 0 -293 -146l-124 105q74 89 185.5 142.5t242.5 53.5q204 0 298 -114.5t60 -307.5l-117 -651h-172l21 113q-129 -142 -330 -142zM248 254q0 -64 45.5 -101.5
t128.5 -37.5q193 0 319 168l39 211l-311 -54q-111 -18 -166 -66t-55 -120z" />
    <glyph glyph-name="adieresis" unicode="&#xe4;" horiz-adv-x="1116" 
d="M524 1315q-47 0 -81.5 34t-34.5 81t34.5 80.5t81.5 33.5q48 0 82.5 -33.5t34.5 -80.5t-35 -81t-82 -34zM918 1315q-47 0 -82 34t-35 81t34.5 80.5t82.5 33.5q46 0 81 -33.5t35 -80.5t-35 -81t-81 -34zM383 -29q-142 0 -228.5 70t-86.5 195q0 127 91.5 211t272.5 116
l371 62l10 59q19 109 -36 171.5t-165 62.5q-164 0 -293 -146l-124 105q74 89 185.5 142.5t242.5 53.5q204 0 298 -114.5t60 -307.5l-117 -651h-172l21 113q-129 -142 -330 -142zM248 254q0 -64 45.5 -101.5t128.5 -37.5q193 0 319 168l39 211l-311 -54q-111 -18 -166 -66
t-55 -120z" />
    <glyph glyph-name="aring" unicode="&#xe5;" horiz-adv-x="1116" 
d="M692 1139q-96 0 -163.5 61t-67.5 156q0 117 78 191.5t192 74.5q97 0 164.5 -62t67.5 -157q0 -117 -77.5 -190.5t-193.5 -73.5zM700 1243q66 0 106 44t40 108q0 55 -33.5 89t-89.5 34q-64 0 -103.5 -45t-39.5 -109q0 -54 32.5 -87.5t87.5 -33.5zM383 -29q-142 0 -228.5 70
t-86.5 195q0 127 91.5 211t272.5 116l371 62l10 59q19 109 -36 171.5t-165 62.5q-164 0 -293 -146l-124 105q74 89 185.5 142.5t242.5 53.5q204 0 298 -114.5t60 -307.5l-117 -651h-172l21 113q-129 -142 -330 -142zM248 254q0 -64 45.5 -101.5t128.5 -37.5q193 0 319 168
l39 211l-311 -54q-111 -18 -166 -66t-55 -120z" />
    <glyph glyph-name="ae" unicode="&#xe6;" horiz-adv-x="1847" 
d="M393 -29q-142 0 -232.5 72.5t-90.5 200.5q0 122 91.5 204.5t272.5 114.5l371 64l10 57q20 109 -35.5 171.5t-165.5 62.5q-161 0 -290 -146l-127 105q74 89 185.5 142.5t242.5 53.5q124 0 208 -45.5t123 -128.5q77 82 183.5 128t230.5 46q180 0 294 -109t114 -276
q0 -86 -31 -174h-780q-4 -40 -4 -63q0 -154 82.5 -244t236.5 -90q103 0 191.5 42.5t146.5 116.5l117 -112q-79 -97 -200 -151t-265 -54q-148 0 -256 60.5t-168 168.5q-181 -217 -455 -217zM1362 928q-128 0 -224.5 -76.5t-140.5 -202.5l607 -2q10 72 -12 134.5t-82 104.5
t-148 42zM250 256q0 -64 45.5 -102.5t128.5 -38.5q209 0 373 217q-13 63 -13 121q0 29 2 41l-315 -54q-221 -37 -221 -184z" />
    <glyph glyph-name="ccedilla" unicode="&#xe7;" horiz-adv-x="1110" 
d="M694 1073q144 0 253.5 -60t162.5 -157l-147 -113q-39 75 -112 120.5t-171 45.5q-119 0 -214.5 -64t-147.5 -168.5t-52 -225.5q0 -141 87.5 -234.5t232.5 -93.5q185 0 301 147l119 -118q-136 -165 -355 -189l-229 -291h-182l233 297q-184 32 -287.5 164.5t-103.5 319.5
q0 124 46 237.5t126 198t195 134.5t245 50z" />
    <glyph glyph-name="egrave" unicode="&#xe8;" horiz-adv-x="1153" 
d="M621 1196l-175 340h189l147 -340h-161zM573 -41q-154 0 -266.5 66.5t-167.5 177t-55 250.5q0 169 66.5 308.5t198.5 225.5t306 86q184 0 305 -109.5t121 -275.5q0 -92 -32 -174h-783q-2 -20 -2 -63q0 -154 83.5 -244t236.5 -90q104 0 192.5 43t145.5 116l116 -112
q-79 -97 -200 -151t-265 -54zM651 928q-136 0 -227 -76t-131 -205h612q10 71 -15 134.5t-88 105t-151 41.5z" />
    <glyph glyph-name="eacute" unicode="&#xe9;" horiz-adv-x="1153" 
d="M786 1196h-176l269 340h202zM573 -41q-154 0 -266.5 66.5t-167.5 177t-55 250.5q0 169 66.5 308.5t198.5 225.5t306 86q184 0 305 -109.5t121 -275.5q0 -92 -32 -174h-783q-2 -20 -2 -63q0 -154 83.5 -244t236.5 -90q104 0 192.5 43t145.5 116l116 -112
q-79 -97 -200 -151t-265 -54zM651 928q-136 0 -227 -76t-131 -205h612q10 71 -15 134.5t-88 105t-151 41.5z" />
    <glyph glyph-name="ecircumflex" unicode="&#xea;" horiz-adv-x="1153" 
d="M539 1196h-166l268 340h233l148 -340h-150l-122 254zM573 -41q-154 0 -266.5 66.5t-167.5 177t-55 250.5q0 169 66.5 308.5t198.5 225.5t306 86q184 0 305 -109.5t121 -275.5q0 -92 -32 -174h-783q-2 -20 -2 -63q0 -154 83.5 -244t236.5 -90q104 0 192.5 43t145.5 116
l116 -112q-79 -97 -200 -151t-265 -54zM651 928q-136 0 -227 -76t-131 -205h612q10 71 -15 134.5t-88 105t-151 41.5z" />
    <glyph glyph-name="edieresis" unicode="&#xeb;" horiz-adv-x="1153" 
d="M547 1315q-47 0 -82 34t-35 81t34.5 80.5t82.5 33.5t82.5 -33.5t34.5 -80.5t-35 -81t-82 -34zM940 1315q-47 0 -82 34t-35 81t34.5 80.5t82.5 33.5q46 0 81.5 -33.5t35.5 -80.5t-35.5 -81t-81.5 -34zM573 -41q-154 0 -266.5 66.5t-167.5 177t-55 250.5q0 169 66.5 308.5
t198.5 225.5t306 86q184 0 305 -109.5t121 -275.5q0 -92 -32 -174h-783q-2 -20 -2 -63q0 -154 83.5 -244t236.5 -90q104 0 192.5 43t145.5 116l116 -112q-79 -97 -200 -151t-265 -54zM651 928q-136 0 -227 -76t-131 -205h612q10 71 -15 134.5t-88 105t-151 41.5z" />
    <glyph glyph-name="igrave" unicode="&#xec;" horiz-adv-x="528" 
d="M303 1196l-174 340h188l148 -340h-162zM86 0l182 1032h174l-182 -1032h-174z" />
    <glyph glyph-name="iacute" unicode="&#xed;" horiz-adv-x="528" 
d="M469 1196h-176l268 340h203zM86 0l182 1032h174l-182 -1032h-174z" />
    <glyph glyph-name="icircumflex" unicode="&#xee;" horiz-adv-x="528" 
d="M221 1196h-166l269 340h233l148 -340h-150l-123 254zM86 0l182 1032h174l-182 -1032h-174z" />
    <glyph glyph-name="idieresis" unicode="&#xef;" horiz-adv-x="528" 
d="M229 1315q-47 0 -81.5 34t-34.5 81t34.5 80.5t81.5 33.5q48 0 82.5 -33.5t34.5 -80.5t-35 -81t-82 -34zM623 1315q-47 0 -82 34t-35 81t34.5 80.5t82.5 33.5q46 0 81 -33.5t35 -80.5t-35 -81t-81 -34zM86 0l182 1032h174l-182 -1032h-174z" />
    <glyph glyph-name="eth" unicode="&#xf0;" horiz-adv-x="1255" 
d="M401 1145l25 141l252 78q-114 96 -240 172h240q98 -59 168 -121l391 119l-25 -141l-264 -80q238 -274 238 -668q0 -153 -45.5 -282t-124.5 -217.5t-187 -137.5t-231 -49q-237 0 -376.5 139t-139.5 367q0 119 41 226.5t113.5 188.5t181 129t235.5 48q197 0 320 -133
q-51 183 -191 338zM268 465q0 -155 91 -248.5t241 -93.5q178 0 293 149t115 387v23q-46 89 -137 149t-207 60q-182 0 -289 -122.5t-107 -303.5z" />
    <glyph glyph-name="ntilde" unicode="&#xf1;" horiz-adv-x="1232" 
d="M514 1221h-129l12 84q15 104 69 162.5t138 58.5q47 0 88.5 -19.5t71 -47t55 -55.5t51.5 -47.5t50 -19.5q73 0 86 84l12 90h129l-12 -86q-15 -102 -69.5 -160.5t-137.5 -58.5q-48 0 -90 19.5t-71.5 47t-55 55.5t-52 47.5t-51.5 19.5q-33 0 -53.5 -22.5t-26.5 -61.5zM86 0
l182 1032h174l-18 -108q149 149 338 149q184 0 276.5 -117t55.5 -331l-111 -625h-174l111 618q24 137 -32.5 214t-176.5 77q-97 0 -180.5 -51.5t-143.5 -142.5l-127 -715h-174z" />
    <glyph glyph-name="ograve" unicode="&#xf2;" horiz-adv-x="1267" 
d="M674 1196l-174 340h188l148 -340h-162zM694 1073q227 0 360.5 -140t133.5 -353q0 -122 -44.5 -234.5t-122 -198t-193 -137t-248.5 -51.5q-152 0 -266.5 66t-173 177.5t-58.5 250.5q0 122 44.5 234.5t122.5 198t194 136.5t251 51zM582 123q122 0 220 64.5t150 169
t52 225.5q0 140 -88 233.5t-228 93.5q-122 0 -220 -64t-150 -168.5t-52 -225.5q0 -140 88 -234t228 -94z" />
    <glyph glyph-name="oacute" unicode="&#xf3;" horiz-adv-x="1267" 
d="M840 1196h-176l268 340h203zM694 1073q227 0 360.5 -140t133.5 -353q0 -122 -44.5 -234.5t-122 -198t-193 -137t-248.5 -51.5q-152 0 -266.5 66t-173 177.5t-58.5 250.5q0 122 44.5 234.5t122.5 198t194 136.5t251 51zM582 123q122 0 220 64.5t150 169t52 225.5
q0 140 -88 233.5t-228 93.5q-122 0 -220 -64t-150 -168.5t-52 -225.5q0 -140 88 -234t228 -94z" />
    <glyph glyph-name="ocircumflex" unicode="&#xf4;" horiz-adv-x="1267" 
d="M592 1196h-166l268 340h234l147 -340h-149l-123 254zM694 1073q227 0 360.5 -140t133.5 -353q0 -122 -44.5 -234.5t-122 -198t-193 -137t-248.5 -51.5q-152 0 -266.5 66t-173 177.5t-58.5 250.5q0 122 44.5 234.5t122.5 198t194 136.5t251 51zM582 123q122 0 220 64.5
t150 169t52 225.5q0 140 -88 233.5t-228 93.5q-122 0 -220 -64t-150 -168.5t-52 -225.5q0 -140 88 -234t228 -94z" />
    <glyph glyph-name="otilde" unicode="&#xf5;" horiz-adv-x="1267" 
d="M532 1221h-129l13 84q15 104 69 162.5t138 58.5q47 0 88.5 -19.5t70.5 -47t54.5 -55.5t51.5 -47.5t50 -19.5q73 0 86 84l12 90h129l-12 -86q-15 -102 -69.5 -160.5t-137.5 -58.5q-48 0 -90 19.5t-71 47t-54.5 55.5t-52 47.5t-51.5 19.5q-33 0 -53.5 -22.5t-26.5 -61.5z
M694 1073q227 0 360.5 -140t133.5 -353q0 -122 -44.5 -234.5t-122 -198t-193 -137t-248.5 -51.5q-152 0 -266.5 66t-173 177.5t-58.5 250.5q0 122 44.5 234.5t122.5 198t194 136.5t251 51zM582 123q122 0 220 64.5t150 169t52 225.5q0 140 -88 233.5t-228 93.5
q-122 0 -220 -64t-150 -168.5t-52 -225.5q0 -140 88 -234t228 -94z" />
    <glyph glyph-name="odieresis" unicode="&#xf6;" horiz-adv-x="1267" 
d="M600 1315q-47 0 -82 34t-35 81t34.5 80.5t82.5 33.5t82.5 -33.5t34.5 -80.5t-35 -81t-82 -34zM993 1315q-47 0 -81.5 34t-34.5 81t34.5 80.5t81.5 33.5q46 0 81.5 -33.5t35.5 -80.5t-35.5 -81t-81.5 -34zM694 1073q227 0 360.5 -140t133.5 -353q0 -122 -44.5 -234.5
t-122 -198t-193 -137t-248.5 -51.5q-152 0 -266.5 66t-173 177.5t-58.5 250.5q0 122 44.5 234.5t122.5 198t194 136.5t251 51zM582 123q122 0 220 64.5t150 169t52 225.5q0 140 -88 233.5t-228 93.5q-122 0 -220 -64t-150 -168.5t-52 -225.5q0 -140 88 -234t228 -94z" />
    <glyph glyph-name="divide" unicode="&#xf7;" 
d="M690 844q-44 0 -76 32t-32 76t32 76.5t76 32.5q46 0 78.5 -32.5t32.5 -76.5t-32.5 -76t-78.5 -32zM1102 440h-1002l29 152h999zM539 -31q-44 0 -77.5 32.5t-33.5 76.5t33 76t78 32q44 0 76 -32t32 -76t-32 -76.5t-76 -32.5z" />
    <glyph glyph-name="oslash" unicode="&#xf8;" horiz-adv-x="1269" 
d="M178 -41h-180l178 186q-94 129 -94 308q0 122 44.5 234.5t122.5 198t194 136.5t251 51q186 0 312 -96l90 96h180l-180 -188q92 -131 92 -305q0 -122 -44.5 -234.5t-122 -198t-193 -137t-248.5 -51.5q-185 0 -312 94zM266 451q0 -98 45 -177l566 578q-79 57 -189 57
q-122 0 -220 -64t-150 -168.5t-52 -225.5zM582 123q122 0 220 64.5t150 169t52 225.5q0 98 -43 174l-564 -578q77 -55 185 -55z" />
    <glyph glyph-name="ugrave" unicode="&#xf9;" horiz-adv-x="1200" 
d="M639 1196l-174 340h188l148 -340h-162zM858 442l105 590h176l-107 -592q-40 -234 -163 -357.5t-326 -123.5q-219 0 -328.5 131.5t-69.5 368.5l103 573h174l-105 -590q-27 -152 36.5 -235.5t201.5 -83.5q121 0 198 81.5t105 237.5z" />
    <glyph glyph-name="uacute" unicode="&#xfa;" horiz-adv-x="1200" 
d="M805 1196h-176l268 340h203zM858 442l105 590h176l-107 -592q-40 -234 -163 -357.5t-326 -123.5q-219 0 -328.5 131.5t-69.5 368.5l103 573h174l-105 -590q-27 -152 36.5 -235.5t201.5 -83.5q121 0 198 81.5t105 237.5z" />
    <glyph glyph-name="ucircumflex" unicode="&#xfb;" horiz-adv-x="1200" 
d="M557 1196h-166l268 340h234l147 -340h-149l-123 254zM858 442l105 590h176l-107 -592q-40 -234 -163 -357.5t-326 -123.5q-219 0 -328.5 131.5t-69.5 368.5l103 573h174l-105 -590q-27 -152 36.5 -235.5t201.5 -83.5q121 0 198 81.5t105 237.5z" />
    <glyph glyph-name="udieresis" unicode="&#xfc;" horiz-adv-x="1200" 
d="M565 1315q-47 0 -81.5 34t-34.5 81t34.5 80.5t81.5 33.5q48 0 82.5 -33.5t34.5 -80.5t-35 -81t-82 -34zM958 1315q-47 0 -81.5 34t-34.5 81t34.5 80.5t81.5 33.5q46 0 81.5 -33.5t35.5 -80.5t-35.5 -81t-81.5 -34zM858 442l105 590h176l-107 -592q-40 -234 -163 -357.5
t-326 -123.5q-219 0 -328.5 131.5t-69.5 368.5l103 573h174l-105 -590q-27 -152 36.5 -235.5t201.5 -83.5q121 0 198 81.5t105 237.5z" />
    <glyph glyph-name="yacute" unicode="&#xfd;" horiz-adv-x="1091" 
d="M750 1196h-177l269 340h202zM406 -250q-80 -139 -166.5 -200.5t-204.5 -61.5q-122 0 -187 41l27 154q65 -35 141 -35q69 0 127 38t111 128l111 188l-246 1030h184l186 -813l474 813h192z" />
    <glyph glyph-name="thorn" unicode="&#xfe;" horiz-adv-x="1310" 
d="M-2 -504l358 2040h174l-104 -596q148 133 336 133q216 0 341.5 -137t125.5 -356q0 -124 -42.5 -237t-117.5 -198t-184 -135.5t-234 -50.5q-115 0 -210.5 44t-157.5 126l-111 -633h-174zM721 909q-96 0 -182.5 -44t-149.5 -130l-70 -401q43 -100 126 -155.5t194 -55.5
q177 0 291 131.5t114 325.5q0 144 -87 236.5t-236 92.5z" />
    <glyph glyph-name="ydieresis" unicode="&#xff;" horiz-adv-x="1091" 
d="M510 1315q-47 0 -82 34t-35 81t34.5 80.5t82.5 33.5t82.5 -33.5t34.5 -80.5t-35 -81t-82 -34zM903 1315q-47 0 -82 34t-35 81t34.5 80.5t82.5 33.5q46 0 81.5 -33.5t35.5 -80.5t-35.5 -81t-81.5 -34zM406 -250q-80 -139 -166.5 -200.5t-204.5 -61.5q-122 0 -187 41
l27 154q65 -35 141 -35q69 0 127 38t111 128l111 188l-246 1030h184l186 -813l474 813h192z" />
    <glyph glyph-name="Amacron" unicode="&#x100;" horiz-adv-x="1466" 
d="M625 1657l22 131h621l-23 -131h-620zM-39 0l807 1434h256l301 -1434h-199l-84 422h-636l-234 -422h-211zM498 588h512l-136 676z" />
    <glyph glyph-name="amacron" unicode="&#x101;" horiz-adv-x="1116" 
d="M397 1350l23 133h620l-22 -133h-621zM383 -29q-142 0 -228.5 70t-86.5 195q0 127 91.5 211t272.5 116l371 62l10 59q19 109 -36 171.5t-165 62.5q-164 0 -293 -146l-124 105q74 89 185.5 142.5t242.5 53.5q204 0 298 -114.5t60 -307.5l-117 -651h-172l21 113
q-129 -142 -330 -142zM248 254q0 -64 45.5 -101.5t128.5 -37.5q193 0 319 168l39 211l-311 -54q-111 -18 -166 -66t-55 -120z" />
    <glyph glyph-name="Abreve" unicode="&#x102;" horiz-adv-x="1466" 
d="M944 1661q165 0 205 172h151q-24 -145 -120 -221t-240 -76q-156 0 -242 78t-63 219h137q-15 -172 172 -172zM-39 0l807 1434h256l301 -1434h-199l-84 422h-636l-234 -422h-211zM498 588h512l-136 676z" />
    <glyph glyph-name="abreve" unicode="&#x103;" horiz-adv-x="1116" 
d="M719 1321q88 0 138 53t69 162h149q-25 -167 -119.5 -253.5t-246.5 -86.5q-148 0 -231 90.5t-58 249.5h139q-14 -105 26.5 -160t133.5 -55zM383 -29q-142 0 -228.5 70t-86.5 195q0 127 91.5 211t272.5 116l371 62l10 59q19 109 -36 171.5t-165 62.5q-164 0 -293 -146
l-124 105q74 89 185.5 142.5t242.5 53.5q204 0 298 -114.5t60 -307.5l-117 -651h-172l21 113q-129 -142 -330 -142zM248 254q0 -64 45.5 -101.5t128.5 -37.5q193 0 319 168l39 211l-311 -54q-111 -18 -166 -66t-55 -120z" />
    <glyph glyph-name="Aogonek" unicode="&#x104;" horiz-adv-x="1466" 
d="M-39 0l807 1434h256l301 -1434h-25l-100 -63q-122 -83 -161.5 -127.5t-39.5 -94.5q0 -45 32 -69.5t83 -24.5q52 0 125 33l-22 -131q-60 -27 -132 -27q-112 0 -173.5 57.5t-61.5 141.5q0 77 59.5 147.5t196.5 153.5l18 12l-82 414h-636l-234 -422h-211zM498 588h512
l-136 676z" />
    <glyph glyph-name="aogonek" unicode="&#x105;" horiz-adv-x="1116" 
d="M383 -29q-142 0 -228.5 70t-86.5 195q0 127 91.5 211t272.5 116l371 62l10 59q19 109 -36 171.5t-165 62.5q-164 0 -293 -146l-124 105q74 89 185.5 142.5t242.5 53.5q204 0 298 -114.5t60 -307.5l-117 -651l-100 -63q-122 -83 -161.5 -127.5t-39.5 -94.5q0 -45 32 -69.5
t83 -24.5q52 0 125 33l-23 -131q-60 -27 -131 -27q-112 0 -173.5 57.5t-61.5 141.5q0 77 59.5 147.5t196.5 153.5l24 14l19 103q-129 -142 -330 -142zM248 254q0 -64 45.5 -101.5t128.5 -37.5q193 0 319 168l39 211l-311 -54q-111 -18 -166 -66t-55 -120z" />
    <glyph glyph-name="Cacute" unicode="&#x106;" horiz-adv-x="1501" 
d="M1040 1556h-184l272 277h215zM936 1475q193 0 342 -86.5t231 -225.5l-166 -110q-58 107 -169.5 173t-243.5 66q-173 0 -312.5 -88.5t-216.5 -238t-77 -328.5q0 -137 56 -249.5t163.5 -180.5t247.5 -68q262 0 454 215l137 -125q-108 -131 -262 -200.5t-338 -69.5
q-193 0 -343.5 85.5t-233 237t-82.5 343.5q0 169 60 324t164.5 271t258 185.5t330.5 69.5z" />
    <glyph glyph-name="cacute" unicode="&#x107;" horiz-adv-x="1110" 
d="M782 1196h-176l268 340h203zM694 1073q144 0 253.5 -60t162.5 -157l-147 -113q-39 75 -112 120.5t-171 45.5q-119 0 -214.5 -64t-147.5 -168.5t-52 -225.5q0 -141 87.5 -234.5t232.5 -93.5q185 0 301 147l119 -118q-74 -90 -183 -141.5t-239 -51.5q-231 0 -366.5 140
t-135.5 354q0 124 46 237.5t126 198t195 134.5t245 50z" />
    <glyph glyph-name="Ccircumflex" unicode="&#x108;" horiz-adv-x="1501" 
d="M782 1556h-166l273 277h213l174 -277h-148l-139 189zM936 1475q193 0 342 -86.5t231 -225.5l-166 -110q-58 107 -169.5 173t-243.5 66q-173 0 -312.5 -88.5t-216.5 -238t-77 -328.5q0 -137 56 -249.5t163.5 -180.5t247.5 -68q262 0 454 215l137 -125
q-108 -131 -262 -200.5t-338 -69.5q-193 0 -343.5 85.5t-233 237t-82.5 343.5q0 169 60 324t164.5 271t258 185.5t330.5 69.5z" />
    <glyph glyph-name="ccircumflex" unicode="&#x109;" horiz-adv-x="1110" 
d="M535 1196h-166l268 340h233l148 -340h-150l-123 254zM694 1073q144 0 253.5 -60t162.5 -157l-147 -113q-39 75 -112 120.5t-171 45.5q-119 0 -214.5 -64t-147.5 -168.5t-52 -225.5q0 -141 87.5 -234.5t232.5 -93.5q185 0 301 147l119 -118q-74 -90 -183 -141.5
t-239 -51.5q-231 0 -366.5 140t-135.5 354q0 124 46 237.5t126 198t195 134.5t245 50z" />
    <glyph glyph-name="Cdotaccent" unicode="&#x10a;" horiz-adv-x="1501" 
d="M975 1616q-45 0 -78 31.5t-33 76.5q0 44 33.5 76.5t77.5 32.5q46 0 79 -32.5t33 -76.5q0 -45 -33 -76.5t-79 -31.5zM936 1475q193 0 342 -86.5t231 -225.5l-166 -110q-58 107 -169.5 173t-243.5 66q-173 0 -312.5 -88.5t-216.5 -238t-77 -328.5q0 -137 56 -249.5
t163.5 -180.5t247.5 -68q262 0 454 215l137 -125q-108 -131 -262 -200.5t-338 -69.5q-193 0 -343.5 85.5t-233 237t-82.5 343.5q0 169 60 324t164.5 271t258 185.5t330.5 69.5z" />
    <glyph glyph-name="cdotaccent" unicode="&#x10b;" horiz-adv-x="1110" 
d="M745 1300q-51 0 -87.5 35.5t-36.5 85.5q0 51 36.5 87t87.5 36q50 0 87.5 -36.5t37.5 -86.5q0 -49 -37.5 -85t-87.5 -36zM694 1073q144 0 253.5 -60t162.5 -157l-147 -113q-39 75 -112 120.5t-171 45.5q-119 0 -214.5 -64t-147.5 -168.5t-52 -225.5q0 -141 87.5 -234.5
t232.5 -93.5q185 0 301 147l119 -118q-74 -90 -183 -141.5t-239 -51.5q-231 0 -366.5 140t-135.5 354q0 124 46 237.5t126 198t195 134.5t245 50z" />
    <glyph glyph-name="Ccaron" unicode="&#x10c;" horiz-adv-x="1501" 
d="M813 1833l139 -186l205 186h168l-270 -277h-213l-176 277h147zM936 1475q193 0 342 -86.5t231 -225.5l-166 -110q-58 107 -169.5 173t-243.5 66q-173 0 -312.5 -88.5t-216.5 -238t-77 -328.5q0 -137 56 -249.5t163.5 -180.5t247.5 -68q262 0 454 215l137 -125
q-108 -131 -262 -200.5t-338 -69.5q-193 0 -343.5 85.5t-233 237t-82.5 343.5q0 169 60 324t164.5 271t258 185.5t330.5 69.5z" />
    <glyph glyph-name="ccaron" unicode="&#x10d;" horiz-adv-x="1110" 
d="M590 1536l121 -254l211 254h168l-269 -340h-235l-148 340h152zM694 1073q144 0 253.5 -60t162.5 -157l-147 -113q-39 75 -112 120.5t-171 45.5q-119 0 -214.5 -64t-147.5 -168.5t-52 -225.5q0 -141 87.5 -234.5t232.5 -93.5q185 0 301 147l119 -118q-74 -90 -183 -141.5
t-239 -51.5q-231 0 -366.5 140t-135.5 354q0 124 46 237.5t126 198t195 134.5t245 50z" />
    <glyph glyph-name="Dcaron" unicode="&#x10e;" horiz-adv-x="1589" 
d="M846 1833l139 -186l205 186h168l-271 -277h-213l-176 277h148zM129 0l254 1434h430q328 0 524.5 -174.5t196.5 -468.5q0 -124 -37 -240.5t-111 -216t-175 -174.5t-238 -117.5t-293 -42.5h-551zM813 1257h-268l-193 -1081h328q147 0 271.5 48.5t207 131.5t128.5 193
t46 233q0 216 -139.5 345.5t-380.5 129.5z" />
    <glyph glyph-name="dcaron" unicode="&#x10f;" horiz-adv-x="1308" 
d="M84 442q0 169 72 312.5t206 231t300 87.5q114 0 209.5 -44t158.5 -126l111 633h174l-271 -1536h-174l19 104q-154 -145 -344 -145q-218 0 -339.5 133.5t-121.5 349.5zM1477 1155h-154l242 381h186zM268 453q0 -144 87 -237t235 -93q97 0 184 44t150 130l69 401
q-43 100 -125.5 155.5t-193.5 55.5q-177 0 -291.5 -131t-114.5 -325z" />
    <glyph glyph-name="Dcroat" unicode="&#x110;" horiz-adv-x="1589" 
d="M129 0l119 668h-221l24 131h219l113 635h430q328 0 524.5 -174.5t196.5 -468.5q0 -124 -37 -240.5t-111 -216t-175 -174.5t-238 -117.5t-293 -42.5h-551zM813 1257h-268l-82 -458h362l-22 -131h-363l-88 -492h328q147 0 271.5 48.5t207 131.5t128.5 193t46 233
q0 216 -139.5 345.5t-380.5 129.5z" />
    <glyph glyph-name="dcroat" unicode="&#x111;" horiz-adv-x="1308" 
d="M84 442q0 169 72 312.5t206 231t300 87.5q114 0 209.5 -44t158.5 -126l51 297h-395l23 133h397l35 203h174l-35 -203h174l-24 -133h-175l-211 -1200h-174l19 104q-154 -145 -344 -145q-218 0 -339.5 133.5t-121.5 349.5zM268 453q0 -144 87 -237t235 -93q97 0 184 44
t150 130l69 401q-43 100 -125.5 155.5t-193.5 55.5q-177 0 -291.5 -131t-114.5 -325z" />
    <glyph glyph-name="Emacron" unicode="&#x112;" horiz-adv-x="1120" 
d="M459 1657l22 131h621l-23 -131h-620zM129 0l254 1434h750l-29 -164h-557l-82 -459h479l-29 -162h-479l-86 -485h559l-28 -164h-752z" />
    <glyph glyph-name="emacron" unicode="&#x113;" horiz-adv-x="1153" 
d="M420 1350l22 133h621l-23 -133h-620zM573 -41q-154 0 -266.5 66.5t-167.5 177t-55 250.5q0 169 66.5 308.5t198.5 225.5t306 86q184 0 305 -109.5t121 -275.5q0 -92 -32 -174h-783q-2 -20 -2 -63q0 -154 83.5 -244t236.5 -90q104 0 192.5 43t145.5 116l116 -112
q-79 -97 -200 -151t-265 -54zM651 928q-136 0 -227 -76t-131 -205h612q10 71 -15 134.5t-88 105t-151 41.5z" />
    <glyph glyph-name="Ebreve" unicode="&#x114;" horiz-adv-x="1120" 
d="M778 1661q165 0 205 172h152q-24 -145 -120.5 -221t-240.5 -76q-156 0 -242 78t-63 219h137q-15 -172 172 -172zM129 0l254 1434h750l-29 -164h-557l-82 -459h479l-29 -162h-479l-86 -485h559l-28 -164h-752z" />
    <glyph glyph-name="ebreve" unicode="&#x115;" horiz-adv-x="1153" 
d="M741 1321q88 0 138 53t69 162h150q-24 -167 -119.5 -253.5t-247.5 -86.5q-148 0 -231 90.5t-58 249.5h140q-14 -105 26 -160t133 -55zM573 -41q-154 0 -266.5 66.5t-167.5 177t-55 250.5q0 169 66.5 308.5t198.5 225.5t306 86q184 0 305 -109.5t121 -275.5
q0 -92 -32 -174h-783q-2 -20 -2 -63q0 -154 83.5 -244t236.5 -90q104 0 192.5 43t145.5 116l116 -112q-79 -97 -200 -151t-265 -54zM651 928q-136 0 -227 -76t-131 -205h612q10 71 -15 134.5t-88 105t-151 41.5z" />
    <glyph glyph-name="Edotaccent" unicode="&#x116;" horiz-adv-x="1120" 
d="M780 1616q-45 0 -77.5 31.5t-32.5 76.5q0 44 33 76.5t77 32.5q46 0 79.5 -32.5t33.5 -76.5q0 -45 -33.5 -76.5t-79.5 -31.5zM129 0l254 1434h750l-29 -164h-557l-82 -459h479l-29 -162h-479l-86 -485h559l-28 -164h-752z" />
    <glyph glyph-name="edotaccent" unicode="&#x117;" horiz-adv-x="1153" 
d="M750 1300q-51 0 -88 36t-37 85q0 51 37 87t88 36q50 0 87 -36t37 -87q0 -49 -37 -85t-87 -36zM573 -41q-154 0 -266.5 66.5t-167.5 177t-55 250.5q0 169 66.5 308.5t198.5 225.5t306 86q184 0 305 -109.5t121 -275.5q0 -92 -32 -174h-783q-2 -20 -2 -63q0 -154 83.5 -244
t236.5 -90q104 0 192.5 43t145.5 116l116 -112q-79 -97 -200 -151t-265 -54zM651 928q-136 0 -227 -76t-131 -205h612q10 71 -15 134.5t-88 105t-151 41.5z" />
    <glyph glyph-name="Eogonek" unicode="&#x118;" horiz-adv-x="1120" 
d="M129 0l254 1434h750l-29 -164h-557l-82 -459h479l-29 -162h-479l-86 -485h559l-28 -164h-2l-101 -63q-122 -83 -161 -127t-39 -95q0 -45 31.5 -69.5t82.5 -24.5q52 0 125 33l-22 -131q-60 -27 -131 -27q-112 0 -174 57.5t-62 141.5q0 77 59.5 147.5t196.5 153.5l6 4h-561
z" />
    <glyph glyph-name="eogonek" unicode="&#x119;" horiz-adv-x="1153" 
d="M342 -305q0 68 47 131t152 133q-144 7 -249 75t-156.5 176t-51.5 243q0 169 66.5 308.5t198.5 225.5t306 86q184 0 305 -109.5t121 -275.5q0 -92 -32 -174h-783q-2 -20 -2 -63q0 -154 83.5 -244t236.5 -90q104 0 192.5 43t145.5 116l116 -112q-103 -124 -262 -174
l-84 -53q-122 -83 -161 -127t-39 -95q0 -45 31.5 -69.5t82.5 -24.5q52 0 125 33l-22 -131q-60 -27 -131 -27q-112 0 -174 57.5t-62 141.5zM651 928q-136 0 -227 -76t-131 -205h612q10 71 -15 134.5t-88 105t-151 41.5z" />
    <glyph glyph-name="Ecaron" unicode="&#x11a;" horiz-adv-x="1120" 
d="M618 1833l140 -186l205 186h167l-270 -277h-213l-176 277h147zM129 0l254 1434h750l-29 -164h-557l-82 -459h479l-29 -162h-479l-86 -485h559l-28 -164h-752z" />
    <glyph glyph-name="ecaron" unicode="&#x11b;" horiz-adv-x="1153" 
d="M594 1536l121 -254l211 254h168l-269 -340h-235l-148 340h152zM573 -41q-154 0 -266.5 66.5t-167.5 177t-55 250.5q0 169 66.5 308.5t198.5 225.5t306 86q184 0 305 -109.5t121 -275.5q0 -92 -32 -174h-783q-2 -20 -2 -63q0 -154 83.5 -244t236.5 -90q104 0 192.5 43
t145.5 116l116 -112q-79 -97 -200 -151t-265 -54zM651 928q-136 0 -227 -76t-131 -205h612q10 71 -15 134.5t-88 105t-151 41.5z" />
    <glyph glyph-name="Gcircumflex" unicode="&#x11c;" horiz-adv-x="1605" 
d="M805 1556h-166l272 277h213l174 -277h-147l-139 189zM784 -41q-193 0 -343.5 85.5t-233 237t-82.5 343.5q0 169 60.5 324t167 271t261.5 185.5t334 69.5q199 0 345.5 -85t230.5 -225l-168 -108q-57 106 -167 170.5t-251 64.5q-175 0 -316 -88.5t-218.5 -238t-77.5 -328.5
q0 -137 55.5 -249.5t163.5 -180.5t248 -68q244 0 434 164l61 344h-401l28 166h594l-104 -592q-114 -120 -274.5 -191t-346.5 -71z" />
    <glyph glyph-name="gcircumflex" unicode="&#x11d;" horiz-adv-x="1105" 
d="M449 1196h-166l268 340h233l148 -340h-150l-123 254zM-63 -211q0 181 206 293q-53 53 -53 125q0 131 168 223q-106 92 -106 246q0 78 29 149t82.5 127t136.5 89.5t182 33.5q110 0 194 -43h393l-28 -151h-221q26 -59 26 -136q0 -78 -29 -150t-81.5 -128t-134.5 -89.5
t-181 -33.5q-90 0 -158 27q-104 -60 -104 -125q0 -62 74 -62h254q187 0 278.5 -81.5t91.5 -217.5q0 -171 -148 -284t-409 -113q-229 0 -345.5 80t-116.5 221zM782 741q0 83 -54.5 140t-145.5 57q-123 0 -194 -76.5t-71 -183.5q0 -85 54 -141t149 -56q119 0 190.5 76.5
t71.5 183.5zM111 -188q0 -179 295 -179q184 0 278 66t94 172q0 160 -205 160h-297q-80 -39 -122.5 -99.5t-42.5 -119.5z" />
    <glyph glyph-name="Gbreve" unicode="&#x11e;" horiz-adv-x="1605" 
d="M995 1661q165 0 205 172h152q-24 -145 -120.5 -221t-240.5 -76q-156 0 -242 78t-63 219h137q-15 -172 172 -172zM784 -41q-193 0 -343.5 85.5t-233 237t-82.5 343.5q0 169 60.5 324t167 271t261.5 185.5t334 69.5q199 0 345.5 -85t230.5 -225l-168 -108
q-57 106 -167 170.5t-251 64.5q-175 0 -316 -88.5t-218.5 -238t-77.5 -328.5q0 -137 55.5 -249.5t163.5 -180.5t248 -68q244 0 434 164l61 344h-401l28 166h594l-104 -592q-114 -120 -274.5 -191t-346.5 -71z" />
    <glyph glyph-name="gbreve" unicode="&#x11f;" horiz-adv-x="1105" 
d="M651 1321q88 0 138 53t69 162h150q-24 -167 -119.5 -253.5t-247.5 -86.5q-148 0 -231 90.5t-58 249.5h140q-14 -105 26 -160t133 -55zM-63 -211q0 181 206 293q-53 53 -53 125q0 131 168 223q-106 92 -106 246q0 78 29 149t82.5 127t136.5 89.5t182 33.5q110 0 194 -43
h393l-28 -151h-221q26 -59 26 -136q0 -78 -29 -150t-81.5 -128t-134.5 -89.5t-181 -33.5q-90 0 -158 27q-104 -60 -104 -125q0 -62 74 -62h254q187 0 278.5 -81.5t91.5 -217.5q0 -171 -148 -284t-409 -113q-229 0 -345.5 80t-116.5 221zM782 741q0 83 -54.5 140t-145.5 57
q-123 0 -194 -76.5t-71 -183.5q0 -85 54 -141t149 -56q119 0 190.5 76.5t71.5 183.5zM111 -188q0 -179 295 -179q184 0 278 66t94 172q0 160 -205 160h-297q-80 -39 -122.5 -99.5t-42.5 -119.5z" />
    <glyph glyph-name="Gdotaccent" unicode="&#x120;" horiz-adv-x="1605" 
d="M997 1616q-45 0 -77.5 31.5t-32.5 76.5q0 44 33 76.5t77 32.5q46 0 79.5 -32.5t33.5 -76.5q0 -45 -33.5 -76.5t-79.5 -31.5zM784 -41q-193 0 -343.5 85.5t-233 237t-82.5 343.5q0 169 60.5 324t167 271t261.5 185.5t334 69.5q199 0 345.5 -85t230.5 -225l-168 -108
q-57 106 -167 170.5t-251 64.5q-175 0 -316 -88.5t-218.5 -238t-77.5 -328.5q0 -137 55.5 -249.5t163.5 -180.5t248 -68q244 0 434 164l61 344h-401l28 166h594l-104 -592q-114 -120 -274.5 -191t-346.5 -71z" />
    <glyph glyph-name="gdotaccent" unicode="&#x121;" horiz-adv-x="1105" 
d="M659 1300q-51 0 -87.5 35.5t-36.5 85.5q0 51 36.5 87t87.5 36q50 0 87.5 -36.5t37.5 -86.5q0 -49 -37.5 -85t-87.5 -36zM-63 -211q0 181 206 293q-53 53 -53 125q0 131 168 223q-106 92 -106 246q0 78 29 149t82.5 127t136.5 89.5t182 33.5q110 0 194 -43h393l-28 -151
h-221q26 -59 26 -136q0 -78 -29 -150t-81.5 -128t-134.5 -89.5t-181 -33.5q-90 0 -158 27q-104 -60 -104 -125q0 -62 74 -62h254q187 0 278.5 -81.5t91.5 -217.5q0 -171 -148 -284t-409 -113q-229 0 -345.5 80t-116.5 221zM782 741q0 83 -54.5 140t-145.5 57
q-123 0 -194 -76.5t-71 -183.5q0 -85 54 -141t149 -56q119 0 190.5 76.5t71.5 183.5zM111 -188q0 -179 295 -179q184 0 278 66t94 172q0 160 -205 160h-297q-80 -39 -122.5 -99.5t-42.5 -119.5z" />
    <glyph glyph-name="Gcedilla" unicode="&#x122;" horiz-adv-x="1605" 
d="M784 -41q-193 0 -343.5 85.5t-233 237t-82.5 343.5q0 169 60.5 324t167 271t261.5 185.5t334 69.5q199 0 345.5 -85t230.5 -225l-168 -108q-57 106 -167 170.5t-251 64.5q-175 0 -316 -88.5t-218.5 -238t-77.5 -328.5q0 -137 55.5 -249.5t163.5 -180.5t248 -68
q244 0 434 164l61 344h-401l28 166h594l-104 -592q-114 -120 -274.5 -191t-346.5 -71zM563 -504h-176l266 340h203z" />
    <glyph glyph-name="gcedilla" unicode="&#x123;" horiz-adv-x="1105" 
d="M799 1536h176l-266 -340h-203zM-63 -211q0 181 206 293q-53 53 -53 125q0 131 168 223q-106 92 -106 246q0 78 29 149t82.5 127t136.5 89.5t182 33.5q110 0 194 -43h393l-28 -151h-221q26 -59 26 -136q0 -78 -29 -150t-81.5 -128t-134.5 -89.5t-181 -33.5q-90 0 -158 27
q-104 -60 -104 -125q0 -62 74 -62h254q187 0 278.5 -81.5t91.5 -217.5q0 -171 -148 -284t-409 -113q-229 0 -345.5 80t-116.5 221zM782 741q0 83 -54.5 140t-145.5 57q-123 0 -194 -76.5t-71 -183.5q0 -85 54 -141t149 -56q119 0 190.5 76.5t71.5 183.5zM111 -188
q0 -179 295 -179q184 0 278 66t94 172q0 160 -205 160h-297q-80 -39 -122.5 -99.5t-42.5 -119.5z" />
    <glyph glyph-name="Hcircumflex" unicode="&#x124;" horiz-adv-x="1658" 
d="M850 1556h-166l272 277h213l174 -277h-147l-139 189zM129 0l254 1434h192l-108 -617h836l108 617h193l-254 -1434h-193l115 643h-836l-114 -643h-193z" />
    <glyph glyph-name="hcircumflex" unicode="&#x125;" horiz-adv-x="1232" 
d="M655 1659h-166l273 276h213l174 -276h-148l-139 188zM86 0l270 1536h174l-108 -612q156 149 340 149t276.5 -117t55.5 -331l-111 -625h-174l109 618q25 137 -31 214t-176 77q-97 0 -180.5 -51.5t-143.5 -142.5v2l-127 -717h-174z" />
    <glyph glyph-name="Hbar" unicode="&#x126;" horiz-adv-x="1658" 
d="M129 0l188 1065h-219l23 133h221l41 236h192l-40 -236h835l41 236h193l-41 -236h219l-25 -133h-219l-188 -1065h-193l115 643h-836l-114 -643h-193zM467 817h836l43 248h-836z" />
    <glyph glyph-name="hbar" unicode="&#x127;" horiz-adv-x="1232" 
d="M86 0l211 1200h-176l24 133h177l34 203h174l-34 -203h383l-23 -133h-385l-49 -276q156 149 340 149t276.5 -117t55.5 -331l-111 -625h-174l109 618q25 137 -31 214t-176 77q-97 0 -180.5 -51.5t-143.5 -142.5v2l-127 -717h-174z" />
    <glyph glyph-name="Itilde" unicode="&#x128;" horiz-adv-x="630" 
d="M172 1569l14 80q12 89 65 140.5t128 51.5q49 0 88 -17.5t63 -42.5t44 -50t41 -42.5t44 -17.5q52 0 68 78l12 72h135l-14 -80q-12 -89 -65.5 -141t-128.5 -52q-49 0 -88.5 17.5t-64.5 42.5t-45.5 50t-41 42.5t-41.5 17.5q-53 0 -66 -78l-12 -71h-135zM129 0l254 1434h192
l-253 -1434h-193z" />
    <glyph glyph-name="itilde" unicode="&#x129;" horiz-adv-x="528" 
d="M162 1221h-129l12 84q15 104 69 162.5t138 58.5q47 0 88.5 -19.5t70.5 -47t54.5 -55.5t51.5 -47.5t50 -19.5q73 0 86 84l13 90h129l-13 -86q-15 -102 -69.5 -160.5t-137.5 -58.5q-48 0 -90 19.5t-71 47t-54.5 55.5t-52 47.5t-51.5 19.5q-33 0 -53.5 -22.5t-26.5 -61.5z
M86 0l182 1032h174l-182 -1032h-174z" />
    <glyph glyph-name="Imacron" unicode="&#x12a;" horiz-adv-x="630" 
d="M207 1657l22 131h621l-23 -131h-620zM129 0l254 1434h192l-253 -1434h-193z" />
    <glyph glyph-name="imacron" unicode="&#x12b;" horiz-adv-x="528" 
d="M102 1350l23 133h620l-22 -133h-621zM86 0l182 1032h174l-182 -1032h-174z" />
    <glyph glyph-name="Ibreve" unicode="&#x12c;" horiz-adv-x="630" 
d="M526 1661q165 0 205 172h152q-24 -145 -120.5 -221t-240.5 -76q-156 0 -242 78t-63 219h137q-15 -172 172 -172zM129 0l254 1434h192l-253 -1434h-193z" />
    <glyph glyph-name="ibreve" unicode="&#x12d;" horiz-adv-x="528" 
d="M424 1321q88 0 138 53t69 162h149q-25 -167 -119.5 -253.5t-246.5 -86.5q-148 0 -231 90.5t-58 249.5h139q-14 -105 26.5 -160t133.5 -55zM86 0l182 1032h174l-182 -1032h-174z" />
    <glyph glyph-name="Iogonek" unicode="&#x12e;" horiz-adv-x="630" 
d="M129 0l254 1434h192l-253 -1434l-101 -63q-122 -83 -161.5 -127.5t-39.5 -94.5q0 -45 32 -69.5t83 -24.5q52 0 125 33l-22 -131q-60 -27 -132 -27q-112 0 -173.5 57.5t-61.5 141.5q0 77 59.5 147.5t196.5 153.5l6 4h-4z" />
    <glyph glyph-name="iogonek" unicode="&#x12f;" horiz-adv-x="528" 
d="M424 1300q-51 0 -87 36t-36 87q0 50 36 85.5t87 35.5t86 -35.5t35 -85.5q0 -51 -35 -87t-86 -36zM-190 -305q0 77 59.5 147.5t196.5 153.5l24 14l178 1022h174l-182 -1032l-100 -63q-122 -83 -161.5 -127.5t-39.5 -94.5q0 -45 32 -69.5t83 -24.5q52 0 125 33l-23 -131
q-60 -27 -131 -27q-112 0 -173.5 57.5t-61.5 141.5z" />
    <glyph glyph-name="Idotaccent" unicode="&#x130;" horiz-adv-x="630" 
d="M528 1616q-45 0 -77.5 31.5t-32.5 76.5q0 44 33 76.5t77 32.5q46 0 79.5 -32.5t33.5 -76.5q0 -45 -33.5 -76.5t-79.5 -31.5zM129 0l254 1434h192l-253 -1434h-193z" />
    <glyph glyph-name="dotlessi" unicode="&#x131;" horiz-adv-x="528" 
d="M86 0l182 1032h174l-182 -1032h-174z" />
    <glyph glyph-name="IJ" unicode="&#x132;" horiz-adv-x="1286" 
d="M129 0l254 1434h192l-253 -1434h-193zM985 37q-35 -197 -134 -284t-259 -87q-106 0 -164 25l31 164q51 -19 112 -19q96 0 149.5 48.5t76.5 187.5l241 1362h193z" />
    <glyph glyph-name="ij" unicode="&#x133;" horiz-adv-x="1056" 
d="M424 1300q-51 0 -87 36t-36 87q0 50 36 85.5t87 35.5t86 -35.5t35 -85.5q0 -51 -35 -87t-86 -36zM952 1300q-51 0 -87 36t-36 87q0 50 36 85.5t87 35.5q50 0 85.5 -36t35.5 -85q0 -51 -35.5 -87t-85.5 -36zM88 0l180 1032h174l-182 -1032h-172zM762 -150
q-18 -104 -52 -175.5t-83.5 -112t-108 -57.5t-135.5 -17q-125 0 -199 41l27 154q76 -35 147 -35q48 0 82 8t65.5 29.5t52.5 64.5t32 109l207 1173h174z" />
    <glyph glyph-name="Jcircumflex" unicode="&#x134;" horiz-adv-x="655" 
d="M360 1556h-165l272 277h213l174 -277h-147l-140 189zM354 37q-35 -197 -134 -284t-259 -87q-106 0 -164 25l31 164q51 -19 113 -19q96 0 149 48.5t76 187.5l242 1362h192z" />
    <glyph glyph-name="jcircumflex" unicode="&#x135;" horiz-adv-x="528" 
d="M221 1196h-166l269 340h233l148 -340h-150l-123 254zM233 -150q-35 -202 -128 -282t-250 -80q-125 0 -199 41l27 154q76 -35 147 -35q48 0 82 8t65 29.5t52 64.5t32 109l207 1173h174z" />
    <glyph glyph-name="Kcedilla" unicode="&#x136;" horiz-adv-x="1435" 
d="M129 0l254 1434h192l-126 -713l827 713h254l-694 -598l456 -836h-225l-377 711l-287 -248l-81 -463h-193zM469 -504h-176l266 340h203z" />
    <glyph glyph-name="kcedilla" unicode="&#x137;" horiz-adv-x="1085" 
d="M90 0l268 1536h177l-173 -983l539 479h232l-492 -434l320 -598h-197l-254 481l-191 -168l-55 -313h-174zM307 -504h-176l266 340h203z" />
    <glyph glyph-name="kra" unicode="&#x138;" horiz-adv-x="1085" 
d="M88 0l182 1032h176l-84 -481l541 481h232l-492 -436l315 -596h-194l-254 479l-191 -168l-55 -311h-176z" />
    <glyph glyph-name="Lacute" unicode="&#x139;" horiz-adv-x="1040" 
d="M596 1556h-184l272 277h215zM129 0l254 1434h192l-223 -1258h559l-30 -176h-752z" />
    <glyph glyph-name="lacute" unicode="&#x13a;" horiz-adv-x="528" 
d="M561 1659h-184l272 276h215zM88 0l270 1536h174l-272 -1536h-172z" />
    <glyph glyph-name="Lcedilla" unicode="&#x13b;" horiz-adv-x="1040" 
d="M129 0l254 1434h192l-223 -1258h559l-30 -176h-752zM315 -504h-176l267 340h202z" />
    <glyph glyph-name="lcedilla" unicode="&#x13c;" horiz-adv-x="528" 
d="M88 0l270 1536h174l-272 -1536h-172zM-39 -504h-176l266 340h203z" />
    <glyph glyph-name="Lcaron" unicode="&#x13d;" horiz-adv-x="1040" 
d="M129 0l254 1434h192l-223 -1258h559l-30 -176h-752zM737 1053h-153l241 381h187z" />
    <glyph glyph-name="lcaron" unicode="&#x13e;" horiz-adv-x="528" 
d="M88 0l270 1536h174l-272 -1536h-172zM692 1155h-153l241 381h187z" />
    <glyph glyph-name="Ldot" unicode="&#x13f;" horiz-adv-x="1040" 
d="M129 0l254 1434h192l-223 -1258h559l-30 -176h-752zM887 633q-56 0 -94.5 37.5t-38.5 91.5t39 92.5t94 38.5t93 -38.5t38 -92.5t-38 -91.5t-93 -37.5z" />
    <glyph glyph-name="ldot" unicode="&#x140;" horiz-adv-x="710" 
d="M88 0l270 1536h174l-272 -1536h-172zM631 393q-56 0 -94.5 37.5t-38.5 91.5t39 92.5t94 38.5t93 -38.5t38 -92.5t-38 -91.5t-93 -37.5z" />
    <glyph glyph-name="Lslash" unicode="&#x141;" horiz-adv-x="1040" 
d="M129 0l96 545l-239 -119l26 156l242 118l129 734h192l-110 -629l354 176l-26 -156l-357 -176l-84 -473h559l-30 -176h-752z" />
    <glyph glyph-name="lslash" unicode="&#x142;" horiz-adv-x="528" 
d="M88 0l123 696l-195 -96l25 145l195 99l122 692h174l-106 -598l195 96l-27 -147l-195 -96l-139 -791h-172z" />
    <glyph glyph-name="Nacute" unicode="&#x143;" horiz-adv-x="1658" 
d="M1108 1556h-184l272 277h215zM129 0l254 1434h246l569 -1207l213 1207h193l-254 -1434h-248l-567 1202l-213 -1202h-193z" />
    <glyph glyph-name="nacute" unicode="&#x144;" horiz-adv-x="1232" 
d="M821 1196h-176l268 340h203zM86 0l182 1032h174l-18 -108q149 149 338 149q184 0 276.5 -117t55.5 -331l-111 -625h-174l111 618q24 137 -32.5 214t-176.5 77q-97 0 -180.5 -51.5t-143.5 -142.5l-127 -715h-174z" />
    <glyph glyph-name="Ncedilla" unicode="&#x145;" horiz-adv-x="1658" 
d="M129 0l254 1434h246l569 -1207l213 1207h193l-254 -1434h-248l-567 1202l-213 -1202h-193zM535 -504h-177l267 340h202z" />
    <glyph glyph-name="ncedilla" unicode="&#x146;" horiz-adv-x="1232" 
d="M86 0l182 1032h174l-18 -108q149 149 338 149q184 0 276.5 -117t55.5 -331l-111 -625h-174l111 618q24 137 -32.5 214t-176.5 77q-97 0 -180.5 -51.5t-143.5 -142.5l-127 -715h-174zM334 -504h-176l266 340h203z" />
    <glyph glyph-name="Ncaron" unicode="&#x147;" horiz-adv-x="1658" 
d="M881 1833l139 -186l205 186h168l-271 -277h-213l-176 277h148zM129 0l254 1434h246l569 -1207l213 1207h193l-254 -1434h-248l-567 1202l-213 -1202h-193z" />
    <glyph glyph-name="ncaron" unicode="&#x148;" horiz-adv-x="1232" 
d="M629 1536l121 -254l211 254h167l-268 -340h-235l-148 340h152zM86 0l182 1032h174l-18 -108q149 149 338 149q184 0 276.5 -117t55.5 -331l-111 -625h-174l111 618q24 137 -32.5 214t-176.5 77q-97 0 -180.5 -51.5t-143.5 -142.5l-127 -715h-174z" />
    <glyph glyph-name="napostrophe" unicode="&#x149;" horiz-adv-x="1785" 
d="M324 885h-168l264 549h207zM639 0l182 1032h174l-18 -108q149 149 338 149q184 0 276.5 -117t55.5 -331l-111 -625h-174l111 618q24 137 -32.5 214t-176.5 77q-97 0 -180.5 -51.5t-143.5 -142.5l-127 -715h-174z" />
    <glyph glyph-name="Eng" unicode="&#x14a;" horiz-adv-x="1658" 
d="M129 0l254 1434h244l587 -1115l197 1115h193l-250 -1422q-36 -196 -134.5 -283t-258.5 -87q-104 0 -164 26l30 164q48 -20 115 -20q91 0 143.5 45t77.5 172l-624 1192l-217 -1221h-193z" />
    <glyph glyph-name="eng" unicode="&#x14b;" horiz-adv-x="1232" 
d="M86 0l182 1032h174l-18 -108q149 149 338 149q184 0 276.5 -117t55.5 -331l-136 -775q-19 -104 -53 -175.5t-83.5 -112t-108 -57.5t-135.5 -17q-125 0 -199 41l27 154q76 -35 147 -35q48 0 82 8t65 29.5t52 64.5t32 109l134 759q25 137 -31 214t-176 77
q-97 0 -180.5 -51.5t-143.5 -142.5l-127 -715h-174z" />
    <glyph glyph-name="Omacron" unicode="&#x14c;" horiz-adv-x="1660" 
d="M711 1657l22 131h621l-23 -131h-620zM940 1475q195 0 348 -85.5t237.5 -237t84.5 -343.5q0 -169 -60 -324t-165.5 -271t-260 -185.5t-331.5 -69.5q-194 0 -346.5 85.5t-237 237.5t-84.5 343q0 169 60 324t165 271t259 185.5t331 69.5zM797 139q175 0 316 89.5
t218.5 239.5t77.5 329q0 102 -33.5 192.5t-93.5 158t-149.5 107t-196.5 39.5q-175 0 -315.5 -89t-217.5 -239t-77 -329q0 -210 129.5 -354t341.5 -144z" />
    <glyph glyph-name="omacron" unicode="&#x14d;" horiz-adv-x="1267" 
d="M473 1350l23 133h620l-22 -133h-621zM694 1073q227 0 360.5 -140t133.5 -353q0 -122 -44.5 -234.5t-122 -198t-193 -137t-248.5 -51.5q-152 0 -266.5 66t-173 177.5t-58.5 250.5q0 122 44.5 234.5t122.5 198t194 136.5t251 51zM582 123q122 0 220 64.5t150 169t52 225.5
q0 140 -88 233.5t-228 93.5q-122 0 -220 -64t-150 -168.5t-52 -225.5q0 -140 88 -234t228 -94z" />
    <glyph glyph-name="Obreve" unicode="&#x14e;" horiz-adv-x="1660" 
d="M1030 1661q165 0 205 172h151q-24 -145 -120 -221t-240 -76q-156 0 -242 78t-63 219h137q-15 -172 172 -172zM940 1475q195 0 348 -85.5t237.5 -237t84.5 -343.5q0 -169 -60 -324t-165.5 -271t-260 -185.5t-331.5 -69.5q-194 0 -346.5 85.5t-237 237.5t-84.5 343
q0 169 60 324t165 271t259 185.5t331 69.5zM797 139q175 0 316 89.5t218.5 239.5t77.5 329q0 102 -33.5 192.5t-93.5 158t-149.5 107t-196.5 39.5q-175 0 -315.5 -89t-217.5 -239t-77 -329q0 -210 129.5 -354t341.5 -144z" />
    <glyph glyph-name="obreve" unicode="&#x14f;" horiz-adv-x="1267" 
d="M795 1321q88 0 137.5 53t68.5 162h150q-24 -167 -119.5 -253.5t-247.5 -86.5q-148 0 -230.5 90.5t-57.5 249.5h139q-14 -105 26.5 -160t133.5 -55zM694 1073q227 0 360.5 -140t133.5 -353q0 -122 -44.5 -234.5t-122 -198t-193 -137t-248.5 -51.5q-152 0 -266.5 66
t-173 177.5t-58.5 250.5q0 122 44.5 234.5t122.5 198t194 136.5t251 51zM582 123q122 0 220 64.5t150 169t52 225.5q0 140 -88 233.5t-228 93.5q-122 0 -220 -64t-150 -168.5t-52 -225.5q0 -140 88 -234t228 -94z" />
    <glyph glyph-name="Ohungarumlaut" unicode="&#x150;" horiz-adv-x="1660" 
d="M893 1556h-184l274 277h213zM1294 1556h-184l274 277h213zM940 1475q195 0 348 -85.5t237.5 -237t84.5 -343.5q0 -169 -60 -324t-165.5 -271t-260 -185.5t-331.5 -69.5q-194 0 -346.5 85.5t-237 237.5t-84.5 343q0 169 60 324t165 271t259 185.5t331 69.5zM797 139
q175 0 316 89.5t218.5 239.5t77.5 329q0 102 -33.5 192.5t-93.5 158t-149.5 107t-196.5 39.5q-175 0 -315.5 -89t-217.5 -239t-77 -329q0 -210 129.5 -354t341.5 -144z" />
    <glyph glyph-name="ohungarumlaut" unicode="&#x151;" horiz-adv-x="1267" 
d="M647 1196h-176l268 340h201zM1012 1196h-174l266 340h201zM694 1073q227 0 360.5 -140t133.5 -353q0 -122 -44.5 -234.5t-122 -198t-193 -137t-248.5 -51.5q-152 0 -266.5 66t-173 177.5t-58.5 250.5q0 122 44.5 234.5t122.5 198t194 136.5t251 51zM582 123
q122 0 220 64.5t150 169t52 225.5q0 140 -88 233.5t-228 93.5q-122 0 -220 -64t-150 -168.5t-52 -225.5q0 -140 88 -234t228 -94z" />
    <glyph glyph-name="OE" unicode="&#x152;" horiz-adv-x="2076" 
d="M127 643q0 164 60.5 308.5t169.5 251.5t270.5 169t353.5 62h1108l-29 -164h-559l-80 -459h480l-29 -162h-479l-86 -485h559l-29 -164h-989q-328 0 -524.5 174.5t-196.5 468.5zM848 164h266l195 1106h-328q-147 0 -271.5 -50t-207 -134.5t-128.5 -197t-46 -237.5
q0 -222 139.5 -354.5t380.5 -132.5z" />
    <glyph glyph-name="oe" unicode="&#x153;" horiz-adv-x="2050" 
d="M688 1073q147 0 256 -65t168 -177q76 112 195 177t264 65q184 0 296.5 -108.5t112.5 -276.5q0 -89 -30 -174h-783q-4 -40 -4 -63q0 -154 84 -244t238 -90q103 0 191.5 42.5t146.5 116.5l116 -112q-80 -96 -198 -150.5t-260 -54.5q-154 0 -263.5 66t-166.5 182
q-82 -114 -206.5 -181t-273.5 -67q-150 0 -263 66.5t-170.5 177.5t-57.5 250q0 121 45.5 234t124.5 198.5t193.5 136.5t244.5 51zM1565 928q-130 0 -226.5 -76.5t-140.5 -202.5l608 -2q10 72 -12 134.5t-81.5 104.5t-147.5 42zM580 123q120 0 217.5 64.5t149.5 169t52 225.5
q0 141 -85.5 234t-227.5 93q-120 0 -218 -64t-151 -168.5t-53 -225.5q0 -141 86.5 -234.5t229.5 -93.5z" />
    <glyph glyph-name="Racute" unicode="&#x154;" horiz-adv-x="1275" 
d="M918 1556h-185l273 277h215zM129 0l254 1434h334q202 0 316 -96t114 -273q0 -145 -84.5 -254.5t-231.5 -155.5l343 -655h-216l-307 629h-219l-110 -629h-193zM707 1270h-160l-84 -477h176q141 0 223 72.5t82 193.5q0 104 -61 157.5t-176 53.5z" />
    <glyph glyph-name="racute" unicode="&#x155;" horiz-adv-x="790" 
d="M635 1196h-176l268 340h203zM86 0l182 1032h174l-24 -137q68 78 140.5 118t168.5 40q50 0 94 -13l-30 -170q-63 13 -93 13q-94 0 -170 -50.5t-145 -140.5l-123 -692h-174z" />
    <glyph glyph-name="Rcedilla" unicode="&#x156;" horiz-adv-x="1275" 
d="M129 0l254 1434h334q202 0 316 -96t114 -273q0 -145 -84.5 -254.5t-231.5 -155.5l343 -655h-216l-307 629h-219l-110 -629h-193zM707 1270h-160l-84 -477h176q141 0 223 72.5t82 193.5q0 104 -61 157.5t-176 53.5zM406 -504h-177l267 340h202z" />
    <glyph glyph-name="rcedilla" unicode="&#x157;" horiz-adv-x="790" 
d="M86 0l182 1032h174l-24 -137q68 78 140.5 118t168.5 40q50 0 94 -13l-30 -170q-63 13 -93 13q-94 0 -170 -50.5t-145 -140.5l-123 -692h-174zM-41 -504h-176l266 340h203z" />
    <glyph glyph-name="Rcaron" unicode="&#x158;" horiz-adv-x="1275" 
d="M690 1833l139 -186l205 186h168l-270 -277h-213l-176 277h147zM129 0l254 1434h334q202 0 316 -96t114 -273q0 -145 -84.5 -254.5t-231.5 -155.5l343 -655h-216l-307 629h-219l-110 -629h-193zM707 1270h-160l-84 -477h176q141 0 223 72.5t82 193.5q0 104 -61 157.5
t-176 53.5z" />
    <glyph glyph-name="rcaron" unicode="&#x159;" horiz-adv-x="790" 
d="M442 1536l121 -254l211 254h168l-268 -340h-236l-147 340h151zM86 0l182 1032h174l-24 -137q68 78 140.5 118t168.5 40q50 0 94 -13l-30 -170q-63 13 -93 13q-94 0 -170 -50.5t-145 -140.5l-123 -692h-174z" />
    <glyph glyph-name="Sacute" unicode="&#x15a;" horiz-adv-x="1167" 
d="M862 1556h-184l272 277h215zM483 1087q0 -60 29 -110t75 -87t101.5 -73.5t111.5 -77t102 -87t75 -115.5t29 -152q0 -183 -129.5 -304.5t-335.5 -121.5q-308 0 -467 246l149 114q130 -188 322 -188q117 0 189.5 69.5t72.5 170.5q0 60 -29 111t-75 89t-102 74.5t-112 77
t-102 87t-75 115t-29 150.5q0 164 127 282t317 118q284 0 424 -240l-152 -113q-98 181 -280 181q-100 0 -168 -63.5t-68 -152.5z" />
    <glyph glyph-name="sacute" unicode="&#x15b;" horiz-adv-x="876" 
d="M643 1196h-176l268 340h203zM338 774q0 -42 22.5 -76t58.5 -58.5t79 -48t86.5 -51t79.5 -60.5t58.5 -83.5t22.5 -113.5q0 -131 -98.5 -227.5t-259.5 -96.5q-120 0 -217.5 52t-157.5 149l131 98q98 -154 252 -154q80 0 130 48.5t50 121.5q0 42 -22.5 76t-58.5 58.5t-79 48
t-86.5 51t-79.5 60.5t-58.5 84t-22.5 114q0 127 99 217t253 90q112 0 200 -51.5t132 -136.5l-133 -94q-69 137 -203 137q-76 0 -127 -46t-51 -108z" />
    <glyph glyph-name="Scircumflex" unicode="&#x15c;" horiz-adv-x="1167" 
d="M604 1556h-166l273 277h213l174 -277h-148l-139 189zM483 1087q0 -60 29 -110t75 -87t101.5 -73.5t111.5 -77t102 -87t75 -115.5t29 -152q0 -183 -129.5 -304.5t-335.5 -121.5q-308 0 -467 246l149 114q130 -188 322 -188q117 0 189.5 69.5t72.5 170.5q0 60 -29 111
t-75 89t-102 74.5t-112 77t-102 87t-75 115t-29 150.5q0 164 127 282t317 118q284 0 424 -240l-152 -113q-98 181 -280 181q-100 0 -168 -63.5t-68 -152.5z" />
    <glyph glyph-name="scircumflex" unicode="&#x15d;" horiz-adv-x="876" 
d="M395 1196h-166l269 340h233l148 -340h-150l-123 254zM338 774q0 -42 22.5 -76t58.5 -58.5t79 -48t86.5 -51t79.5 -60.5t58.5 -83.5t22.5 -113.5q0 -131 -98.5 -227.5t-259.5 -96.5q-120 0 -217.5 52t-157.5 149l131 98q98 -154 252 -154q80 0 130 48.5t50 121.5
q0 42 -22.5 76t-58.5 58.5t-79 48t-86.5 51t-79.5 60.5t-58.5 84t-22.5 114q0 127 99 217t253 90q112 0 200 -51.5t132 -136.5l-133 -94q-69 137 -203 137q-76 0 -127 -46t-51 -108z" />
    <glyph glyph-name="Scedilla" unicode="&#x15e;" horiz-adv-x="1167" 
d="M483 1087q0 -60 29 -110t75 -87t101.5 -73.5t111.5 -77t102 -87t75 -115.5t29 -152q0 -174 -118.5 -294t-309.5 -130l-89 -94q80 -1 133.5 -51t53.5 -119q0 -89 -66 -147t-172 -58q-133 0 -215 82l80 90q53 -63 131 -63q47 0 76 23.5t29 66.5q0 35 -26 58.5t-69 23.5
q-35 0 -79 -19l-52 74l129 137q-236 34 -368 240l149 114q130 -188 322 -188q117 0 189.5 69.5t72.5 170.5q0 60 -29 111t-75 89t-102 74.5t-112 77t-102 87t-75 115t-29 150.5q0 164 127 282t317 118q284 0 424 -240l-152 -113q-98 181 -280 181q-100 0 -168 -63.5
t-68 -152.5z" />
    <glyph glyph-name="scedilla" unicode="&#x15f;" horiz-adv-x="876" 
d="M338 774q0 -42 22.5 -76t58.5 -58.5t79 -48t86.5 -51t79.5 -60.5t58.5 -83.5t22.5 -113.5q0 -121 -85.5 -214.5t-227.5 -107.5l-88 -94q80 -1 133 -51t53 -119q0 -89 -65.5 -147t-171.5 -58q-133 0 -215 82l80 90q53 -63 131 -63q47 0 75.5 23.5t28.5 66.5
q0 35 -25.5 58.5t-68.5 23.5q-36 0 -80 -19l-51 74l129 139q-190 37 -285 193l131 98q98 -154 252 -154q80 0 130 48.5t50 121.5q0 42 -22.5 76t-58.5 58.5t-79 48t-86.5 51t-79.5 60.5t-58.5 84t-22.5 114q0 127 99 217t253 90q112 0 200 -51.5t132 -136.5l-133 -94
q-69 137 -203 137q-76 0 -127 -46t-51 -108z" />
    <glyph glyph-name="Scaron" unicode="&#x160;" horiz-adv-x="1167" 
d="M635 1833l139 -186l205 186h168l-270 -277h-213l-177 277h148zM483 1087q0 -60 29 -110t75 -87t101.5 -73.5t111.5 -77t102 -87t75 -115.5t29 -152q0 -183 -129.5 -304.5t-335.5 -121.5q-308 0 -467 246l149 114q130 -188 322 -188q117 0 189.5 69.5t72.5 170.5
q0 60 -29 111t-75 89t-102 74.5t-112 77t-102 87t-75 115t-29 150.5q0 164 127 282t317 118q284 0 424 -240l-152 -113q-98 181 -280 181q-100 0 -168 -63.5t-68 -152.5z" />
    <glyph glyph-name="scaron" unicode="&#x161;" horiz-adv-x="876" 
d="M451 1536l120 -254l211 254h168l-268 -340h-236l-147 340h152zM338 774q0 -42 22.5 -76t58.5 -58.5t79 -48t86.5 -51t79.5 -60.5t58.5 -83.5t22.5 -113.5q0 -131 -98.5 -227.5t-259.5 -96.5q-120 0 -217.5 52t-157.5 149l131 98q98 -154 252 -154q80 0 130 48.5t50 121.5
q0 42 -22.5 76t-58.5 58.5t-79 48t-86.5 51t-79.5 60.5t-58.5 84t-22.5 114q0 127 99 217t253 90q112 0 200 -51.5t132 -136.5l-133 -94q-69 137 -203 137q-76 0 -127 -46t-51 -108z" />
    <glyph glyph-name="Tcedilla" unicode="&#x162;" horiz-adv-x="1251" 
d="M201 1257l30 177h1110l-30 -177h-459l-221 -1257h-21l-125 -133q80 -1 133.5 -51t53.5 -119q0 -89 -66 -147t-172 -58q-133 0 -215 82l80 90q53 -63 131 -63q47 0 76 23.5t29 66.5q0 35 -26 58.5t-69 23.5q-36 0 -80 -19l-51 74l162 172h-33l221 1257h-458z" />
    <glyph glyph-name="tcedilla" unicode="&#x163;" horiz-adv-x="835" 
d="M209 373l90 501h-188l28 158h189l45 258h176l-45 -258h344l-27 -158h-346l-92 -514q-22 -124 20.5 -172.5t141.5 -48.5q76 0 151 27l-26 -156q-82 -30 -168 -30h-2l-107 -113q80 -1 133.5 -51t53.5 -119q0 -89 -66 -147t-172 -58q-133 0 -215 82l80 90q53 -63 131 -63
q47 0 75.5 23.5t28.5 66.5q0 35 -25.5 58.5t-68.5 23.5q-36 0 -80 -19l-51 74l158 168q-222 65 -166 377z" />
    <glyph glyph-name="Tcaron" unicode="&#x164;" horiz-adv-x="1251" 
d="M678 1833l139 -186l205 186h168l-270 -277h-213l-177 277h148zM201 1257l30 177h1110l-30 -177h-459l-221 -1257h-193l221 1257h-458z" />
    <glyph glyph-name="tcaron" unicode="&#x165;" horiz-adv-x="835" 
d="M754 1155h-154l242 381h186zM209 373l90 501h-188l28 158h189l45 258h176l-45 -258h344l-27 -158h-346l-92 -514q-22 -124 20.5 -172.5t141.5 -48.5q76 0 151 27l-26 -156q-82 -30 -168 -30q-362 0 -293 393z" />
    <glyph glyph-name="Tbar" unicode="&#x166;" horiz-adv-x="1251" 
d="M252 586l22 131h291l94 540h-458l30 177h1110l-30 -177h-459l-94 -540h291l-25 -131h-291l-102 -586h-193l103 586h-289z" />
    <glyph glyph-name="tbar" unicode="&#x167;" horiz-adv-x="835" 
d="M209 373l29 166h-189l25 133h188l37 202h-188l28 158h189l45 258h176l-45 -258h344l-27 -158h-346l-37 -202h348l-22 -133h-348l-33 -179q-22 -124 20.5 -172.5t141.5 -48.5q76 0 151 27l-26 -156q-82 -30 -168 -30q-362 0 -293 393z" />
    <glyph glyph-name="Utilde" unicode="&#x168;" horiz-adv-x="1441" 
d="M578 1569l14 80q12 89 64.5 140.5t127.5 51.5q49 0 88 -17.5t63.5 -42.5t44.5 -50t41 -42.5t44 -17.5q52 0 68 78l12 72h135l-14 -80q-12 -89 -66 -141t-129 -52q-49 0 -88.5 17.5t-64 42.5t-45 50t-41 42.5t-41.5 17.5q-53 0 -66 -78l-12 -71h-135zM1071 528l160 906
h192l-159 -910q-102 -565 -600 -565q-126 0 -225.5 39t-165 114.5t-89.5 187.5t2 259l156 875h193l-156 -885q-35 -199 44 -304.5t253 -105.5q162 0 261.5 99t133.5 290z" />
    <glyph glyph-name="utilde" unicode="&#x169;" horiz-adv-x="1200" 
d="M500 1221h-129l12 84q15 104 69 162.5t138 58.5q47 0 88.5 -19.5t70.5 -47t54.5 -55.5t51.5 -47.5t50 -19.5q73 0 86 84l13 90h129l-13 -86q-15 -102 -69.5 -160.5t-137.5 -58.5q-48 0 -90 19.5t-71 47t-54.5 55.5t-52 47.5t-51.5 19.5q-33 0 -53.5 -22.5t-26.5 -61.5z
M858 442l105 590h176l-107 -592q-40 -234 -163 -357.5t-326 -123.5q-219 0 -328.5 131.5t-69.5 368.5l103 573h174l-105 -590q-27 -152 36.5 -235.5t201.5 -83.5q121 0 198 81.5t105 237.5z" />
    <glyph glyph-name="Umacron" unicode="&#x16a;" horiz-adv-x="1441" 
d="M612 1657l23 131h620l-22 -131h-621zM1071 528l160 906h192l-159 -910q-102 -565 -600 -565q-126 0 -225.5 39t-165 114.5t-89.5 187.5t2 259l156 875h193l-156 -885q-35 -199 44 -304.5t253 -105.5q162 0 261.5 99t133.5 290z" />
    <glyph glyph-name="umacron" unicode="&#x16b;" horiz-adv-x="1200" 
d="M438 1350l23 133h620l-22 -133h-621zM858 442l105 590h176l-107 -592q-40 -234 -163 -357.5t-326 -123.5q-219 0 -328.5 131.5t-69.5 368.5l103 573h174l-105 -590q-27 -152 36.5 -235.5t201.5 -83.5q121 0 198 81.5t105 237.5z" />
    <glyph glyph-name="Ubreve" unicode="&#x16c;" horiz-adv-x="1441" 
d="M932 1661q165 0 205 172h151q-24 -145 -120 -221t-240 -76q-156 0 -242 78t-63 219h137q-15 -172 172 -172zM1071 528l160 906h192l-159 -910q-102 -565 -600 -565q-126 0 -225.5 39t-165 114.5t-89.5 187.5t2 259l156 875h193l-156 -885q-35 -199 44 -304.5t253 -105.5
q162 0 261.5 99t133.5 290z" />
    <glyph glyph-name="ubreve" unicode="&#x16d;" horiz-adv-x="1200" 
d="M760 1321q88 0 138 53t69 162h149q-25 -167 -119.5 -253.5t-246.5 -86.5q-148 0 -231 90.5t-58 249.5h139q-14 -105 26.5 -160t133.5 -55zM858 442l105 590h176l-107 -592q-40 -234 -163 -357.5t-326 -123.5q-219 0 -328.5 131.5t-69.5 368.5l103 573h174l-105 -590
q-27 -152 36.5 -235.5t201.5 -83.5q121 0 198 81.5t105 237.5z" />
    <glyph glyph-name="Uring" unicode="&#x16e;" horiz-adv-x="1441" 
d="M956 1978q98 0 165 -57.5t67 -153.5q0 -116 -77.5 -183.5t-190.5 -67.5q-99 0 -165.5 56.5t-66.5 151.5q0 117 77 185.5t191 68.5zM950 1874q-65 0 -105 -39.5t-40 -101.5q0 -52 33 -82.5t88 -30.5q66 0 105.5 39t39.5 102q0 51 -34 82t-87 31zM1071 528l160 906h192
l-159 -910q-102 -565 -600 -565q-126 0 -225.5 39t-165 114.5t-89.5 187.5t2 259l156 875h193l-156 -885q-35 -199 44 -304.5t253 -105.5q162 0 261.5 99t133.5 290z" />
    <glyph glyph-name="uring" unicode="&#x16f;" horiz-adv-x="1200" 
d="M733 1139q-96 0 -163.5 61t-67.5 156q0 117 78 191.5t192 74.5q97 0 164.5 -62t67.5 -157q0 -117 -77.5 -190.5t-193.5 -73.5zM741 1243q66 0 106 44t40 108q0 55 -33.5 89t-89.5 34q-64 0 -103.5 -45t-39.5 -109q0 -54 32.5 -87.5t87.5 -33.5zM858 442l105 590h176
l-107 -592q-40 -234 -163 -357.5t-326 -123.5q-219 0 -328.5 131.5t-69.5 368.5l103 573h174l-105 -590q-27 -152 36.5 -235.5t201.5 -83.5q121 0 198 81.5t105 237.5z" />
    <glyph glyph-name="Uhungarumlaut" unicode="&#x170;" horiz-adv-x="1441" 
d="M795 1556h-185l275 277h213zM1196 1556h-184l274 277h213zM1071 528l160 906h192l-159 -910q-102 -565 -600 -565q-126 0 -225.5 39t-165 114.5t-89.5 187.5t2 259l156 875h193l-156 -885q-35 -199 44 -304.5t253 -105.5q162 0 261.5 99t133.5 290z" />
    <glyph glyph-name="uhungarumlaut" unicode="&#x171;" horiz-adv-x="1200" 
d="M612 1196h-176l269 340h200zM977 1196h-174l266 340h201zM858 442l105 590h176l-107 -592q-40 -234 -163 -357.5t-326 -123.5q-219 0 -328.5 131.5t-69.5 368.5l103 573h174l-105 -590q-27 -152 36.5 -235.5t201.5 -83.5q121 0 198 81.5t105 237.5z" />
    <glyph glyph-name="Uogonek" unicode="&#x172;" horiz-adv-x="1441" 
d="M436 -305q0 68 47 131t152 133q-120 5 -213.5 46t-155 116.5t-83.5 185.5t3 252l156 875h193l-156 -885q-35 -199 44 -304.5t253 -105.5q162 0 261.5 99t133.5 290l160 906h192l-159 -910q-77 -436 -398 -536l-80 -51q-122 -83 -161 -127t-39 -95q0 -45 31.5 -69.5
t82.5 -24.5q52 0 125 33l-22 -131q-60 -27 -131 -27q-112 0 -174 57.5t-62 141.5z" />
    <glyph glyph-name="uogonek" unicode="&#x173;" horiz-adv-x="1200" 
d="M287 -305q0 70 47 133t153 133q-192 18 -285.5 147.5t-56.5 350.5l103 573h174l-105 -590q-27 -152 36.5 -235.5t201.5 -83.5q121 0 198 81.5t105 237.5l105 590h176l-107 -592q-63 -365 -315 -452l-80 -51q-122 -83 -161.5 -127.5t-39.5 -94.5q0 -45 32 -69.5t83 -24.5
q52 0 125 33l-23 -131q-60 -27 -131 -27q-112 0 -173.5 57.5t-61.5 141.5z" />
    <glyph glyph-name="Wcircumflex" unicode="&#x174;" horiz-adv-x="2068" 
d="M1055 1556h-166l272 277h213l174 -277h-147l-139 189zM227 1434h193l82 -1213l561 1213h258l131 -1213l510 1213h205l-608 -1434h-265l-137 1225l-567 -1225h-258z" />
    <glyph glyph-name="wcircumflex" unicode="&#x175;" horiz-adv-x="1597" 
d="M756 1196h-166l268 340h234l147 -340h-149l-123 254zM160 1032h168l55 -856l381 856h237l80 -852l359 852h180l-432 -1032h-246l-82 877l-391 -877h-240z" />
    <glyph glyph-name="Ycircumflex" unicode="&#x176;" horiz-adv-x="1347" 
d="M678 1556h-166l272 277h213l174 -277h-147l-139 189zM1497 1434l-706 -793l-113 -641h-193l115 651l-424 783h217l328 -607l536 607h240z" />
    <glyph glyph-name="ycircumflex" unicode="&#x177;" horiz-adv-x="1091" 
d="M502 1196h-166l268 340h234l147 -340h-149l-123 254zM406 -250q-80 -139 -166.5 -200.5t-204.5 -61.5q-122 0 -187 41l27 154q65 -35 141 -35q69 0 127 38t111 128l111 188l-246 1030h184l186 -813l474 813h192z" />
    <glyph glyph-name="Ydieresis" unicode="&#x178;" horiz-adv-x="1347" 
d="M676 1616q-46 0 -78.5 31.5t-32.5 76.5q0 44 32.5 76.5t78.5 32.5q44 0 77 -32.5t33 -76.5q0 -45 -32.5 -76.5t-77.5 -31.5zM1067 1616q-46 0 -79.5 31.5t-33.5 76.5q0 44 33.5 76.5t79.5 32.5q44 0 77.5 -32.5t33.5 -76.5q0 -45 -33 -76.5t-78 -31.5zM1497 1434
l-706 -793l-113 -641h-193l115 651l-424 783h217l328 -607l536 607h240z" />
    <glyph glyph-name="Zacute" unicode="&#x179;" horiz-adv-x="1329" 
d="M944 1556h-184l272 277h215zM18 0l31 176l1034 1081h-823l31 177h1071l-31 -177l-1032 -1081h862l-31 -176h-1112z" />
    <glyph glyph-name="zacute" unicode="&#x17a;" horiz-adv-x="1005" 
d="M709 1196h-177l269 340h203zM8 0l29 158l706 716h-567l29 158h782l-26 -158l-709 -716h596l-29 -158h-811z" />
    <glyph glyph-name="Zdotaccent" unicode="&#x17b;" horiz-adv-x="1329" 
d="M879 1616q-45 0 -78 31.5t-33 76.5q0 44 33.5 76.5t77.5 32.5q46 0 79 -32.5t33 -76.5q0 -45 -33 -76.5t-79 -31.5zM18 0l31 176l1034 1081h-823l31 177h1071l-31 -177l-1032 -1081h862l-31 -176h-1112z" />
    <glyph glyph-name="zdotaccent" unicode="&#x17c;" horiz-adv-x="1005" 
d="M672 1300q-51 0 -88 36t-37 85q0 51 37 87t88 36q50 0 87.5 -36.5t37.5 -86.5q0 -49 -37.5 -85t-87.5 -36zM8 0l29 158l706 716h-567l29 158h782l-26 -158l-709 -716h596l-29 -158h-811z" />
    <glyph glyph-name="Zcaron" unicode="&#x17d;" horiz-adv-x="1329" 
d="M717 1833l139 -186l205 186h168l-271 -277h-213l-176 277h148zM18 0l31 176l1034 1081h-823l31 177h1071l-31 -177l-1032 -1081h862l-31 -176h-1112z" />
    <glyph glyph-name="zcaron" unicode="&#x17e;" horiz-adv-x="1005" 
d="M516 1536l121 -254l211 254h168l-268 -340h-236l-147 340h151zM8 0l29 158l706 716h-567l29 158h782l-26 -158l-709 -716h596l-29 -158h-811z" />
    <glyph glyph-name="Schwa" unicode="&#x18f;" horiz-adv-x="1550" 
d="M844 1475q153 0 277.5 -52t206 -142.5t125.5 -212.5t44 -263q0 -136 -34.5 -262.5t-102 -232t-161.5 -184.5t-219 -123t-267 -44q-257 0 -413.5 148t-156.5 376q0 118 37 234h1114q4 58 4 90q0 219 -122.5 353t-339.5 134q-149 0 -279 -59.5t-217 -165.5l-137 123
q112 131 276.5 207t364.5 76zM725 131q205 0 344 115.5t195 308.5h-922q-13 -82 5 -157.5t64 -135t127.5 -95.5t186.5 -36z" />
    <glyph glyph-name="Eopen" unicode="&#x190;" horiz-adv-x="1206" 
d="M559 -41q-214 0 -345.5 107.5t-131.5 295.5q0 139 83 253t245 167q-76 54 -109 121t-33 158q0 177 131 294.5t338 117.5q173 0 290 -69t175 -192l-160 -92q-36 86 -113 134.5t-184 48.5q-129 0 -202.5 -67t-73.5 -183q0 -95 58 -153t153 -58h235l-30 -162h-234
q-165 0 -266.5 -84.5t-101.5 -216.5q0 -118 77.5 -184t208.5 -66q117 0 213.5 55.5t186.5 175.5l141 -106q-109 -149 -238.5 -222t-312.5 -73z" />
    <glyph glyph-name="ltGamma" unicode="&#x194;" horiz-adv-x="1507" 
d="M944 -164q0 -92 -37.5 -170t-116 -128t-184.5 -50q-139 0 -218 71t-79 191q0 88 42 177.5t143 230.5l110 157l-391 1119h207l323 -922l650 922h225l-801 -1133l49 -143q43 -119 60.5 -185t17.5 -137zM616 -348q65 0 99.5 45.5t34.5 122.5q0 82 -54 233l-18 53l-33 -47
q-78 -111 -110.5 -177.5t-32.5 -114.5q0 -54 28.5 -84.5t85.5 -30.5z" />
    <glyph glyph-name="Nhookleft" unicode="&#x19d;" horiz-adv-x="1658" 
d="M330 37q-35 -197 -134 -284t-259 -87q-106 0 -164 25l30 164q51 -19 115 -19q46 0 79 9.5t63 34.5t50 72.5t33 119.5l240 1362h246l569 -1207l213 1207h193l-254 -1434h-248l-567 1202z" />
    <glyph glyph-name="Ohorn" unicode="&#x1a0;" horiz-adv-x="1660" 
d="M940 1475q133 0 248 -41h94q93 0 135.5 47t42.5 112q0 58 -43 107l109 80q78 -82 78 -183q0 -100 -61 -172.5t-169 -93.5q112 -91 174 -225.5t62 -296.5q0 -169 -60 -324t-165.5 -271t-260 -185.5t-331.5 -69.5q-194 0 -346.5 85.5t-237 237.5t-84.5 343q0 169 60 324
t165 271t259 185.5t331 69.5zM797 139q175 0 316 89.5t218.5 239.5t77.5 329q0 102 -33.5 192.5t-93.5 158t-149.5 107t-196.5 39.5q-175 0 -315.5 -89t-217.5 -239t-77 -329q0 -210 129.5 -354t341.5 -144z" />
    <glyph glyph-name="ohorn" unicode="&#x1a1;" horiz-adv-x="1267" 
d="M694 1073q119 0 215 -41h82q92 0 136 48t44 112q0 55 -45 106l109 80q78 -82 78 -182q0 -105 -66.5 -179t-185.5 -91q127 -136 127 -346q0 -122 -44.5 -234.5t-122 -198t-193 -137t-248.5 -51.5q-152 0 -266.5 66t-173 177.5t-58.5 250.5q0 122 44.5 234.5t122.5 198
t194 136.5t251 51zM582 123q122 0 220 64.5t150 169t52 225.5q0 140 -88 233.5t-228 93.5q-122 0 -220 -64t-150 -168.5t-52 -225.5q0 -140 88 -234t228 -94z" />
    <glyph glyph-name="Uhorn" unicode="&#x1af;" horiz-adv-x="1441" 
d="M1071 528l160 906h141q93 0 135.5 47t42.5 112q0 58 -43 107l109 80q78 -82 78 -183q0 -114 -77.5 -191t-211.5 -83l-141 -799q-102 -565 -600 -565q-126 0 -225.5 39t-165 114.5t-89.5 187.5t2 259l156 875h193l-156 -885q-35 -199 44 -304.5t253 -105.5q162 0 261.5 99
t133.5 290z" />
    <glyph glyph-name="uhorn" unicode="&#x1b0;" horiz-adv-x="1218" 
d="M858 442l105 590h135q92 0 136 48t44 112q0 55 -45 106l108 80q78 -82 78 -182q0 -118 -82 -196t-219 -78l-86 -482q-40 -234 -163 -357.5t-326 -123.5q-219 0 -328.5 131.5t-69.5 368.5l103 573h174l-105 -590q-27 -152 36.5 -235.5t201.5 -83.5q121 0 198 81.5
t105 237.5z" />
    <glyph glyph-name="Acaron" unicode="&#x1cd;" horiz-adv-x="1466" 
d="M784 1833l140 -186l204 186h168l-270 -277h-213l-176 277h147zM-39 0l807 1434h256l301 -1434h-199l-84 422h-636l-234 -422h-211zM498 588h512l-136 676z" />
    <glyph glyph-name="acaron" unicode="&#x1ce;" horiz-adv-x="1116" 
d="M571 1536l121 -254l211 254h168l-268 -340h-236l-147 340h151zM383 -29q-142 0 -228.5 70t-86.5 195q0 127 91.5 211t272.5 116l371 62l10 59q19 109 -36 171.5t-165 62.5q-164 0 -293 -146l-124 105q74 89 185.5 142.5t242.5 53.5q204 0 298 -114.5t60 -307.5l-117 -651
h-172l21 113q-129 -142 -330 -142zM248 254q0 -64 45.5 -101.5t128.5 -37.5q193 0 319 168l39 211l-311 -54q-111 -18 -166 -66t-55 -120z" />
    <glyph glyph-name="Icaron" unicode="&#x1cf;" horiz-adv-x="630" 
d="M367 1833l139 -186l205 186h168l-271 -277h-213l-176 277h148zM129 0l254 1434h192l-253 -1434h-193z" />
    <glyph glyph-name="icaron" unicode="&#x1d0;" horiz-adv-x="528" 
d="M276 1536l121 -254l211 254h168l-268 -340h-236l-147 340h151zM86 0l182 1032h174l-182 -1032h-174z" />
    <glyph glyph-name="Ocaron" unicode="&#x1d1;" horiz-adv-x="1660" 
d="M870 1833l140 -186l204 186h168l-270 -277h-213l-176 277h147zM940 1475q195 0 348 -85.5t237.5 -237t84.5 -343.5q0 -169 -60 -324t-165.5 -271t-260 -185.5t-331.5 -69.5q-194 0 -346.5 85.5t-237 237.5t-84.5 343q0 169 60 324t165 271t259 185.5t331 69.5zM797 139
q175 0 316 89.5t218.5 239.5t77.5 329q0 102 -33.5 192.5t-93.5 158t-149.5 107t-196.5 39.5q-175 0 -315.5 -89t-217.5 -239t-77 -329q0 -210 129.5 -354t341.5 -144z" />
    <glyph glyph-name="ocaron" unicode="&#x1d2;" horiz-adv-x="1267" 
d="M647 1536l121 -254l211 254h168l-268 -340h-236l-147 340h151zM694 1073q227 0 360.5 -140t133.5 -353q0 -122 -44.5 -234.5t-122 -198t-193 -137t-248.5 -51.5q-152 0 -266.5 66t-173 177.5t-58.5 250.5q0 122 44.5 234.5t122.5 198t194 136.5t251 51zM582 123
q122 0 220 64.5t150 169t52 225.5q0 140 -88 233.5t-228 93.5q-122 0 -220 -64t-150 -168.5t-52 -225.5q0 -140 88 -234t228 -94z" />
    <glyph glyph-name="Ucaron" unicode="&#x1d3;" horiz-adv-x="1441" 
d="M772 1833l139 -186l205 186h168l-270 -277h-213l-176 277h147zM1071 528l160 906h192l-159 -910q-102 -565 -600 -565q-126 0 -225.5 39t-165 114.5t-89.5 187.5t2 259l156 875h193l-156 -885q-35 -199 44 -304.5t253 -105.5q162 0 261.5 99t133.5 290z" />
    <glyph glyph-name="ucaron" unicode="&#x1d4;" horiz-adv-x="1200" 
d="M612 1536l121 -254l211 254h168l-268 -340h-236l-147 340h151zM858 442l105 590h176l-107 -592q-40 -234 -163 -357.5t-326 -123.5q-219 0 -328.5 131.5t-69.5 368.5l103 573h174l-105 -590q-27 -152 36.5 -235.5t201.5 -83.5q121 0 198 81.5t105 237.5z" />
    <glyph glyph-name="Udieresismacron" unicode="&#x1d5;" horiz-adv-x="1441" 
d="M672 1995l22 131h621l-23 -131h-620zM739 1616q-46 0 -78 31t-32 77q0 44 32.5 76.5t77.5 32.5q44 0 77.5 -32.5t33.5 -76.5q0 -45 -33 -76.5t-78 -31.5zM1130 1616q-46 0 -79 31.5t-33 76.5q0 44 33 76.5t79 32.5q44 0 77.5 -32.5t33.5 -76.5q0 -45 -33 -76.5t-78 -31.5
zM1071 528l160 906h192l-159 -910q-102 -565 -600 -565q-126 0 -225.5 39t-165 114.5t-89.5 187.5t2 259l156 875h193l-156 -885q-35 -199 44 -304.5t253 -105.5q162 0 261.5 99t133.5 290z" />
    <glyph glyph-name="udieresismacron" unicode="&#x1d6;" horiz-adv-x="1200" 
d="M481 1593l23 131h620l-22 -131h-621zM549 1214q-46 0 -78.5 31.5t-32.5 77.5q0 44 32.5 76.5t78.5 32.5q44 0 77 -32.5t33 -76.5q0 -45 -32.5 -77t-77.5 -32zM940 1214q-46 0 -79.5 32t-33.5 77q0 44 33.5 76.5t79.5 32.5q44 0 77.5 -32.5t33.5 -76.5q0 -45 -33 -77
t-78 -32zM858 442l105 590h176l-107 -592q-40 -234 -163 -357.5t-326 -123.5q-219 0 -328.5 131.5t-69.5 368.5l103 573h174l-105 -590q-27 -152 36.5 -235.5t201.5 -83.5q121 0 198 81.5t105 237.5z" />
    <glyph glyph-name="Udieresisacute" unicode="&#x1d7;" horiz-adv-x="1441" 
d="M1059 1894h-185l273 277h215zM739 1616q-46 0 -78 31t-32 77q0 44 32.5 76.5t77.5 32.5q44 0 77.5 -32.5t33.5 -76.5q0 -45 -33 -76.5t-78 -31.5zM1130 1616q-46 0 -79 31.5t-33 76.5q0 44 33 76.5t79 32.5q44 0 77.5 -32.5t33.5 -76.5q0 -45 -33 -76.5t-78 -31.5z
M1071 528l160 906h192l-159 -910q-102 -565 -600 -565q-126 0 -225.5 39t-165 114.5t-89.5 187.5t2 259l156 875h193l-156 -885q-35 -199 44 -304.5t253 -105.5q162 0 261.5 99t133.5 290z" />
    <glyph glyph-name="udieresisacute" unicode="&#x1d8;" horiz-adv-x="1200" 
d="M868 1493h-184l272 276h215zM549 1214q-46 0 -78.5 31.5t-32.5 77.5q0 44 32.5 76.5t78.5 32.5q44 0 77 -32.5t33 -76.5q0 -45 -32.5 -77t-77.5 -32zM940 1214q-46 0 -79.5 32t-33.5 77q0 44 33.5 76.5t79.5 32.5q44 0 77.5 -32.5t33.5 -76.5q0 -45 -33 -77t-78 -32z
M858 442l105 590h176l-107 -592q-40 -234 -163 -357.5t-326 -123.5q-219 0 -328.5 131.5t-69.5 368.5l103 573h174l-105 -590q-27 -152 36.5 -235.5t201.5 -83.5q121 0 198 81.5t105 237.5z" />
    <glyph glyph-name="Udieresiscaron" unicode="&#x1d9;" horiz-adv-x="1441" 
d="M831 2171l140 -186l205 186h167l-270 -277h-213l-176 277h147zM739 1616q-46 0 -78 31t-32 77q0 44 32.5 76.5t77.5 32.5q44 0 77.5 -32.5t33.5 -76.5q0 -45 -33 -76.5t-78 -31.5zM1130 1616q-46 0 -79 31.5t-33 76.5q0 44 33 76.5t79 32.5q44 0 77.5 -32.5t33.5 -76.5
q0 -45 -33 -76.5t-78 -31.5zM1071 528l160 906h192l-159 -910q-102 -565 -600 -565q-126 0 -225.5 39t-165 114.5t-89.5 187.5t2 259l156 875h193l-156 -885q-35 -199 44 -304.5t253 -105.5q162 0 261.5 99t133.5 290z" />
    <glyph glyph-name="udieresiscaron" unicode="&#x1da;" horiz-adv-x="1200" 
d="M641 1769l139 -186l205 186h168l-270 -276h-213l-176 276h147zM549 1214q-46 0 -78.5 31.5t-32.5 77.5q0 44 32.5 76.5t78.5 32.5q44 0 77 -32.5t33 -76.5q0 -45 -32.5 -77t-77.5 -32zM940 1214q-46 0 -79.5 32t-33.5 77q0 44 33.5 76.5t79.5 32.5q44 0 77.5 -32.5
t33.5 -76.5q0 -45 -33 -77t-78 -32zM858 442l105 590h176l-107 -592q-40 -234 -163 -357.5t-326 -123.5q-219 0 -328.5 131.5t-69.5 368.5l103 573h174l-105 -590q-27 -152 36.5 -235.5t201.5 -83.5q121 0 198 81.5t105 237.5z" />
    <glyph glyph-name="Udieresisgrave" unicode="&#x1db;" horiz-adv-x="1441" 
d="M885 1894l-205 277h201l176 -277h-172zM739 1616q-46 0 -78 31t-32 77q0 44 32.5 76.5t77.5 32.5q44 0 77.5 -32.5t33.5 -76.5q0 -45 -33 -76.5t-78 -31.5zM1130 1616q-46 0 -79 31.5t-33 76.5q0 44 33 76.5t79 32.5q44 0 77.5 -32.5t33.5 -76.5q0 -45 -33 -76.5
t-78 -31.5zM1071 528l160 906h192l-159 -910q-102 -565 -600 -565q-126 0 -225.5 39t-165 114.5t-89.5 187.5t2 259l156 875h193l-156 -885q-35 -199 44 -304.5t253 -105.5q162 0 261.5 99t133.5 290z" />
    <glyph glyph-name="udieresisgrave" unicode="&#x1dc;" horiz-adv-x="1200" 
d="M694 1493l-205 276h201l176 -276h-172zM549 1214q-46 0 -78.5 31.5t-32.5 77.5q0 44 32.5 76.5t78.5 32.5q44 0 77 -32.5t33 -76.5q0 -45 -32.5 -77t-77.5 -32zM940 1214q-46 0 -79.5 32t-33.5 77q0 44 33.5 76.5t79.5 32.5q44 0 77.5 -32.5t33.5 -76.5q0 -45 -33 -77
t-78 -32zM858 442l105 590h176l-107 -592q-40 -234 -163 -357.5t-326 -123.5q-219 0 -328.5 131.5t-69.5 368.5l103 573h174l-105 -590q-27 -152 36.5 -235.5t201.5 -83.5q121 0 198 81.5t105 237.5z" />
    <glyph glyph-name="Gcaron" unicode="&#x1e6;" horiz-adv-x="1605" 
d="M836 1833l139 -186l205 186h168l-271 -277h-213l-176 277h148zM784 -41q-193 0 -343.5 85.5t-233 237t-82.5 343.5q0 169 60.5 324t167 271t261.5 185.5t334 69.5q199 0 345.5 -85t230.5 -225l-168 -108q-57 106 -167 170.5t-251 64.5q-175 0 -316 -88.5t-218.5 -238
t-77.5 -328.5q0 -137 55.5 -249.5t163.5 -180.5t248 -68q244 0 434 164l61 344h-401l28 166h594l-104 -592q-114 -120 -274.5 -191t-346.5 -71z" />
    <glyph glyph-name="gcaron" unicode="&#x1e7;" horiz-adv-x="1105" 
d="M504 1536l121 -254l211 254h168l-269 -340h-235l-148 340h152zM-63 -211q0 181 206 293q-53 53 -53 125q0 131 168 223q-106 92 -106 246q0 78 29 149t82.5 127t136.5 89.5t182 33.5q110 0 194 -43h393l-28 -151h-221q26 -59 26 -136q0 -78 -29 -150t-81.5 -128
t-134.5 -89.5t-181 -33.5q-90 0 -158 27q-104 -60 -104 -125q0 -62 74 -62h254q187 0 278.5 -81.5t91.5 -217.5q0 -171 -148 -284t-409 -113q-229 0 -345.5 80t-116.5 221zM782 741q0 83 -54.5 140t-145.5 57q-123 0 -194 -76.5t-71 -183.5q0 -85 54 -141t149 -56
q119 0 190.5 76.5t71.5 183.5zM111 -188q0 -179 295 -179q184 0 278 66t94 172q0 160 -205 160h-297q-80 -39 -122.5 -99.5t-42.5 -119.5z" />
    <glyph glyph-name="Aringacute" unicode="&#x1fa;" horiz-adv-x="1466" 
d="M1096 2040h-185l273 276h215zM969 1978q98 0 164.5 -57.5t66.5 -153.5q0 -116 -77.5 -183.5t-190.5 -67.5q-99 0 -165.5 56.5t-66.5 151.5q0 117 77.5 185.5t191.5 68.5zM963 1874q-65 0 -105.5 -39.5t-40.5 -101.5q0 -52 33 -82.5t88 -30.5q66 0 105.5 39t39.5 102
q0 51 -33.5 82t-86.5 31zM-39 0l807 1434h256l301 -1434h-199l-84 422h-636l-234 -422h-211zM498 588h512l-136 676z" />
    <glyph glyph-name="aringacute" unicode="&#x1fb;" horiz-adv-x="1116" 
d="M852 1638h-184l272 277h215zM725 1577q98 0 164.5 -57.5t66.5 -153.5q0 -116 -77.5 -184t-190.5 -68q-98 0 -164.5 57t-66.5 152q0 117 77 185.5t191 68.5zM719 1473q-65 0 -105.5 -40t-40.5 -102q0 -52 33 -82t88 -30q66 0 106 39t40 102q0 51 -34 82t-87 31zM383 -29
q-142 0 -228.5 70t-86.5 195q0 127 91.5 211t272.5 116l371 62l10 59q19 109 -36 171.5t-165 62.5q-164 0 -293 -146l-124 105q74 89 185.5 142.5t242.5 53.5q204 0 298 -114.5t60 -307.5l-117 -651h-172l21 113q-129 -142 -330 -142zM248 254q0 -64 45.5 -101.5
t128.5 -37.5q193 0 319 168l39 211l-311 -54q-111 -18 -166 -66t-55 -120z" />
    <glyph glyph-name="AEacute" unicode="&#x1fc;" horiz-adv-x="1943" 
d="M1421 1556h-184l272 277h215zM-49 0l1118 1434h889l-31 -164h-557l-80 -459h479l-30 -162h-477l-86 -485h557l-29 -164h-750l74 422h-516l-326 -422h-235zM641 588h416l123 698z" />
    <glyph glyph-name="aeacute" unicode="&#x1fd;" horiz-adv-x="1847" 
d="M1087 1196h-176l269 340h202zM393 -29q-142 0 -232.5 72.5t-90.5 200.5q0 122 91.5 204.5t272.5 114.5l371 64l10 57q20 109 -35.5 171.5t-165.5 62.5q-161 0 -290 -146l-127 105q74 89 185.5 142.5t242.5 53.5q124 0 208 -45.5t123 -128.5q77 82 183.5 128t230.5 46
q180 0 294 -109t114 -276q0 -86 -31 -174h-780q-4 -40 -4 -63q0 -154 82.5 -244t236.5 -90q103 0 191.5 42.5t146.5 116.5l117 -112q-79 -97 -200 -151t-265 -54q-148 0 -256 60.5t-168 168.5q-181 -217 -455 -217zM1362 928q-128 0 -224.5 -76.5t-140.5 -202.5l607 -2
q10 72 -12 134.5t-82 104.5t-148 42zM250 256q0 -64 45.5 -102.5t128.5 -38.5q209 0 373 217q-13 63 -13 121q0 29 2 41l-315 -54q-221 -37 -221 -184z" />
    <glyph glyph-name="Oslashacute" unicode="&#x1fe;" horiz-adv-x="1660" 
d="M1098 1556h-185l273 277h215zM188 -41h-186l254 252q-131 173 -131 414q0 169 60 324t165 271t259 185.5t331 69.5q263 0 449 -156l155 156h187l-252 -250q131 -176 131 -416q0 -169 -60 -324t-165.5 -271t-260 -185.5t-331.5 -69.5q-264 0 -447 156zM326 637
q0 -160 80 -289l837 838q-127 108 -307 108q-175 0 -315.5 -89t-217.5 -239t-77 -329zM797 139q175 0 316 89.5t218.5 239.5t77.5 329q0 159 -80 288l-840 -837q128 -109 308 -109z" />
    <glyph glyph-name="oslashacute" unicode="&#x1ff;" horiz-adv-x="1269" 
d="M840 1196h-176l268 340h203zM178 -41h-180l178 186q-94 129 -94 308q0 122 44.5 234.5t122.5 198t194 136.5t251 51q186 0 312 -96l90 96h180l-180 -188q92 -131 92 -305q0 -122 -44.5 -234.5t-122 -198t-193 -137t-248.5 -51.5q-185 0 -312 94zM266 451q0 -98 45 -177
l566 578q-79 57 -189 57q-122 0 -220 -64t-150 -168.5t-52 -225.5zM582 123q122 0 220 64.5t150 169t52 225.5q0 98 -43 174l-564 -578q77 -55 185 -55z" />
    <glyph glyph-name="Scommaaccent" unicode="&#x218;" horiz-adv-x="1167" 
d="M483 1087q0 -60 29 -110t75 -87t101.5 -73.5t111.5 -77t102 -87t75 -115.5t29 -152q0 -183 -129.5 -304.5t-335.5 -121.5q-308 0 -467 246l149 114q130 -188 322 -188q117 0 189.5 69.5t72.5 170.5q0 60 -29 111t-75 89t-102 74.5t-112 77t-102 87t-75 115t-29 150.5
q0 164 127 282t317 118q284 0 424 -240l-152 -113q-98 181 -280 181q-100 0 -168 -63.5t-68 -152.5zM293 -504h-176l266 340h203z" />
    <glyph glyph-name="scommaaccent" unicode="&#x219;" horiz-adv-x="876" 
d="M338 774q0 -42 22.5 -76t58.5 -58.5t79 -48t86.5 -51t79.5 -60.5t58.5 -83.5t22.5 -113.5q0 -131 -98.5 -227.5t-259.5 -96.5q-120 0 -217.5 52t-157.5 149l131 98q98 -154 252 -154q80 0 130 48.5t50 121.5q0 42 -22.5 76t-58.5 58.5t-79 48t-86.5 51t-79.5 60.5
t-58.5 84t-22.5 114q0 127 99 217t253 90q112 0 200 -51.5t132 -136.5l-133 -94q-69 137 -203 137q-76 0 -127 -46t-51 -108zM147 -504h-176l267 340h202z" />
    <glyph glyph-name="Tcommaaccent" unicode="&#x21a;" horiz-adv-x="1251" 
d="M201 1257l30 177h1110l-30 -177h-459l-221 -1257h-193l221 1257h-458zM317 -504h-176l267 340h202z" />
    <glyph glyph-name="tcommaaccent" unicode="&#x21b;" horiz-adv-x="835" 
d="M209 373l90 501h-188l28 158h189l45 258h176l-45 -258h344l-27 -158h-346l-92 -514q-22 -124 20.5 -172.5t141.5 -48.5q76 0 151 27l-26 -156q-82 -30 -168 -30q-362 0 -293 393zM197 -504h-177l267 340h202z" />
    <glyph glyph-name="Ymacron" unicode="&#x232;" horiz-adv-x="1347" 
d="M549 1657l22 131h621l-23 -131h-620zM1497 1434l-706 -793l-113 -641h-193l115 651l-424 783h217l328 -607l536 607h240z" />
    <glyph glyph-name="ymacron" unicode="&#x233;" horiz-adv-x="1091" 
d="M383 1350l23 133h620l-22 -133h-621zM406 -250q-80 -139 -166.5 -200.5t-204.5 -61.5q-122 0 -187 41l27 154q65 -35 141 -35q69 0 127 38t111 128l111 188l-246 1030h184l186 -813l474 813h192z" />
    <glyph glyph-name="dotlessj" unicode="&#x237;" horiz-adv-x="528" 
d="M233 -150q-35 -202 -128 -282t-250 -80q-125 0 -199 41l27 154q76 -35 147 -35q48 0 82 8t65 29.5t52 64.5t32 109l207 1173h174z" />
    <glyph glyph-name="schwa" unicode="&#x259;" horiz-adv-x="1153" 
d="M582 1073q115 0 208.5 -38t154.5 -105t93.5 -156.5t32.5 -193.5q0 -126 -39 -238t-110.5 -197.5t-181 -135.5t-240.5 -50q-185 0 -305.5 109.5t-120.5 275.5q0 89 30 174h785q2 20 2 64q0 153 -83.5 243t-236.5 90q-104 0 -193 -42.5t-147 -116.5l-116 112q81 97 202 151
t265 54zM504 104q135 0 226.5 76t131.5 205h-612q-10 -71 15 -134.5t88 -105t151 -41.5z" />
    <glyph glyph-name="eopen" unicode="&#x25b;" horiz-adv-x="1007" 
d="M463 117q104 0 196 46t156 122l115 -113q-89 -103 -213 -158t-273 -55q-181 0 -290 78.5t-109 216.5q0 104 63 186t175 117q-103 67 -103 195q0 140 105.5 230.5t289.5 90.5q250 0 394 -176l-140 -104q-42 54 -107 88t-149 34q-102 0 -157.5 -48t-55.5 -128q0 -57 39 -92
t101 -35h217l-25 -141h-256q-93 0 -150 -53.5t-57 -136.5q0 -78 62.5 -121t171.5 -43z" />
    <glyph glyph-name="ipagamma" unicode="&#x263;" horiz-adv-x="1089" 
d="M705 -217q0 -55 -18.5 -106.5t-54.5 -94.5t-96 -68.5t-135 -25.5q-124 0 -203 69.5t-79 178.5q0 66 29 134t104 173l147 207l-280 782h184l215 -614l436 614h201l-573 -799l71 -202q52 -143 52 -248zM406 -369q60 0 93 45t33 115q0 85 -36 186l-33 93l-60 -84
q-62 -87 -87 -140.5t-25 -99.5q0 -56 29.5 -85.5t85.5 -29.5z" />
    <glyph glyph-name="nhookleft" unicode="&#x272;" horiz-adv-x="1232" 
d="M233 -150q-35 -202 -128 -282t-250 -80q-125 0 -199 41l27 154q76 -35 147 -35q48 0 82 8t65 29.5t52 64.5t32 109l207 1173h174l-18 -108q149 149 338 149q184 0 276.5 -117t55.5 -331l-111 -625h-174l111 618q24 137 -32.5 214t-176.5 77q-97 0 -180.5 -51.5
t-143.5 -142.5v2z" />
    <glyph glyph-name="ringhalfrightmod" unicode="&#x2be;" 
d="M600 1141l18 104q72 0 115 42.5t43 105.5q0 55 -29.5 88.5t-80.5 38.5l18 102q89 -8 149 -69t60 -158q0 -115 -81 -185.5t-212 -68.5z" />
    <glyph glyph-name="ringhalfleftmod" unicode="&#x2bf;" 
d="M936 1620l-18 -104q-72 1 -115 -42t-43 -106q0 -54 29.5 -88.5t80.5 -38.5l-18 -102q-89 8 -149 69t-60 158q0 115 81 185.5t212 68.5z" />
    <glyph glyph-name="circumflex" unicode="&#x2c6;" horiz-adv-x="688" 
d="M305 1196h-166l269 340h233l147 -340h-149l-123 254z" />
    <glyph glyph-name="caron" unicode="&#x2c7;" horiz-adv-x="688" 
d="M352 1536l121 -254l211 254h168l-268 -340h-236l-147 340h151z" />
    <glyph glyph-name="verticallinemod" unicode="&#x2c8;" 
d="M729 1536h131l-59 -340h-131z" />
    <glyph glyph-name="verticallinelowmod" unicode="&#x2cc;" 
d="M430 -164h133l-59 -340h-133z" />
    <glyph glyph-name="breve" unicode="&#x2d8;" horiz-adv-x="688" 
d="M496 1321q88 0 137.5 53t68.5 162h150q-24 -167 -119.5 -253.5t-247.5 -86.5q-148 0 -230.5 90.5t-57.5 249.5h139q-14 -105 26.5 -160t133.5 -55z" />
    <glyph glyph-name="dotaccent" unicode="&#x2d9;" horiz-adv-x="688" 
d="M504 1300q-51 0 -88 36t-37 85q0 51 37 87t88 36q50 0 87.5 -36.5t37.5 -86.5q0 -49 -37.5 -85t-87.5 -36z" />
    <glyph glyph-name="ring" unicode="&#x2da;" horiz-adv-x="688" 
d="M477 1139q-96 0 -163.5 61t-67.5 156q0 117 78 191.5t192 74.5q97 0 164.5 -62t67.5 -157q0 -117 -77.5 -190.5t-193.5 -73.5zM485 1243q66 0 106 44t40 108q0 55 -33.5 89t-89.5 34q-64 0 -103.5 -45t-39.5 -109q0 -54 32.5 -87.5t87.5 -33.5z" />
    <glyph glyph-name="ogonek" unicode="&#x2db;" horiz-adv-x="688" 
d="M2 -305q0 77 59.5 147.5t196.5 153.5l61 37l134 -33l-101 -63q-122 -83 -161 -127t-39 -95q0 -45 31.5 -69.5t82.5 -24.5q52 0 125 33l-22 -131q-60 -27 -131 -27q-112 0 -174 57.5t-62 141.5z" />
    <glyph glyph-name="tilde" unicode="&#x2dc;" horiz-adv-x="688" 
d="M244 1221h-129l12 84q15 104 69 162.5t138 58.5q47 0 88.5 -19.5t70.5 -47t54.5 -55.5t51.5 -47.5t50 -19.5q73 0 86 84l13 90h129l-13 -86q-15 -102 -69.5 -160.5t-137.5 -58.5q-48 0 -90 19.5t-71 47t-54.5 55.5t-52 47.5t-51.5 19.5q-33 0 -53.5 -22.5t-26.5 -61.5z
" />
    <glyph glyph-name="hungarumlaut" unicode="&#x2dd;" horiz-adv-x="688" 
d="M254 1196h-176l268 340h201zM618 1196h-174l267 340h200z" />
    <glyph glyph-name="gravecmb" unicode="&#x300;" horiz-adv-x="0" 
d="M39 1196l-174 340h188l148 -340h-162z" />
    <glyph glyph-name="acutecmb" unicode="&#x301;" horiz-adv-x="0" 
d="M205 1196h-176l268 340h203z" />
    <glyph glyph-name="circumflexcmb" unicode="&#x302;" horiz-adv-x="0" 
d="M-43 1196h-166l268 340h234l147 -340h-149l-123 254z" />
    <glyph glyph-name="tildecmb" unicode="&#x303;" horiz-adv-x="0" 
d="M-100 1221h-129l12 84q15 104 69 162.5t138 58.5q47 0 88.5 -19.5t70.5 -47t54.5 -55.5t51.5 -47.5t50 -19.5q73 0 86 84l12 90h129l-12 -86q-15 -102 -69.5 -160.5t-137.5 -58.5q-48 0 -90 19.5t-71 47t-54.5 55.5t-52 47.5t-51.5 19.5q-33 0 -53.5 -22.5t-26.5 -61.5z
" />
    <glyph glyph-name="macroncmb" unicode="&#x304;" horiz-adv-x="0" 
d="M-162 1350l23 133h620l-22 -133h-621z" />
    <glyph glyph-name="brevecmb" unicode="&#x306;" horiz-adv-x="0" 
d="M160 1321q88 0 138 53t69 162h149q-25 -167 -119.5 -253.5t-246.5 -86.5q-148 0 -231 90.5t-58 249.5h139q-14 -105 26.5 -160t133.5 -55z" />
    <glyph glyph-name="dotaccentcmb" unicode="&#x307;" horiz-adv-x="0" 
d="M168 1300q-51 0 -88 36t-37 85q0 51 37 87t88 36q50 0 87.5 -36.5t37.5 -86.5q0 -49 -37.5 -85t-87.5 -36z" />
    <glyph glyph-name="dieresiscmb" unicode="&#x308;" horiz-adv-x="0" 
d="M-35 1315q-47 0 -82 34t-35 81t34.5 80.5t82.5 33.5t82.5 -33.5t34.5 -80.5t-35 -81t-82 -34zM358 1315q-47 0 -81.5 34t-34.5 81t34.5 80.5t81.5 33.5q46 0 81.5 -33.5t35.5 -80.5t-35.5 -81t-81.5 -34z" />
    <glyph glyph-name="hookabovecmb" unicode="&#x309;" horiz-adv-x="0" 
d="M72 1135l-4 114q101 15 143.5 44t42.5 81q0 37 -25 59.5t-71 22.5q-71 0 -156 -63l-59 96q103 86 229 86q95 0 153.5 -49.5t59.5 -136.5q0 -215 -313 -254z" />
    <glyph glyph-name="ringabovecmb" unicode="&#x30a;" horiz-adv-x="0" 
d="M133 1139q-96 0 -163.5 61t-67.5 156q0 117 78 191.5t192 74.5q97 0 164 -62t67 -157q0 -117 -77 -190.5t-193 -73.5zM141 1243q66 0 106 44t40 108q0 55 -33.5 89t-89.5 34q-64 0 -104 -45t-40 -109q0 -54 33 -87.5t88 -33.5z" />
    <glyph glyph-name="hungarumlautcmb" unicode="&#x30b;" horiz-adv-x="0" 
d="M12 1196h-176l268 340h201zM377 1196h-174l266 340h201z" />
    <glyph glyph-name="caroncmb" unicode="&#x30c;" horiz-adv-x="0" 
d="M12 1536l121 -254l211 254h168l-268 -340h-236l-147 340h151z" />
    <glyph glyph-name="verticallineabovecmb" unicode="&#x30d;" horiz-adv-x="0" 
d="M115 1536h131l-60 -340h-131z" />
    <glyph glyph-name="commaturnedabovecmb" unicode="&#x312;" horiz-adv-x="0" 
d="M307 1536h176l-266 -340h-203z" />
    <glyph glyph-name="horncmb" unicode="&#x31b;" horiz-adv-x="0" 
d="M63 922h-108l-33 110h133q92 0 136.5 48t44.5 112q0 54 -46 106l109 80q78 -82 78 -182q0 -119 -84.5 -196.5t-229.5 -77.5z" />
    <glyph glyph-name="dotbelowcmb" unicode="&#x323;" horiz-adv-x="0" 
d="M-158 -512q-53 0 -89 35t-36 86t36.5 87t88.5 36q50 0 85.5 -36t35.5 -87t-35.5 -86t-85.5 -35z" />
    <glyph glyph-name="commaaccentbelowcmb" unicode="&#x326;" horiz-adv-x="0" 
d="M-303 -504h-176l266 340h203z" />
    <glyph glyph-name="cedillacmb" unicode="&#x327;" horiz-adv-x="0" 
d="M-106 16l131 -10l-131 -139q80 -1 133 -51t53 -119q0 -89 -66 -147t-172 -58q-133 0 -215 82l80 90q53 -63 131 -63q47 0 76 23.5t29 66.5q0 35 -26 58.5t-69 23.5q-35 0 -79 -19l-52 74z" />
    <glyph glyph-name="ogonekcmb" unicode="&#x328;" horiz-adv-x="0" 
d="M-539 -305q0 77 59.5 147.5t196.5 153.5l62 37l133 -33l-100 -63q-122 -83 -161.5 -127.5t-39.5 -94.5q0 -45 32 -69.5t83 -24.5t124 33l-22 -131q-60 -27 -131 -27q-112 0 -174 57.5t-62 141.5z" />
    <glyph glyph-name="verticallinebelowcmb" unicode="&#x329;" horiz-adv-x="0" 
d="M-186 -164h133l-60 -340h-133z" />
    <glyph glyph-name="belowbrevecmb" unicode="&#x32e;" horiz-adv-x="0" 
d="M-147 -379q88 0 137.5 53t68.5 162h150q-25 -167 -119 -253.5t-246 -86.5q-150 0 -232.5 90.5t-57.5 249.5h139q-12 -105 28 -160t132 -55z" />
    <glyph glyph-name="macronbelowcmb" unicode="&#x331;" horiz-adv-x="0" 
d="M-477 -469l22 133h621l-23 -133h-620z" />
    <glyph glyph-name="halfleftringabovecmb" unicode="&#x351;" horiz-adv-x="0" 
d="M322 1620l-19 -104q-72 1 -115 -42t-43 -106q0 -54 30 -88t81 -39l-18 -102q-89 8 -149 69t-60 158q0 115 81 185.5t212 68.5z" />
    <glyph glyph-name="halfrightringabovecmb" unicode="&#x357;" horiz-adv-x="0" 
d="M29 1141l18 104q73 0 115.5 42.5t42.5 105.5q0 55 -30 88.5t-81 38.5l19 102q89 -8 149 -69t60 -158q0 -115 -81 -185.5t-212 -68.5z" />
    <glyph glyph-name="Ddotbelow" unicode="&#x1e0c;" horiz-adv-x="1589" 
d="M129 0l254 1434h430q328 0 524.5 -174.5t196.5 -468.5q0 -124 -37 -240.5t-111 -216t-175 -174.5t-238 -117.5t-293 -42.5h-551zM813 1257h-268l-193 -1081h328q147 0 271.5 48.5t207 131.5t128.5 193t46 233q0 216 -139.5 345.5t-380.5 129.5zM637 -512q-53 0 -89 35
t-36 86t36.5 87t88.5 36q50 0 85.5 -36t35.5 -87t-35.5 -86t-85.5 -35z" />
    <glyph glyph-name="ddotbelow" unicode="&#x1e0d;" horiz-adv-x="1308" 
d="M84 442q0 169 72 312.5t206 231t300 87.5q114 0 209.5 -44t158.5 -126l111 633h174l-271 -1536h-174l19 104q-154 -145 -344 -145q-218 0 -339.5 133.5t-121.5 349.5zM268 453q0 -144 87 -237t235 -93q97 0 184 44t150 130l69 401q-43 100 -125.5 155.5t-193.5 55.5
q-177 0 -291.5 -131t-114.5 -325zM496 -512q-53 0 -89 35t-36 86t36.5 87t88.5 36q50 0 85 -36t35 -87t-35 -86t-85 -35z" />
    <glyph glyph-name="Dlinebelow" unicode="&#x1e0e;" horiz-adv-x="1589" 
d="M129 0l254 1434h430q328 0 524.5 -174.5t196.5 -468.5q0 -124 -37 -240.5t-111 -216t-175 -174.5t-238 -117.5t-293 -42.5h-551zM813 1257h-268l-193 -1081h328q147 0 271.5 48.5t207 131.5t128.5 193t46 233q0 216 -139.5 345.5t-380.5 129.5zM317 -469l23 133h621
l-23 -133h-621z" />
    <glyph glyph-name="dlinebelow" unicode="&#x1e0f;" horiz-adv-x="1308" 
d="M84 442q0 169 72 312.5t206 231t300 87.5q114 0 209.5 -44t158.5 -126l111 633h174l-271 -1536h-174l19 104q-154 -145 -344 -145q-218 0 -339.5 133.5t-121.5 349.5zM268 453q0 -144 87 -237t235 -93q97 0 184 44t150 130l69 401q-43 100 -125.5 155.5t-193.5 55.5
q-177 0 -291.5 -131t-114.5 -325zM176 -469l23 133h620l-22 -133h-621z" />
    <glyph glyph-name="Dcedilla" unicode="&#x1e10;" horiz-adv-x="1589" 
d="M129 0l254 1434h430q328 0 524.5 -174.5t196.5 -468.5q0 -124 -37 -240.5t-111 -216t-175 -174.5t-238 -117.5t-293 -42.5h-551zM813 1257h-268l-193 -1081h328q147 0 271.5 48.5t207 131.5t128.5 193t46 233q0 216 -139.5 345.5t-380.5 129.5zM492 -504h-177l267 340
h202z" />
    <glyph glyph-name="dcedilla" unicode="&#x1e11;" horiz-adv-x="1308" 
d="M84 442q0 169 72 312.5t206 231t300 87.5q114 0 209.5 -44t158.5 -126l111 633h174l-271 -1536h-174l19 104q-154 -145 -344 -145q-218 0 -339.5 133.5t-121.5 349.5zM268 453q0 -144 87 -237t235 -93q97 0 184 44t150 130l69 401q-43 100 -125.5 155.5t-193.5 55.5
q-177 0 -291.5 -131t-114.5 -325zM350 -504h-176l266 340h203z" />
    <glyph glyph-name="Gmacron" unicode="&#x1e20;" horiz-adv-x="1605" 
d="M676 1657l22 131h621l-23 -131h-620zM784 -41q-193 0 -343.5 85.5t-233 237t-82.5 343.5q0 169 60.5 324t167 271t261.5 185.5t334 69.5q199 0 345.5 -85t230.5 -225l-168 -108q-57 106 -167 170.5t-251 64.5q-175 0 -316 -88.5t-218.5 -238t-77.5 -328.5
q0 -137 55.5 -249.5t163.5 -180.5t248 -68q244 0 434 164l61 344h-401l28 166h594l-104 -592q-114 -120 -274.5 -191t-346.5 -71z" />
    <glyph glyph-name="gmacron" unicode="&#x1e21;" horiz-adv-x="1105" 
d="M330 1350l22 133h621l-23 -133h-620zM-63 -211q0 181 206 293q-53 53 -53 125q0 131 168 223q-106 92 -106 246q0 78 29 149t82.5 127t136.5 89.5t182 33.5q110 0 194 -43h393l-28 -151h-221q26 -59 26 -136q0 -78 -29 -150t-81.5 -128t-134.5 -89.5t-181 -33.5
q-90 0 -158 27q-104 -60 -104 -125q0 -62 74 -62h254q187 0 278.5 -81.5t91.5 -217.5q0 -171 -148 -284t-409 -113q-229 0 -345.5 80t-116.5 221zM782 741q0 83 -54.5 140t-145.5 57q-123 0 -194 -76.5t-71 -183.5q0 -85 54 -141t149 -56q119 0 190.5 76.5t71.5 183.5z
M111 -188q0 -179 295 -179q184 0 278 66t94 172q0 160 -205 160h-297q-80 -39 -122.5 -99.5t-42.5 -119.5z" />
    <glyph glyph-name="Hdotbelow" unicode="&#x1e24;" horiz-adv-x="1658" 
d="M129 0l254 1434h192l-108 -617h836l108 617h193l-254 -1434h-193l115 643h-836l-114 -643h-193zM672 -512q-53 0 -89 35t-36 86t36.5 87t88.5 36q50 0 85.5 -36t35.5 -87t-35.5 -86t-85.5 -35z" />
    <glyph glyph-name="hdotbelow" unicode="&#x1e25;" horiz-adv-x="1232" 
d="M86 0l270 1536h174l-108 -612q156 149 340 149t276.5 -117t55.5 -331l-111 -625h-174l109 618q25 137 -31 214t-176 77q-97 0 -180.5 -51.5t-143.5 -142.5v2l-127 -717h-174zM471 -512q-53 0 -89 35t-36 86t36.5 87t88.5 36q50 0 85.5 -36t35.5 -87t-35.5 -86t-85.5 -35z
" />
    <glyph glyph-name="Hcedilla" unicode="&#x1e28;" horiz-adv-x="1658" 
d="M129 0l254 1434h192l-108 -617h836l108 617h193l-254 -1434h-193l115 643h-836l-114 -643h-193zM526 -504h-176l266 340h203z" />
    <glyph glyph-name="hcedilla" unicode="&#x1e29;" horiz-adv-x="1232" 
d="M86 0l270 1536h174l-108 -612q156 149 340 149t276.5 -117t55.5 -331l-111 -625h-174l109 618q25 137 -31 214t-176 77q-97 0 -180.5 -51.5t-143.5 -142.5v2l-127 -717h-174zM326 -504h-176l266 340h202z" />
    <glyph glyph-name="Hbrevebelow" unicode="&#x1e2a;" horiz-adv-x="1658" 
d="M129 0l254 1434h192l-108 -617h836l108 617h193l-254 -1434h-193l115 643h-836l-114 -643h-193zM682 -379q88 0 138 53t69 162h149q-25 -167 -118.5 -253.5t-245.5 -86.5q-150 0 -233 90.5t-58 249.5h139q-12 -105 28 -160t132 -55z" />
    <glyph glyph-name="hbrevebelow" unicode="&#x1e2b;" horiz-adv-x="1232" 
d="M86 0l270 1536h174l-108 -612q156 149 340 149t276.5 -117t55.5 -331l-111 -625h-174l109 618q25 137 -31 214t-176 77q-97 0 -180.5 -51.5t-143.5 -142.5v2l-127 -717h-174zM481 -379q88 0 138 53t69 162h150q-25 -167 -119 -253.5t-246 -86.5q-150 0 -233 90.5
t-58 249.5h140q-12 -105 28 -160t131 -55z" />
    <glyph glyph-name="Kdotbelow" unicode="&#x1e32;" horiz-adv-x="1435" 
d="M129 0l254 1434h192l-126 -713l827 713h254l-694 -598l456 -836h-225l-377 711l-287 -248l-81 -463h-193zM614 -512q-53 0 -89 35t-36 86t36.5 87t88.5 36q50 0 85.5 -36t35.5 -87t-35.5 -86t-85.5 -35z" />
    <glyph glyph-name="kdotbelow" unicode="&#x1e33;" horiz-adv-x="1085" 
d="M90 0l268 1536h177l-173 -983l539 479h232l-492 -434l320 -598h-197l-254 481l-191 -168l-55 -313h-174zM453 -512q-53 0 -89 35t-36 86t36.5 87t88.5 36q50 0 85 -36t35 -87t-35 -86t-85 -35z" />
    <glyph glyph-name="Klinebelow" unicode="&#x1e34;" horiz-adv-x="1435" 
d="M129 0l254 1434h192l-126 -713l827 713h254l-694 -598l456 -836h-225l-377 711l-287 -248l-81 -463h-193zM295 -469l22 133h621l-23 -133h-620z" />
    <glyph glyph-name="klinebelow" unicode="&#x1e35;" horiz-adv-x="1085" 
d="M90 0l268 1536h177l-173 -983l539 479h232l-492 -434l320 -598h-197l-254 481l-191 -168l-55 -313h-174zM133 -469l23 133h620l-22 -133h-621z" />
    <glyph glyph-name="Mdotbelow" unicode="&#x1e42;" horiz-adv-x="1767" 
d="M129 0l254 1434h238l292 -713l543 713h256l-252 -1434h-192l207 1169l-521 -677h-145l-281 677l-206 -1169h-193zM735 -512q-53 0 -89 35t-36 86t36.5 87t88.5 36q50 0 85.5 -36t35.5 -87t-35.5 -86t-85.5 -35z" />
    <glyph glyph-name="mdotbelow" unicode="&#x1e43;" horiz-adv-x="1873" 
d="M88 0l180 1032h174l-18 -106q144 147 317 147q112 0 191 -50t112 -146q168 196 379 196q173 0 262 -116t52 -322l-111 -635h-176l111 629q24 135 -28 207.5t-161 72.5q-167 0 -309 -200q0 -24 -8 -74l-113 -635h-174l111 629q24 135 -28 207.5t-161 72.5
q-171 0 -303 -194l-127 -715h-172zM778 -512q-53 0 -89 35t-36 86t36.5 87t88.5 36q50 0 85.5 -36t35.5 -87t-35.5 -86t-85.5 -35z" />
    <glyph glyph-name="Ndotbelow" unicode="&#x1e46;" horiz-adv-x="1658" 
d="M129 0l254 1434h246l569 -1207l213 1207h193l-254 -1434h-248l-567 1202l-213 -1202h-193zM680 -512q-53 0 -89 35t-36 86t36.5 87t88.5 36q50 0 85.5 -36t35.5 -87t-35.5 -86t-85.5 -35z" />
    <glyph glyph-name="ndotbelow" unicode="&#x1e47;" horiz-adv-x="1232" 
d="M86 0l182 1032h174l-18 -108q149 149 338 149q184 0 276.5 -117t55.5 -331l-111 -625h-174l111 618q24 137 -32.5 214t-176.5 77q-97 0 -180.5 -51.5t-143.5 -142.5l-127 -715h-174zM479 -512q-53 0 -89 35t-36 86t36.5 87t88.5 36q50 0 85.5 -36t35.5 -87t-35.5 -86
t-85.5 -35z" />
    <glyph glyph-name="Rdotbelow" unicode="&#x1e5a;" horiz-adv-x="1275" 
d="M129 0l254 1434h334q202 0 316 -96t114 -273q0 -145 -84.5 -254.5t-231.5 -155.5l343 -655h-216l-307 629h-219l-110 -629h-193zM707 1270h-160l-84 -477h176q141 0 223 72.5t82 193.5q0 104 -61 157.5t-176 53.5zM551 -512q-53 0 -89 35t-36 86t36.5 87t88.5 36
q50 0 85.5 -36t35.5 -87t-35.5 -86t-85.5 -35z" />
    <glyph glyph-name="rdotbelow" unicode="&#x1e5b;" horiz-adv-x="790" 
d="M86 0l182 1032h174l-24 -137q68 78 140.5 118t168.5 40q50 0 94 -13l-30 -170q-63 13 -93 13q-94 0 -170 -50.5t-145 -140.5l-123 -692h-174zM104 -512q-52 0 -88 35t-36 86t36 87t88 36q50 0 85.5 -36t35.5 -87t-35.5 -86t-85.5 -35z" />
    <glyph glyph-name="Sdotbelow" unicode="&#x1e62;" horiz-adv-x="1167" 
d="M483 1087q0 -60 29 -110t75 -87t101.5 -73.5t111.5 -77t102 -87t75 -115.5t29 -152q0 -183 -129.5 -304.5t-335.5 -121.5q-308 0 -467 246l149 114q130 -188 322 -188q117 0 189.5 69.5t72.5 170.5q0 60 -29 111t-75 89t-102 74.5t-112 77t-102 87t-75 115t-29 150.5
q0 164 127 282t317 118q284 0 424 -240l-152 -113q-98 181 -280 181q-100 0 -168 -63.5t-68 -152.5zM438 -512q-53 0 -89 35t-36 86t36.5 87t88.5 36q50 0 85.5 -36t35.5 -87t-35.5 -86t-85.5 -35z" />
    <glyph glyph-name="sdotbelow" unicode="&#x1e63;" horiz-adv-x="876" 
d="M338 774q0 -42 22.5 -76t58.5 -58.5t79 -48t86.5 -51t79.5 -60.5t58.5 -83.5t22.5 -113.5q0 -131 -98.5 -227.5t-259.5 -96.5q-120 0 -217.5 52t-157.5 149l131 98q98 -154 252 -154q80 0 130 48.5t50 121.5q0 42 -22.5 76t-58.5 58.5t-79 48t-86.5 51t-79.5 60.5
t-58.5 84t-22.5 114q0 127 99 217t253 90q112 0 200 -51.5t132 -136.5l-133 -94q-69 137 -203 137q-76 0 -127 -46t-51 -108zM293 -512q-53 0 -89 35t-36 86t36.5 87t88.5 36q50 0 85.5 -36t35.5 -87t-35.5 -86t-85.5 -35z" />
    <glyph glyph-name="Tdotbelow" unicode="&#x1e6c;" horiz-adv-x="1251" 
d="M201 1257l30 177h1110l-30 -177h-459l-221 -1257h-193l221 1257h-458zM463 -512q-53 0 -89 35t-36 86t36.5 87t88.5 36q50 0 85.5 -36t35.5 -87t-35.5 -86t-85.5 -35z" />
    <glyph glyph-name="tdotbelow" unicode="&#x1e6d;" horiz-adv-x="835" 
d="M209 373l90 501h-188l28 158h189l45 258h176l-45 -258h344l-27 -158h-346l-92 -514q-22 -124 20.5 -172.5t141.5 -48.5q76 0 151 27l-26 -156q-82 -30 -168 -30q-362 0 -293 393zM342 -512q-53 0 -89 35t-36 86t36.5 87t88.5 36q50 0 85.5 -36t35.5 -87t-35.5 -86
t-85.5 -35z" />
    <glyph glyph-name="Tlinebelow" unicode="&#x1e6e;" horiz-adv-x="1251" 
d="M201 1257l30 177h1110l-30 -177h-459l-221 -1257h-193l221 1257h-458zM143 -469l23 133h620l-22 -133h-621z" />
    <glyph glyph-name="tlinebelow" unicode="&#x1e6f;" horiz-adv-x="835" 
d="M209 373l90 501h-188l28 158h189l45 258h176l-45 -258h344l-27 -158h-346l-92 -514q-22 -124 20.5 -172.5t141.5 -48.5q76 0 151 27l-26 -156q-82 -30 -168 -30q-362 0 -293 393zM23 -469l22 133h621l-23 -133h-620z" />
    <glyph glyph-name="Wgrave" unicode="&#x1e80;" horiz-adv-x="2068" 
d="M1139 1556l-205 277h201l176 -277h-172zM227 1434h193l82 -1213l561 1213h258l131 -1213l510 1213h205l-608 -1434h-265l-137 1225l-567 -1225h-258z" />
    <glyph glyph-name="wgrave" unicode="&#x1e81;" horiz-adv-x="1597" 
d="M838 1196l-174 340h188l147 -340h-161zM160 1032h168l55 -856l381 856h237l80 -852l359 852h180l-432 -1032h-246l-82 877l-391 -877h-240z" />
    <glyph glyph-name="Wacute" unicode="&#x1e82;" horiz-adv-x="2068" 
d="M1313 1556h-185l273 277h215zM227 1434h193l82 -1213l561 1213h258l131 -1213l510 1213h205l-608 -1434h-265l-137 1225l-567 -1225h-258z" />
    <glyph glyph-name="wacute" unicode="&#x1e83;" horiz-adv-x="1597" 
d="M1004 1196h-177l269 340h202zM160 1032h168l55 -856l381 856h237l80 -852l359 852h180l-432 -1032h-246l-82 877l-391 -877h-240z" />
    <glyph glyph-name="Wdieresis" unicode="&#x1e84;" horiz-adv-x="2068" 
d="M1053 1616q-46 0 -78.5 31.5t-32.5 76.5q0 44 32.5 76.5t78.5 32.5q44 0 77 -32.5t33 -76.5q0 -45 -32.5 -76.5t-77.5 -31.5zM1444 1616q-46 0 -79.5 31.5t-33.5 76.5q0 44 33.5 76.5t79.5 32.5q44 0 77 -32.5t33 -76.5q0 -45 -32.5 -76.5t-77.5 -31.5zM227 1434h193
l82 -1213l561 1213h258l131 -1213l510 1213h205l-608 -1434h-265l-137 1225l-567 -1225h-258z" />
    <glyph glyph-name="wdieresis" unicode="&#x1e85;" horiz-adv-x="1597" 
d="M764 1315q-47 0 -82 34t-35 81t34.5 80.5t82.5 33.5t82.5 -33.5t34.5 -80.5t-35 -81t-82 -34zM1157 1315q-47 0 -82 34t-35 81t34.5 80.5t82.5 33.5q46 0 81.5 -33.5t35.5 -80.5t-35.5 -81t-81.5 -34zM160 1032h168l55 -856l381 856h237l80 -852l359 852h180l-432 -1032
h-246l-82 877l-391 -877h-240z" />
    <glyph glyph-name="Zdotbelow" unicode="&#x1e92;" horiz-adv-x="1329" 
d="M18 0l31 176l1034 1081h-823l31 177h1071l-31 -177l-1032 -1081h862l-31 -176h-1112zM518 -512q-53 0 -89 35t-36 86t36.5 87t88.5 36q50 0 85.5 -36t35.5 -87t-35.5 -86t-85.5 -35z" />
    <glyph glyph-name="zdotbelow" unicode="&#x1e93;" horiz-adv-x="1005" 
d="M8 0l29 158l706 716h-567l29 158h782l-26 -158l-709 -716h596l-29 -158h-811zM346 -512q-53 0 -89 35t-36 86t36.5 87t88.5 36q50 0 85.5 -36t35.5 -87t-35.5 -86t-85.5 -35z" />
    <glyph glyph-name="hlinebelow" unicode="&#x1e96;" horiz-adv-x="1232" 
d="M86 0l270 1536h174l-108 -612q156 149 340 149t276.5 -117t55.5 -331l-111 -625h-174l109 618q25 137 -31 214t-176 77q-97 0 -180.5 -51.5t-143.5 -142.5v2l-127 -717h-174zM152 -469l22 133h621l-23 -133h-620z" />
    <glyph glyph-name="tdieresis" unicode="&#x1e97;" horiz-adv-x="835" 
d="M322 1511q-47 0 -82 34t-35 81t35 81t82 34t81.5 -34t34.5 -81t-34.5 -81t-81.5 -34zM715 1511q-47 0 -82 34t-35 81t35 81t82 34q46 0 81 -34t35 -81t-35 -81t-81 -34zM209 373l90 501h-188l28 158h189l45 258h176l-45 -258h344l-27 -158h-346l-92 -514
q-22 -124 20.5 -172.5t141.5 -48.5q76 0 151 27l-26 -156q-82 -30 -168 -30q-362 0 -293 393z" />
    <glyph glyph-name="Germandbls" unicode="&#x1e9e;" horiz-adv-x="1570" 
d="M129 0l254 1434h1151l-33 -177l-448 -440q180 -22 288.5 -126t108.5 -271q0 -203 -135 -332t-348 -129q-149 0 -269.5 56.5t-195.5 168.5l143 121q60 -87 145 -130.5t173 -43.5q130 0 209 76t79 201q0 121 -85.5 186t-223.5 65h-158l27 164l444 434h-710l-223 -1257h-193
z" />
    <glyph glyph-name="Adotbelow" unicode="&#x1ea0;" horiz-adv-x="1466" 
d="M-39 0l807 1434h256l301 -1434h-199l-84 422h-636l-234 -422h-211zM498 588h512l-136 676zM592 -512q-53 0 -89 35t-36 86t36.5 87t88.5 36q50 0 85.5 -36t35.5 -87t-35.5 -86t-85.5 -35z" />
    <glyph glyph-name="adotbelow" unicode="&#x1ea1;" horiz-adv-x="1116" 
d="M383 -29q-142 0 -228.5 70t-86.5 195q0 127 91.5 211t272.5 116l371 62l10 59q19 109 -36 171.5t-165 62.5q-164 0 -293 -146l-124 105q74 89 185.5 142.5t242.5 53.5q204 0 298 -114.5t60 -307.5l-117 -651h-172l21 113q-129 -142 -330 -142zM248 254q0 -64 45.5 -101.5
t128.5 -37.5q193 0 319 168l39 211l-311 -54q-111 -18 -166 -66t-55 -120zM399 -512q-53 0 -89 35t-36 86t36.5 87t88.5 36q50 0 85.5 -36t35.5 -87t-35.5 -86t-85.5 -35z" />
    <glyph glyph-name="Ahoi" unicode="&#x1ea2;" horiz-adv-x="1466" 
d="M870 1503l-6 115q100 15 142.5 42t42.5 75q0 33 -25 54t-70 21q-72 0 -157 -63l-60 98q107 86 228 86q96 0 155.5 -50.5t59.5 -135.5q0 -205 -310 -242zM-39 0l807 1434h256l301 -1434h-199l-84 422h-636l-234 -422h-211zM498 588h512l-136 676z" />
    <glyph glyph-name="ahoi" unicode="&#x1ea3;" horiz-adv-x="1116" 
d="M631 1135l-4 114q101 15 143.5 44t42.5 81q0 37 -25 59.5t-71 22.5q-71 0 -156 -63l-59 96q103 86 229 86q95 0 153.5 -49.5t59.5 -136.5q0 -215 -313 -254zM383 -29q-142 0 -228.5 70t-86.5 195q0 127 91.5 211t272.5 116l371 62l10 59q19 109 -36 171.5t-165 62.5
q-164 0 -293 -146l-124 105q74 89 185.5 142.5t242.5 53.5q204 0 298 -114.5t60 -307.5l-117 -651h-172l21 113q-129 -142 -330 -142zM248 254q0 -64 45.5 -101.5t128.5 -37.5q193 0 319 168l39 211l-311 -54q-111 -18 -166 -66t-55 -120z" />
    <glyph glyph-name="Acircumflexacute" unicode="&#x1ea4;" horiz-adv-x="1466" 
d="M1358 1765h-176l280 277h207zM754 1556h-166l272 277h213l174 -277h-147l-139 189zM-39 0l807 1434h256l301 -1434h-199l-84 422h-636l-234 -422h-211zM498 588h512l-136 676z" />
    <glyph glyph-name="acircumflexacute" unicode="&#x1ea5;" horiz-adv-x="1116" 
d="M1112 1364h-176l281 276h206zM510 1155h-166l272 277h213l175 -277h-148l-139 188zM383 -29q-142 0 -228.5 70t-86.5 195q0 127 91.5 211t272.5 116l371 62l10 59q19 109 -36 171.5t-165 62.5q-164 0 -293 -146l-124 105q74 89 185.5 142.5t242.5 53.5q204 0 298 -114.5
t60 -307.5l-117 -651h-172l21 113q-129 -142 -330 -142zM248 254q0 -64 45.5 -101.5t128.5 -37.5q193 0 319 168l39 211l-311 -54q-111 -18 -166 -66t-55 -120z" />
    <glyph glyph-name="Acircumflexgrave" unicode="&#x1ea6;" horiz-adv-x="1466" 
d="M1260 1765l-213 277h194l182 -277h-163zM754 1556h-166l272 277h213l174 -277h-147l-139 189zM-39 0l807 1434h256l301 -1434h-199l-84 422h-636l-234 -422h-211zM498 588h512l-136 676z" />
    <glyph glyph-name="acircumflexgrave" unicode="&#x1ea7;" horiz-adv-x="1116" 
d="M1014 1364l-213 276h194l183 -276h-164zM510 1155h-166l272 277h213l175 -277h-148l-139 188zM383 -29q-142 0 -228.5 70t-86.5 195q0 127 91.5 211t272.5 116l371 62l10 59q19 109 -36 171.5t-165 62.5q-164 0 -293 -146l-124 105q74 89 185.5 142.5t242.5 53.5
q204 0 298 -114.5t60 -307.5l-117 -651h-172l21 113q-129 -142 -330 -142zM248 254q0 -64 45.5 -101.5t128.5 -37.5q193 0 319 168l39 211l-311 -54q-111 -18 -166 -66t-55 -120z" />
    <glyph glyph-name="Acircumflexhoi" unicode="&#x1ea8;" horiz-adv-x="1466" 
d="M1239 1724l-10 103q78 10 110.5 32.5t32.5 59.5q0 24 -20 39.5t-54 15.5q-61 0 -118 -47l-56 82q34 33 83.5 52.5t101.5 19.5q79 0 129.5 -41.5t50.5 -112.5q0 -168 -250 -203zM754 1556h-166l272 277h213l174 -277h-147l-139 189zM-39 0l807 1434h256l301 -1434h-199
l-84 422h-636l-234 -422h-211zM498 588h512l-136 676z" />
    <glyph glyph-name="acircumflexhoi" unicode="&#x1ea9;" horiz-adv-x="1116" 
d="M993 1323l-10 102q78 10 110.5 33t32.5 60q0 24 -19.5 39.5t-53.5 15.5q-62 0 -119 -47l-55 82q74 71 184 71q80 0 130 -41t50 -112q0 -168 -250 -203zM510 1155h-166l272 277h213l175 -277h-148l-139 188zM383 -29q-142 0 -228.5 70t-86.5 195q0 127 91.5 211t272.5 116
l371 62l10 59q19 109 -36 171.5t-165 62.5q-164 0 -293 -146l-124 105q74 89 185.5 142.5t242.5 53.5q204 0 298 -114.5t60 -307.5l-117 -651h-172l21 113q-129 -142 -330 -142zM248 254q0 -64 45.5 -101.5t128.5 -37.5q193 0 319 168l39 211l-311 -54q-111 -18 -166 -66
t-55 -120z" />
    <glyph glyph-name="Acircumflextilde" unicode="&#x1eaa;" horiz-adv-x="1466" 
d="M649 1907l15 80q12 89 64.5 140.5t127.5 51.5q49 0 88 -17.5t63.5 -42.5t44.5 -50t41 -42.5t44 -17.5q51 0 67 78l13 72h135l-15 -80q-12 -89 -65.5 -141t-128.5 -52q-49 0 -88.5 17.5t-64.5 42.5t-45.5 50t-41 42.5t-41.5 17.5q-52 0 -65 -78l-13 -71h-135zM754 1556
h-166l272 277h213l174 -277h-147l-139 189zM-39 0l807 1434h256l301 -1434h-199l-84 422h-636l-234 -422h-211zM498 588h512l-136 676z" />
    <glyph glyph-name="acircumflextilde" unicode="&#x1eab;" horiz-adv-x="1116" 
d="M406 1505l14 80q12 89 64.5 141t127.5 52q49 0 88 -17.5t63.5 -42.5t44.5 -50t41 -42.5t44 -17.5q52 0 68 78l12 71h135l-14 -80q-12 -89 -66 -140.5t-129 -51.5q-49 0 -88.5 17.5t-64.5 42.5t-45.5 50t-41 42.5t-41.5 17.5q-52 0 -65 -78l-12 -72h-135zM510 1155h-166
l272 277h213l175 -277h-148l-139 188zM383 -29q-142 0 -228.5 70t-86.5 195q0 127 91.5 211t272.5 116l371 62l10 59q19 109 -36 171.5t-165 62.5q-164 0 -293 -146l-124 105q74 89 185.5 142.5t242.5 53.5q204 0 298 -114.5t60 -307.5l-117 -651h-172l21 113
q-129 -142 -330 -142zM248 254q0 -64 45.5 -101.5t128.5 -37.5q193 0 319 168l39 211l-311 -54q-111 -18 -166 -66t-55 -120z" />
    <glyph glyph-name="Acircumflexdotbelow" unicode="&#x1eac;" horiz-adv-x="1466" 
d="M754 1556h-166l272 277h213l174 -277h-147l-139 189zM-39 0l807 1434h256l301 -1434h-199l-84 422h-636l-234 -422h-211zM498 588h512l-136 676zM592 -512q-53 0 -89 35t-36 86t36.5 87t88.5 36q50 0 85.5 -36t35.5 -87t-35.5 -86t-85.5 -35z" />
    <glyph glyph-name="acircumflexdotbelow" unicode="&#x1ead;" horiz-adv-x="1116" 
d="M516 1196h-166l268 340h234l147 -340h-149l-123 254zM383 -29q-142 0 -228.5 70t-86.5 195q0 127 91.5 211t272.5 116l371 62l10 59q19 109 -36 171.5t-165 62.5q-164 0 -293 -146l-124 105q74 89 185.5 142.5t242.5 53.5q204 0 298 -114.5t60 -307.5l-117 -651h-172
l21 113q-129 -142 -330 -142zM248 254q0 -64 45.5 -101.5t128.5 -37.5q193 0 319 168l39 211l-311 -54q-111 -18 -166 -66t-55 -120zM399 -512q-53 0 -89 35t-36 86t36.5 87t88.5 36q50 0 85.5 -36t35.5 -87t-35.5 -86t-85.5 -35z" />
    <glyph glyph-name="Abreveacute" unicode="&#x1eae;" horiz-adv-x="1466" 
d="M1071 1894h-184l272 277h215zM944 1661q165 0 205 172h151q-24 -145 -120 -221t-240 -76q-156 0 -242 78t-63 219h137q-15 -172 172 -172zM-39 0l807 1434h256l301 -1434h-199l-84 422h-636l-234 -422h-211zM498 588h512l-136 676z" />
    <glyph glyph-name="abreveacute" unicode="&#x1eaf;" horiz-adv-x="1116" 
d="M827 1493h-184l272 276h215zM700 1260q165 0 205 172h152q-24 -145 -120.5 -221t-240.5 -76q-156 0 -242 78t-63 219h137q-15 -172 172 -172zM383 -29q-142 0 -228.5 70t-86.5 195q0 127 91.5 211t272.5 116l371 62l10 59q19 109 -36 171.5t-165 62.5q-164 0 -293 -146
l-124 105q74 89 185.5 142.5t242.5 53.5q204 0 298 -114.5t60 -307.5l-117 -651h-172l21 113q-129 -142 -330 -142zM248 254q0 -64 45.5 -101.5t128.5 -37.5q193 0 319 168l39 211l-311 -54q-111 -18 -166 -66t-55 -120z" />
    <glyph glyph-name="Abrevegrave" unicode="&#x1eb0;" horiz-adv-x="1466" 
d="M897 1894l-205 277h201l176 -277h-172zM944 1661q165 0 205 172h151q-24 -145 -120 -221t-240 -76q-156 0 -242 78t-63 219h137q-15 -172 172 -172zM-39 0l807 1434h256l301 -1434h-199l-84 422h-636l-234 -422h-211zM498 588h512l-136 676z" />
    <glyph glyph-name="abrevegrave" unicode="&#x1eb1;" horiz-adv-x="1116" 
d="M653 1493l-204 276h200l176 -276h-172zM700 1260q165 0 205 172h152q-24 -145 -120.5 -221t-240.5 -76q-156 0 -242 78t-63 219h137q-15 -172 172 -172zM383 -29q-142 0 -228.5 70t-86.5 195q0 127 91.5 211t272.5 116l371 62l10 59q19 109 -36 171.5t-165 62.5
q-164 0 -293 -146l-124 105q74 89 185.5 142.5t242.5 53.5q204 0 298 -114.5t60 -307.5l-117 -651h-172l21 113q-129 -142 -330 -142zM248 254q0 -64 45.5 -101.5t128.5 -37.5q193 0 319 168l39 211l-311 -54q-111 -18 -166 -66t-55 -120z" />
    <glyph glyph-name="Abrevehoi" unicode="&#x1eb2;" horiz-adv-x="1466" 
d="M930 1841l-6 115q100 15 142 42t42 75q0 33 -24.5 54t-69.5 21q-73 0 -158 -63l-59 98q107 86 227 86q96 0 155.5 -50.5t59.5 -135.5q0 -205 -309 -242zM944 1661q165 0 205 172h151q-24 -145 -120 -221t-240 -76q-156 0 -242 78t-63 219h137q-15 -172 172 -172zM-39 0
l807 1434h256l301 -1434h-199l-84 422h-636l-234 -422h-211zM498 588h512l-136 676z" />
    <glyph glyph-name="abrevehoi" unicode="&#x1eb3;" horiz-adv-x="1116" 
d="M684 1440l-6 114q100 15 142 42t42 75q0 33 -25 54.5t-69 21.5q-72 0 -158 -64l-59 99q107 86 227 86q96 0 155.5 -51t59.5 -136q0 -204 -309 -241zM700 1260q165 0 205 172h152q-24 -145 -120.5 -221t-240.5 -76q-156 0 -242 78t-63 219h137q-15 -172 172 -172zM383 -29
q-142 0 -228.5 70t-86.5 195q0 127 91.5 211t272.5 116l371 62l10 59q19 109 -36 171.5t-165 62.5q-164 0 -293 -146l-124 105q74 89 185.5 142.5t242.5 53.5q204 0 298 -114.5t60 -307.5l-117 -651h-172l21 113q-129 -142 -330 -142zM248 254q0 -64 45.5 -101.5
t128.5 -37.5q193 0 319 168l39 211l-311 -54q-111 -18 -166 -66t-55 -120z" />
    <glyph glyph-name="Abrevetilde" unicode="&#x1eb4;" horiz-adv-x="1466" 
d="M649 1907l15 80q12 89 64.5 140.5t127.5 51.5q49 0 88 -17.5t63.5 -42.5t44.5 -50t41 -42.5t44 -17.5q51 0 67 78l13 72h135l-15 -80q-12 -89 -65.5 -141t-128.5 -52q-49 0 -88.5 17.5t-64.5 42.5t-45.5 50t-41 42.5t-41.5 17.5q-52 0 -65 -78l-13 -71h-135zM944 1661
q165 0 205 172h151q-24 -145 -120 -221t-240 -76q-156 0 -242 78t-63 219h137q-15 -172 172 -172zM-39 0l807 1434h256l301 -1434h-199l-84 422h-636l-234 -422h-211zM498 588h512l-136 676z" />
    <glyph glyph-name="abrevetilde" unicode="&#x1eb5;" horiz-adv-x="1116" 
d="M406 1505l14 80q12 89 64.5 141t127.5 52q49 0 88 -17.5t63.5 -42.5t44.5 -50t41 -42.5t44 -17.5q52 0 68 78l12 71h135l-14 -80q-12 -89 -66 -140.5t-129 -51.5q-49 0 -88.5 17.5t-64.5 42.5t-45.5 50t-41 42.5t-41.5 17.5q-52 0 -65 -78l-12 -72h-135zM700 1260
q165 0 205 172h152q-24 -145 -120.5 -221t-240.5 -76q-156 0 -242 78t-63 219h137q-15 -172 172 -172zM383 -29q-142 0 -228.5 70t-86.5 195q0 127 91.5 211t272.5 116l371 62l10 59q19 109 -36 171.5t-165 62.5q-164 0 -293 -146l-124 105q74 89 185.5 142.5t242.5 53.5
q204 0 298 -114.5t60 -307.5l-117 -651h-172l21 113q-129 -142 -330 -142zM248 254q0 -64 45.5 -101.5t128.5 -37.5q193 0 319 168l39 211l-311 -54q-111 -18 -166 -66t-55 -120z" />
    <glyph glyph-name="Abrevedotbelow" unicode="&#x1eb6;" horiz-adv-x="1466" 
d="M944 1661q165 0 205 172h151q-24 -145 -120 -221t-240 -76q-156 0 -242 78t-63 219h137q-15 -172 172 -172zM-39 0l807 1434h256l301 -1434h-199l-84 422h-636l-234 -422h-211zM498 588h512l-136 676zM592 -512q-53 0 -89 35t-36 86t36.5 87t88.5 36q50 0 85.5 -36
t35.5 -87t-35.5 -86t-85.5 -35z" />
    <glyph glyph-name="abrevedotbelow" unicode="&#x1eb7;" horiz-adv-x="1116" 
d="M719 1321q88 0 138 53t69 162h149q-25 -167 -119.5 -253.5t-246.5 -86.5q-148 0 -231 90.5t-58 249.5h139q-14 -105 26.5 -160t133.5 -55zM383 -29q-142 0 -228.5 70t-86.5 195q0 127 91.5 211t272.5 116l371 62l10 59q19 109 -36 171.5t-165 62.5q-164 0 -293 -146
l-124 105q74 89 185.5 142.5t242.5 53.5q204 0 298 -114.5t60 -307.5l-117 -651h-172l21 113q-129 -142 -330 -142zM248 254q0 -64 45.5 -101.5t128.5 -37.5q193 0 319 168l39 211l-311 -54q-111 -18 -166 -66t-55 -120zM399 -512q-53 0 -89 35t-36 86t36.5 87t88.5 36
q50 0 85.5 -36t35.5 -87t-35.5 -86t-85.5 -35z" />
    <glyph glyph-name="Edotbelow" unicode="&#x1eb8;" horiz-adv-x="1120" 
d="M129 0l254 1434h750l-29 -164h-557l-82 -459h479l-29 -162h-479l-86 -485h559l-28 -164h-752zM465 -512q-53 0 -89 35t-36 86t36.5 87t88.5 36q50 0 85.5 -36t35.5 -87t-35.5 -86t-85.5 -35z" />
    <glyph glyph-name="edotbelow" unicode="&#x1eb9;" horiz-adv-x="1153" 
d="M573 -41q-154 0 -266.5 66.5t-167.5 177t-55 250.5q0 169 66.5 308.5t198.5 225.5t306 86q184 0 305 -109.5t121 -275.5q0 -92 -32 -174h-783q-2 -20 -2 -63q0 -154 83.5 -244t236.5 -90q104 0 192.5 43t145.5 116l116 -112q-79 -97 -200 -151t-265 -54zM651 928
q-136 0 -227 -76t-131 -205h612q10 71 -15 134.5t-88 105t-151 41.5zM483 -512q-53 0 -89 35t-36 86t36.5 87t88.5 36q50 0 85.5 -36t35.5 -87t-35.5 -86t-85.5 -35z" />
    <glyph glyph-name="Ehoi" unicode="&#x1eba;" horiz-adv-x="1120" 
d="M702 1503l-6 115q100 15 142.5 42t42.5 75q0 33 -25 54t-70 21q-72 0 -157 -63l-60 98q107 86 228 86q96 0 155.5 -50.5t59.5 -135.5q0 -205 -310 -242zM129 0l254 1434h750l-29 -164h-557l-82 -459h479l-29 -162h-479l-86 -485h559l-28 -164h-752z" />
    <glyph glyph-name="ehoi" unicode="&#x1ebb;" horiz-adv-x="1153" 
d="M653 1135l-4 114q101 15 144 44t43 81q0 36 -25.5 59t-71.5 23q-70 0 -155 -63l-60 96q103 86 230 86q95 0 153.5 -49.5t59.5 -136.5q0 -215 -314 -254zM573 -41q-154 0 -266.5 66.5t-167.5 177t-55 250.5q0 169 66.5 308.5t198.5 225.5t306 86q184 0 305 -109.5
t121 -275.5q0 -92 -32 -174h-783q-2 -20 -2 -63q0 -154 83.5 -244t236.5 -90q104 0 192.5 43t145.5 116l116 -112q-79 -97 -200 -151t-265 -54zM651 928q-136 0 -227 -76t-131 -205h612q10 71 -15 134.5t-88 105t-151 41.5z" />
    <glyph glyph-name="Etilde" unicode="&#x1ebc;" horiz-adv-x="1120" 
d="M424 1569l14 80q12 89 65 140.5t128 51.5q49 0 88 -17.5t63 -42.5t44 -50t41 -42.5t44 -17.5q52 0 68 78l12 72h135l-14 -80q-12 -89 -65.5 -141t-128.5 -52q-49 0 -88.5 17.5t-64.5 42.5t-45.5 50t-41 42.5t-41.5 17.5q-53 0 -66 -78l-12 -71h-135zM129 0l254 1434h750
l-29 -164h-557l-82 -459h479l-29 -162h-479l-86 -485h559l-28 -164h-752z" />
    <glyph glyph-name="etilde" unicode="&#x1ebd;" horiz-adv-x="1153" 
d="M481 1221h-129l13 84q15 104 68.5 162.5t137.5 58.5q47 0 88.5 -19.5t71 -47t55 -55.5t51.5 -47.5t50 -19.5q73 0 86 84l12 90h129l-12 -86q-15 -102 -69.5 -160.5t-137.5 -58.5q-48 0 -90 19.5t-71.5 47t-55 55.5t-52 47.5t-51.5 19.5q-66 0 -79 -84zM573 -41
q-154 0 -266.5 66.5t-167.5 177t-55 250.5q0 169 66.5 308.5t198.5 225.5t306 86q184 0 305 -109.5t121 -275.5q0 -92 -32 -174h-783q-2 -20 -2 -63q0 -154 83.5 -244t236.5 -90q104 0 192.5 43t145.5 116l116 -112q-79 -97 -200 -151t-265 -54zM651 928q-136 0 -227 -76
t-131 -205h612q10 71 -15 134.5t-88 105t-151 41.5z" />
    <glyph glyph-name="Ecircumflexacute" unicode="&#x1ebe;" horiz-adv-x="1120" 
d="M1190 1765h-176l280 277h207zM588 1556h-166l272 277h213l174 -277h-147l-139 189zM129 0l254 1434h750l-29 -164h-557l-82 -459h479l-29 -162h-479l-86 -485h559l-28 -164h-752z" />
    <glyph glyph-name="ecircumflexacute" unicode="&#x1ebf;" horiz-adv-x="1153" 
d="M1137 1364h-176l280 276h207zM532 1155h-165l272 277h213l174 -277h-147l-140 188zM573 -41q-154 0 -266.5 66.5t-167.5 177t-55 250.5q0 169 66.5 308.5t198.5 225.5t306 86q184 0 305 -109.5t121 -275.5q0 -92 -32 -174h-783q-2 -20 -2 -63q0 -154 83.5 -244t236.5 -90
q104 0 192.5 43t145.5 116l116 -112q-79 -97 -200 -151t-265 -54zM651 928q-136 0 -227 -76t-131 -205h612q10 71 -15 134.5t-88 105t-151 41.5z" />
    <glyph glyph-name="Ecircumflexgrave" unicode="&#x1ec0;" horiz-adv-x="1120" 
d="M1092 1765l-213 277h194l182 -277h-163zM588 1556h-166l272 277h213l174 -277h-147l-139 189zM129 0l254 1434h750l-29 -164h-557l-82 -459h479l-29 -162h-479l-86 -485h559l-28 -164h-752z" />
    <glyph glyph-name="ecircumflexgrave" unicode="&#x1ec1;" horiz-adv-x="1153" 
d="M1038 1364l-213 276h195l182 -276h-164zM532 1155h-165l272 277h213l174 -277h-147l-140 188zM573 -41q-154 0 -266.5 66.5t-167.5 177t-55 250.5q0 169 66.5 308.5t198.5 225.5t306 86q184 0 305 -109.5t121 -275.5q0 -92 -32 -174h-783q-2 -20 -2 -63q0 -154 83.5 -244
t236.5 -90q104 0 192.5 43t145.5 116l116 -112q-79 -97 -200 -151t-265 -54zM651 928q-136 0 -227 -76t-131 -205h612q10 71 -15 134.5t-88 105t-151 41.5z" />
    <glyph glyph-name="Ecircumflexhoi" unicode="&#x1ec2;" horiz-adv-x="1120" 
d="M1071 1724l-10 103q78 10 110.5 32.5t32.5 59.5q0 24 -20 39.5t-54 15.5q-61 0 -118 -47l-56 82q34 33 83.5 52.5t101.5 19.5q79 0 129.5 -41.5t50.5 -112.5q0 -168 -250 -203zM588 1556h-166l272 277h213l174 -277h-147l-139 189zM129 0l254 1434h750l-29 -164h-557
l-82 -459h479l-29 -162h-479l-86 -485h559l-28 -164h-752z" />
    <glyph glyph-name="ecircumflexhoi" unicode="&#x1ec3;" horiz-adv-x="1153" 
d="M1018 1323l-10 102q78 10 110.5 33t32.5 60q0 24 -20 39.5t-54 15.5q-62 0 -119 -47l-55 82q74 71 184 71q80 0 130.5 -41t50.5 -112q0 -168 -250 -203zM532 1155h-165l272 277h213l174 -277h-147l-140 188zM573 -41q-154 0 -266.5 66.5t-167.5 177t-55 250.5
q0 169 66.5 308.5t198.5 225.5t306 86q184 0 305 -109.5t121 -275.5q0 -92 -32 -174h-783q-2 -20 -2 -63q0 -154 83.5 -244t236.5 -90q104 0 192.5 43t145.5 116l116 -112q-79 -97 -200 -151t-265 -54zM651 928q-136 0 -227 -76t-131 -205h612q10 71 -15 134.5t-88 105
t-151 41.5z" />
    <glyph glyph-name="Ecircumflextilde" unicode="&#x1ec4;" horiz-adv-x="1120" 
d="M483 1907l15 80q12 89 64.5 140.5t127.5 51.5q49 0 88 -17.5t63.5 -42.5t44.5 -50t41 -42.5t44 -17.5q51 0 67 78l13 72h135l-15 -80q-12 -89 -65.5 -141t-128.5 -52q-49 0 -88.5 17.5t-64.5 42.5t-45.5 50t-41 42.5t-41.5 17.5q-52 0 -65 -78l-13 -71h-135zM588 1556
h-166l272 277h213l174 -277h-147l-139 189zM129 0l254 1434h750l-29 -164h-557l-82 -459h479l-29 -162h-479l-86 -485h559l-28 -164h-752z" />
    <glyph glyph-name="ecircumflextilde" unicode="&#x1ec5;" horiz-adv-x="1153" 
d="M428 1505l14 80q12 89 65 141t128 52q49 0 88 -17.5t63 -42.5t44 -50t41 -42.5t44 -17.5q52 0 68 78l12 71h135l-14 -80q-12 -89 -65.5 -140.5t-128.5 -51.5q-49 0 -88.5 17.5t-64.5 42.5t-45.5 50t-41 42.5t-41.5 17.5q-53 0 -66 -78l-12 -72h-135zM532 1155h-165
l272 277h213l174 -277h-147l-140 188zM573 -41q-154 0 -266.5 66.5t-167.5 177t-55 250.5q0 169 66.5 308.5t198.5 225.5t306 86q184 0 305 -109.5t121 -275.5q0 -92 -32 -174h-783q-2 -20 -2 -63q0 -154 83.5 -244t236.5 -90q104 0 192.5 43t145.5 116l116 -112
q-79 -97 -200 -151t-265 -54zM651 928q-136 0 -227 -76t-131 -205h612q10 71 -15 134.5t-88 105t-151 41.5z" />
    <glyph glyph-name="Ecircumflexdotbelow" unicode="&#x1ec6;" horiz-adv-x="1120" 
d="M588 1556h-166l272 277h213l174 -277h-147l-139 189zM129 0l254 1434h750l-29 -164h-557l-82 -459h479l-29 -162h-479l-86 -485h559l-28 -164h-752zM465 -512q-53 0 -89 35t-36 86t36.5 87t88.5 36q50 0 85.5 -36t35.5 -87t-35.5 -86t-85.5 -35z" />
    <glyph glyph-name="ecircumflexdotbelow" unicode="&#x1ec7;" horiz-adv-x="1153" 
d="M539 1196h-166l268 340h233l148 -340h-150l-122 254zM573 -41q-154 0 -266.5 66.5t-167.5 177t-55 250.5q0 169 66.5 308.5t198.5 225.5t306 86q184 0 305 -109.5t121 -275.5q0 -92 -32 -174h-783q-2 -20 -2 -63q0 -154 83.5 -244t236.5 -90q104 0 192.5 43t145.5 116
l116 -112q-79 -97 -200 -151t-265 -54zM651 928q-136 0 -227 -76t-131 -205h612q10 71 -15 134.5t-88 105t-151 41.5zM483 -512q-53 0 -89 35t-36 86t36.5 87t88.5 36q50 0 85.5 -36t35.5 -87t-35.5 -86t-85.5 -35z" />
    <glyph glyph-name="Ihoi" unicode="&#x1ec8;" horiz-adv-x="630" 
d="M453 1503l-7 115q100 15 142.5 42t42.5 75q0 33 -24.5 54t-69.5 21q-73 0 -158 -63l-60 98q107 86 228 86q96 0 155.5 -50.5t59.5 -135.5q0 -205 -309 -242zM129 0l254 1434h192l-253 -1434h-193z" />
    <glyph glyph-name="ihoi" unicode="&#x1ec9;" horiz-adv-x="528" 
d="M336 1135l-4 114q101 15 143.5 44t42.5 81q0 37 -25 59.5t-71 22.5q-71 0 -156 -63l-59 96q103 86 229 86q95 0 153.5 -49.5t59.5 -136.5q0 -215 -313 -254zM86 0l182 1032h174l-182 -1032h-174z" />
    <glyph glyph-name="Idotbelow" unicode="&#x1eca;" horiz-adv-x="630" 
d="M129 0l254 1434h192l-253 -1434h-193zM158 -512q-53 0 -89 35t-36 86t36.5 87t88.5 36q50 0 85.5 -36t35.5 -87t-35.5 -86t-85.5 -35z" />
    <glyph glyph-name="idotbelow" unicode="&#x1ecb;" horiz-adv-x="528" 
d="M424 1300q-51 0 -87 36t-36 87q0 50 36 85.5t87 35.5t86 -35.5t35 -85.5q0 -51 -35 -87t-86 -36zM88 0l180 1032h174l-182 -1032h-172zM106 -512q-52 0 -88 35t-36 86t36 87t88 36q50 0 85.5 -36t35.5 -87t-35.5 -86t-85.5 -35z" />
    <glyph glyph-name="Odotbelow" unicode="&#x1ecc;" horiz-adv-x="1660" 
d="M940 1475q195 0 348 -85.5t237.5 -237t84.5 -343.5q0 -169 -60 -324t-165.5 -271t-260 -185.5t-331.5 -69.5q-194 0 -346.5 85.5t-237 237.5t-84.5 343q0 169 60 324t165 271t259 185.5t331 69.5zM797 139q175 0 316 89.5t218.5 239.5t77.5 329q0 102 -33.5 192.5
t-93.5 158t-149.5 107t-196.5 39.5q-175 0 -315.5 -89t-217.5 -239t-77 -329q0 -210 129.5 -354t341.5 -144zM674 -512q-53 0 -89 35t-36 86t36.5 87t88.5 36q50 0 85.5 -36t35.5 -87t-35.5 -86t-85.5 -35z" />
    <glyph glyph-name="odotbelow" unicode="&#x1ecd;" horiz-adv-x="1267" 
d="M694 1073q227 0 360.5 -140t133.5 -353q0 -122 -44.5 -234.5t-122 -198t-193 -137t-248.5 -51.5q-152 0 -266.5 66t-173 177.5t-58.5 250.5q0 122 44.5 234.5t122.5 198t194 136.5t251 51zM582 123q122 0 220 64.5t150 169t52 225.5q0 140 -88 233.5t-228 93.5
q-122 0 -220 -64t-150 -168.5t-52 -225.5q0 -140 88 -234t228 -94zM477 -512q-53 0 -89 35t-36 86t36.5 87t88.5 36q50 0 85.5 -36t35.5 -87t-35.5 -86t-85.5 -35z" />
    <glyph glyph-name="Ohoi" unicode="&#x1ece;" horiz-adv-x="1660" 
d="M956 1503l-6 115q100 15 142.5 42t42.5 75q0 33 -25 54t-70 21q-72 0 -157 -63l-60 98q107 86 228 86q96 0 155.5 -50.5t59.5 -135.5q0 -205 -310 -242zM940 1475q195 0 348 -85.5t237.5 -237t84.5 -343.5q0 -169 -60 -324t-165.5 -271t-260 -185.5t-331.5 -69.5
q-194 0 -346.5 85.5t-237 237.5t-84.5 343q0 169 60 324t165 271t259 185.5t331 69.5zM797 139q175 0 316 89.5t218.5 239.5t77.5 329q0 102 -33.5 192.5t-93.5 158t-149.5 107t-196.5 39.5q-175 0 -315.5 -89t-217.5 -239t-77 -329q0 -210 129.5 -354t341.5 -144z" />
    <glyph glyph-name="ohoi" unicode="&#x1ecf;" horiz-adv-x="1267" 
d="M707 1135l-5 114q101 15 144 44t43 81q0 37 -25 59.5t-71 22.5q-71 0 -156 -63l-59 96q103 86 229 86q95 0 153.5 -49.5t59.5 -136.5q0 -215 -313 -254zM694 1073q227 0 360.5 -140t133.5 -353q0 -122 -44.5 -234.5t-122 -198t-193 -137t-248.5 -51.5q-152 0 -266.5 66
t-173 177.5t-58.5 250.5q0 122 44.5 234.5t122.5 198t194 136.5t251 51zM582 123q122 0 220 64.5t150 169t52 225.5q0 140 -88 233.5t-228 93.5q-122 0 -220 -64t-150 -168.5t-52 -225.5q0 -140 88 -234t228 -94z" />
    <glyph glyph-name="Ocircumflexacute" unicode="&#x1ed0;" horiz-adv-x="1660" 
d="M1444 1765h-176l280 277h207zM840 1556h-166l272 277h213l174 -277h-147l-139 189zM940 1475q195 0 348 -85.5t237.5 -237t84.5 -343.5q0 -169 -60 -324t-165.5 -271t-260 -185.5t-331.5 -69.5q-194 0 -346.5 85.5t-237 237.5t-84.5 343q0 169 60 324t165 271t259 185.5
t331 69.5zM797 139q175 0 316 89.5t218.5 239.5t77.5 329q0 102 -33.5 192.5t-93.5 158t-149.5 107t-196.5 39.5q-175 0 -315.5 -89t-217.5 -239t-77 -329q0 -210 129.5 -354t341.5 -144z" />
    <glyph glyph-name="ocircumflexacute" unicode="&#x1ed1;" horiz-adv-x="1267" 
d="M1188 1364h-176l280 276h207zM586 1155h-166l272 277h213l174 -277h-147l-139 188zM694 1073q227 0 360.5 -140t133.5 -353q0 -122 -44.5 -234.5t-122 -198t-193 -137t-248.5 -51.5q-152 0 -266.5 66t-173 177.5t-58.5 250.5q0 122 44.5 234.5t122.5 198t194 136.5
t251 51zM582 123q122 0 220 64.5t150 169t52 225.5q0 140 -88 233.5t-228 93.5q-122 0 -220 -64t-150 -168.5t-52 -225.5q0 -140 88 -234t228 -94z" />
    <glyph glyph-name="Ocircumflexgrave" unicode="&#x1ed2;" horiz-adv-x="1660" 
d="M1346 1765l-213 277h194l182 -277h-163zM840 1556h-166l272 277h213l174 -277h-147l-139 189zM940 1475q195 0 348 -85.5t237.5 -237t84.5 -343.5q0 -169 -60 -324t-165.5 -271t-260 -185.5t-331.5 -69.5q-194 0 -346.5 85.5t-237 237.5t-84.5 343q0 169 60 324t165 271
t259 185.5t331 69.5zM797 139q175 0 316 89.5t218.5 239.5t77.5 329q0 102 -33.5 192.5t-93.5 158t-149.5 107t-196.5 39.5q-175 0 -315.5 -89t-217.5 -239t-77 -329q0 -210 129.5 -354t341.5 -144z" />
    <glyph glyph-name="ocircumflexgrave" unicode="&#x1ed3;" horiz-adv-x="1267" 
d="M1090 1364l-213 276h194l182 -276h-163zM586 1155h-166l272 277h213l174 -277h-147l-139 188zM694 1073q227 0 360.5 -140t133.5 -353q0 -122 -44.5 -234.5t-122 -198t-193 -137t-248.5 -51.5q-152 0 -266.5 66t-173 177.5t-58.5 250.5q0 122 44.5 234.5t122.5 198
t194 136.5t251 51zM582 123q122 0 220 64.5t150 169t52 225.5q0 140 -88 233.5t-228 93.5q-122 0 -220 -64t-150 -168.5t-52 -225.5q0 -140 88 -234t228 -94z" />
    <glyph glyph-name="Ocircumflexhoi" unicode="&#x1ed4;" horiz-adv-x="1660" 
d="M1325 1724l-10 103q78 10 110.5 32.5t32.5 59.5q0 24 -20 39.5t-54 15.5q-61 0 -118 -47l-56 82q34 33 83.5 52.5t101.5 19.5q79 0 129.5 -41.5t50.5 -112.5q0 -168 -250 -203zM840 1556h-166l272 277h213l174 -277h-147l-139 189zM940 1475q195 0 348 -85.5t237.5 -237
t84.5 -343.5q0 -169 -60 -324t-165.5 -271t-260 -185.5t-331.5 -69.5q-194 0 -346.5 85.5t-237 237.5t-84.5 343q0 169 60 324t165 271t259 185.5t331 69.5zM797 139q175 0 316 89.5t218.5 239.5t77.5 329q0 102 -33.5 192.5t-93.5 158t-149.5 107t-196.5 39.5
q-175 0 -315.5 -89t-217.5 -239t-77 -329q0 -210 129.5 -354t341.5 -144z" />
    <glyph glyph-name="ocircumflexhoi" unicode="&#x1ed5;" horiz-adv-x="1267" 
d="M1069 1323l-10 102q78 10 110.5 33t32.5 60q0 24 -20 39.5t-54 15.5q-61 0 -118 -47l-56 82q34 33 83.5 52t101.5 19q80 0 130 -41t50 -112q0 -168 -250 -203zM586 1155h-166l272 277h213l174 -277h-147l-139 188zM694 1073q227 0 360.5 -140t133.5 -353
q0 -122 -44.5 -234.5t-122 -198t-193 -137t-248.5 -51.5q-152 0 -266.5 66t-173 177.5t-58.5 250.5q0 122 44.5 234.5t122.5 198t194 136.5t251 51zM582 123q122 0 220 64.5t150 169t52 225.5q0 140 -88 233.5t-228 93.5q-122 0 -220 -64t-150 -168.5t-52 -225.5
q0 -140 88 -234t228 -94z" />
    <glyph glyph-name="Ocircumflextilde" unicode="&#x1ed6;" horiz-adv-x="1660" 
d="M735 1907l15 80q12 89 64.5 140.5t127.5 51.5q49 0 88 -17.5t63.5 -42.5t44.5 -50t41 -42.5t44 -17.5q51 0 67 78l13 72h135l-15 -80q-12 -89 -65.5 -141t-128.5 -52q-49 0 -88.5 17.5t-64.5 42.5t-45.5 50t-41 42.5t-41.5 17.5q-52 0 -65 -78l-13 -71h-135zM840 1556
h-166l272 277h213l174 -277h-147l-139 189zM940 1475q195 0 348 -85.5t237.5 -237t84.5 -343.5q0 -169 -60 -324t-165.5 -271t-260 -185.5t-331.5 -69.5q-194 0 -346.5 85.5t-237 237.5t-84.5 343q0 169 60 324t165 271t259 185.5t331 69.5zM797 139q175 0 316 89.5
t218.5 239.5t77.5 329q0 102 -33.5 192.5t-93.5 158t-149.5 107t-196.5 39.5q-175 0 -315.5 -89t-217.5 -239t-77 -329q0 -210 129.5 -354t341.5 -144z" />
    <glyph glyph-name="ocircumflextilde" unicode="&#x1ed7;" horiz-adv-x="1267" 
d="M481 1505l15 80q12 89 64.5 141t127.5 52q49 0 88 -17.5t63.5 -42.5t44.5 -50t41 -42.5t44 -17.5q51 0 67 78l13 71h135l-15 -80q-12 -89 -65.5 -140.5t-128.5 -51.5q-49 0 -88.5 17.5t-64.5 42.5t-45.5 50t-41 42.5t-41.5 17.5q-52 0 -65 -78l-13 -72h-135zM586 1155
h-166l272 277h213l174 -277h-147l-139 188zM694 1073q227 0 360.5 -140t133.5 -353q0 -122 -44.5 -234.5t-122 -198t-193 -137t-248.5 -51.5q-152 0 -266.5 66t-173 177.5t-58.5 250.5q0 122 44.5 234.5t122.5 198t194 136.5t251 51zM582 123q122 0 220 64.5t150 169
t52 225.5q0 140 -88 233.5t-228 93.5q-122 0 -220 -64t-150 -168.5t-52 -225.5q0 -140 88 -234t228 -94z" />
    <glyph glyph-name="Ocircumflexdotbelow" unicode="&#x1ed8;" horiz-adv-x="1660" 
d="M840 1556h-166l272 277h213l174 -277h-147l-139 189zM940 1475q195 0 348 -85.5t237.5 -237t84.5 -343.5q0 -169 -60 -324t-165.5 -271t-260 -185.5t-331.5 -69.5q-194 0 -346.5 85.5t-237 237.5t-84.5 343q0 169 60 324t165 271t259 185.5t331 69.5zM797 139
q175 0 316 89.5t218.5 239.5t77.5 329q0 102 -33.5 192.5t-93.5 158t-149.5 107t-196.5 39.5q-175 0 -315.5 -89t-217.5 -239t-77 -329q0 -210 129.5 -354t341.5 -144zM674 -512q-53 0 -89 35t-36 86t36.5 87t88.5 36q50 0 85.5 -36t35.5 -87t-35.5 -86t-85.5 -35z" />
    <glyph glyph-name="ocircumflexdotbelow" unicode="&#x1ed9;" horiz-adv-x="1267" 
d="M592 1196h-166l268 340h234l147 -340h-149l-123 254zM694 1073q227 0 360.5 -140t133.5 -353q0 -122 -44.5 -234.5t-122 -198t-193 -137t-248.5 -51.5q-152 0 -266.5 66t-173 177.5t-58.5 250.5q0 122 44.5 234.5t122.5 198t194 136.5t251 51zM582 123q122 0 220 64.5
t150 169t52 225.5q0 140 -88 233.5t-228 93.5q-122 0 -220 -64t-150 -168.5t-52 -225.5q0 -140 88 -234t228 -94zM477 -512q-53 0 -89 35t-36 86t36.5 87t88.5 36q50 0 85.5 -36t35.5 -87t-35.5 -86t-85.5 -35z" />
    <glyph glyph-name="Ohornacute" unicode="&#x1eda;" horiz-adv-x="1660" 
d="M1098 1556h-185l273 277h215zM940 1475q133 0 248 -41h94q93 0 135.5 47t42.5 112q0 58 -43 107l109 80q78 -82 78 -183q0 -100 -61 -172.5t-169 -93.5q112 -91 174 -225.5t62 -296.5q0 -169 -60 -324t-165.5 -271t-260 -185.5t-331.5 -69.5q-194 0 -346.5 85.5
t-237 237.5t-84.5 343q0 169 60 324t165 271t259 185.5t331 69.5zM797 139q175 0 316 89.5t218.5 239.5t77.5 329q0 102 -33.5 192.5t-93.5 158t-149.5 107t-196.5 39.5q-175 0 -315.5 -89t-217.5 -239t-77 -329q0 -210 129.5 -354t341.5 -144z" />
    <glyph glyph-name="ohornacute" unicode="&#x1edb;" horiz-adv-x="1267" 
d="M840 1196h-176l268 340h203zM694 1073q119 0 215 -41h82q92 0 136 48t44 112q0 55 -45 106l109 80q78 -82 78 -182q0 -105 -66.5 -179t-185.5 -91q127 -136 127 -346q0 -122 -44.5 -234.5t-122 -198t-193 -137t-248.5 -51.5q-152 0 -266.5 66t-173 177.5t-58.5 250.5
q0 122 44.5 234.5t122.5 198t194 136.5t251 51zM582 123q122 0 220 64.5t150 169t52 225.5q0 140 -88 233.5t-228 93.5q-122 0 -220 -64t-150 -168.5t-52 -225.5q0 -140 88 -234t228 -94z" />
    <glyph glyph-name="Ohorngrave" unicode="&#x1edc;" horiz-adv-x="1660" 
d="M924 1556l-205 277h201l176 -277h-172zM940 1475q133 0 248 -41h94q93 0 135.5 47t42.5 112q0 58 -43 107l109 80q78 -82 78 -183q0 -100 -61 -172.5t-169 -93.5q112 -91 174 -225.5t62 -296.5q0 -169 -60 -324t-165.5 -271t-260 -185.5t-331.5 -69.5q-194 0 -346.5 85.5
t-237 237.5t-84.5 343q0 169 60 324t165 271t259 185.5t331 69.5zM797 139q175 0 316 89.5t218.5 239.5t77.5 329q0 102 -33.5 192.5t-93.5 158t-149.5 107t-196.5 39.5q-175 0 -315.5 -89t-217.5 -239t-77 -329q0 -210 129.5 -354t341.5 -144z" />
    <glyph glyph-name="ohorngrave" unicode="&#x1edd;" horiz-adv-x="1267" 
d="M674 1196l-174 340h188l148 -340h-162zM694 1073q119 0 215 -41h82q92 0 136 48t44 112q0 55 -45 106l109 80q78 -82 78 -182q0 -105 -66.5 -179t-185.5 -91q127 -136 127 -346q0 -122 -44.5 -234.5t-122 -198t-193 -137t-248.5 -51.5q-152 0 -266.5 66t-173 177.5
t-58.5 250.5q0 122 44.5 234.5t122.5 198t194 136.5t251 51zM582 123q122 0 220 64.5t150 169t52 225.5q0 140 -88 233.5t-228 93.5q-122 0 -220 -64t-150 -168.5t-52 -225.5q0 -140 88 -234t228 -94z" />
    <glyph glyph-name="Ohornhoi" unicode="&#x1ede;" horiz-adv-x="1660" 
d="M956 1503l-6 115q100 15 142.5 42t42.5 75q0 33 -25 54t-70 21q-72 0 -157 -63l-60 98q107 86 228 86q96 0 155.5 -50.5t59.5 -135.5q0 -205 -310 -242zM940 1475q133 0 248 -41h94q93 0 135.5 47t42.5 112q0 58 -43 107l109 80q78 -82 78 -183q0 -100 -61 -172.5
t-169 -93.5q112 -91 174 -225.5t62 -296.5q0 -169 -60 -324t-165.5 -271t-260 -185.5t-331.5 -69.5q-194 0 -346.5 85.5t-237 237.5t-84.5 343q0 169 60 324t165 271t259 185.5t331 69.5zM797 139q175 0 316 89.5t218.5 239.5t77.5 329q0 102 -33.5 192.5t-93.5 158
t-149.5 107t-196.5 39.5q-175 0 -315.5 -89t-217.5 -239t-77 -329q0 -210 129.5 -354t341.5 -144z" />
    <glyph glyph-name="ohornhoi" unicode="&#x1edf;" horiz-adv-x="1267" 
d="M707 1135l-5 114q101 15 144 44t43 81q0 37 -25 59.5t-71 22.5q-71 0 -156 -63l-59 96q103 86 229 86q95 0 153.5 -49.5t59.5 -136.5q0 -215 -313 -254zM694 1073q119 0 215 -41h82q92 0 136 48t44 112q0 55 -45 106l109 80q78 -82 78 -182q0 -105 -66.5 -179t-185.5 -91
q127 -136 127 -346q0 -122 -44.5 -234.5t-122 -198t-193 -137t-248.5 -51.5q-152 0 -266.5 66t-173 177.5t-58.5 250.5q0 122 44.5 234.5t122.5 198t194 136.5t251 51zM582 123q122 0 220 64.5t150 169t52 225.5q0 140 -88 233.5t-228 93.5q-122 0 -220 -64t-150 -168.5
t-52 -225.5q0 -140 88 -234t228 -94z" />
    <glyph glyph-name="Ohorntilde" unicode="&#x1ee0;" horiz-adv-x="1660" 
d="M676 1569l14 80q12 89 65 140.5t128 51.5q49 0 88 -17.5t63 -42.5t44 -50t41 -42.5t44 -17.5q52 0 68 78l12 72h135l-14 -80q-12 -89 -66 -141t-129 -52q-49 0 -88.5 17.5t-64 42.5t-45 50t-41 42.5t-41.5 17.5q-53 0 -66 -78l-12 -71h-135zM940 1475q133 0 248 -41h94
q93 0 135.5 47t42.5 112q0 58 -43 107l109 80q78 -82 78 -183q0 -100 -61 -172.5t-169 -93.5q112 -91 174 -225.5t62 -296.5q0 -169 -60 -324t-165.5 -271t-260 -185.5t-331.5 -69.5q-194 0 -346.5 85.5t-237 237.5t-84.5 343q0 169 60 324t165 271t259 185.5t331 69.5z
M797 139q175 0 316 89.5t218.5 239.5t77.5 329q0 102 -33.5 192.5t-93.5 158t-149.5 107t-196.5 39.5q-175 0 -315.5 -89t-217.5 -239t-77 -329q0 -210 129.5 -354t341.5 -144z" />
    <glyph glyph-name="ohorntilde" unicode="&#x1ee1;" horiz-adv-x="1267" 
d="M532 1221h-129l13 84q15 104 69 162.5t138 58.5q47 0 88.5 -19.5t70.5 -47t54.5 -55.5t51.5 -47.5t50 -19.5q73 0 86 84l12 90h129l-12 -86q-15 -102 -69.5 -160.5t-137.5 -58.5q-48 0 -90 19.5t-71 47t-54.5 55.5t-52 47.5t-51.5 19.5q-33 0 -53.5 -22.5t-26.5 -61.5z
M694 1073q119 0 215 -41h82q92 0 136 48t44 112q0 55 -45 106l109 80q78 -82 78 -182q0 -105 -66.5 -179t-185.5 -91q127 -136 127 -346q0 -122 -44.5 -234.5t-122 -198t-193 -137t-248.5 -51.5q-152 0 -266.5 66t-173 177.5t-58.5 250.5q0 122 44.5 234.5t122.5 198
t194 136.5t251 51zM582 123q122 0 220 64.5t150 169t52 225.5q0 140 -88 233.5t-228 93.5q-122 0 -220 -64t-150 -168.5t-52 -225.5q0 -140 88 -234t228 -94z" />
    <glyph glyph-name="Ohorndotbelow" unicode="&#x1ee2;" horiz-adv-x="1660" 
d="M940 1475q133 0 248 -41h94q93 0 135.5 47t42.5 112q0 58 -43 107l109 80q78 -82 78 -183q0 -100 -61 -172.5t-169 -93.5q112 -91 174 -225.5t62 -296.5q0 -169 -60 -324t-165.5 -271t-260 -185.5t-331.5 -69.5q-194 0 -346.5 85.5t-237 237.5t-84.5 343q0 169 60 324
t165 271t259 185.5t331 69.5zM797 139q175 0 316 89.5t218.5 239.5t77.5 329q0 102 -33.5 192.5t-93.5 158t-149.5 107t-196.5 39.5q-175 0 -315.5 -89t-217.5 -239t-77 -329q0 -210 129.5 -354t341.5 -144zM674 -512q-53 0 -89 35t-36 86t36.5 87t88.5 36q50 0 85.5 -36
t35.5 -87t-35.5 -86t-85.5 -35z" />
    <glyph glyph-name="ohorndotbelow" unicode="&#x1ee3;" horiz-adv-x="1267" 
d="M694 1073q119 0 215 -41h82q92 0 136 48t44 112q0 55 -45 106l109 80q78 -82 78 -182q0 -105 -66.5 -179t-185.5 -91q127 -136 127 -346q0 -122 -44.5 -234.5t-122 -198t-193 -137t-248.5 -51.5q-152 0 -266.5 66t-173 177.5t-58.5 250.5q0 122 44.5 234.5t122.5 198
t194 136.5t251 51zM582 123q122 0 220 64.5t150 169t52 225.5q0 140 -88 233.5t-228 93.5q-122 0 -220 -64t-150 -168.5t-52 -225.5q0 -140 88 -234t228 -94zM477 -512q-53 0 -89 35t-36 86t36.5 87t88.5 36q50 0 85.5 -36t35.5 -87t-35.5 -86t-85.5 -35z" />
    <glyph glyph-name="Udotbelow" unicode="&#x1ee4;" horiz-adv-x="1441" 
d="M1071 528l160 906h192l-159 -910q-102 -565 -600 -565q-126 0 -225.5 39t-165 114.5t-89.5 187.5t2 259l156 875h193l-156 -885q-35 -199 44 -304.5t253 -105.5q162 0 261.5 99t133.5 290zM571 -512q-53 0 -89 35t-36 86t36.5 87t88.5 36q50 0 85.5 -36t35.5 -87
t-35.5 -86t-85.5 -35z" />
    <glyph glyph-name="udotbelow" unicode="&#x1ee5;" horiz-adv-x="1200" 
d="M858 442l105 590h176l-107 -592q-40 -234 -163 -357.5t-326 -123.5q-219 0 -328.5 131.5t-69.5 368.5l103 573h174l-105 -590q-27 -152 36.5 -235.5t201.5 -83.5q121 0 198 81.5t105 237.5zM465 -512q-53 0 -89 35t-36 86t36.5 87t88.5 36q50 0 85.5 -36t35.5 -87
t-35.5 -86t-85.5 -35z" />
    <glyph glyph-name="Uhoi" unicode="&#x1ee6;" horiz-adv-x="1441" 
d="M858 1503l-6 115q100 15 142 42t42 75q0 33 -24.5 54t-69.5 21q-73 0 -158 -63l-59 98q107 86 227 86q96 0 155.5 -50.5t59.5 -135.5q0 -205 -309 -242zM1071 528l160 906h192l-159 -910q-102 -565 -600 -565q-126 0 -225.5 39t-165 114.5t-89.5 187.5t2 259l156 875h193
l-156 -885q-35 -199 44 -304.5t253 -105.5q162 0 261.5 99t133.5 290z" />
    <glyph glyph-name="uhoi" unicode="&#x1ee7;" horiz-adv-x="1200" 
d="M672 1135l-4 114q101 15 143.5 44t42.5 81q0 37 -25 59.5t-71 22.5q-71 0 -156 -63l-59 96q103 86 229 86q95 0 153.5 -49.5t59.5 -136.5q0 -215 -313 -254zM858 442l105 590h176l-107 -592q-40 -234 -163 -357.5t-326 -123.5q-219 0 -328.5 131.5t-69.5 368.5l103 573
h174l-105 -590q-27 -152 36.5 -235.5t201.5 -83.5q121 0 198 81.5t105 237.5z" />
    <glyph glyph-name="Uhornacute" unicode="&#x1ee8;" horiz-adv-x="1441" 
d="M999 1556h-184l272 277h216zM1071 528l160 906h141q93 0 135.5 47t42.5 112q0 58 -43 107l109 80q78 -82 78 -183q0 -114 -77.5 -191t-211.5 -83l-141 -799q-102 -565 -600 -565q-126 0 -225.5 39t-165 114.5t-89.5 187.5t2 259l156 875h193l-156 -885
q-35 -199 44 -304.5t253 -105.5q162 0 261.5 99t133.5 290z" />
    <glyph glyph-name="uhornacute" unicode="&#x1ee9;" horiz-adv-x="1218" 
d="M805 1196h-176l268 340h203zM858 442l105 590h135q92 0 136 48t44 112q0 55 -45 106l108 80q78 -82 78 -182q0 -118 -82 -196t-219 -78l-86 -482q-40 -234 -163 -357.5t-326 -123.5q-219 0 -328.5 131.5t-69.5 368.5l103 573h174l-105 -590q-27 -152 36.5 -235.5
t201.5 -83.5q121 0 198 81.5t105 237.5z" />
    <glyph glyph-name="Uhorngrave" unicode="&#x1eea;" horiz-adv-x="1441" 
d="M825 1556l-204 277h200l176 -277h-172zM1071 528l160 906h141q93 0 135.5 47t42.5 112q0 58 -43 107l109 80q78 -82 78 -183q0 -114 -77.5 -191t-211.5 -83l-141 -799q-102 -565 -600 -565q-126 0 -225.5 39t-165 114.5t-89.5 187.5t2 259l156 875h193l-156 -885
q-35 -199 44 -304.5t253 -105.5q162 0 261.5 99t133.5 290z" />
    <glyph glyph-name="uhorngrave" unicode="&#x1eeb;" horiz-adv-x="1218" 
d="M639 1196l-174 340h188l148 -340h-162zM858 442l105 590h135q92 0 136 48t44 112q0 55 -45 106l108 80q78 -82 78 -182q0 -118 -82 -196t-219 -78l-86 -482q-40 -234 -163 -357.5t-326 -123.5q-219 0 -328.5 131.5t-69.5 368.5l103 573h174l-105 -590
q-27 -152 36.5 -235.5t201.5 -83.5q121 0 198 81.5t105 237.5z" />
    <glyph glyph-name="Uhornhoi" unicode="&#x1eec;" horiz-adv-x="1441" 
d="M858 1503l-6 115q100 15 142 42t42 75q0 33 -24.5 54t-69.5 21q-73 0 -158 -63l-59 98q107 86 227 86q96 0 155.5 -50.5t59.5 -135.5q0 -205 -309 -242zM1071 528l160 906h141q93 0 135.5 47t42.5 112q0 58 -43 107l109 80q78 -82 78 -183q0 -114 -77.5 -191t-211.5 -83
l-141 -799q-102 -565 -600 -565q-126 0 -225.5 39t-165 114.5t-89.5 187.5t2 259l156 875h193l-156 -885q-35 -199 44 -304.5t253 -105.5q162 0 261.5 99t133.5 290z" />
    <glyph glyph-name="uhornhoi" unicode="&#x1eed;" horiz-adv-x="1218" 
d="M672 1135l-4 114q101 15 143.5 44t42.5 81q0 37 -25 59.5t-71 22.5q-71 0 -156 -63l-59 96q103 86 229 86q95 0 153.5 -49.5t59.5 -136.5q0 -215 -313 -254zM858 442l105 590h135q92 0 136 48t44 112q0 55 -45 106l108 80q78 -82 78 -182q0 -118 -82 -196t-219 -78
l-86 -482q-40 -234 -163 -357.5t-326 -123.5q-219 0 -328.5 131.5t-69.5 368.5l103 573h174l-105 -590q-27 -152 36.5 -235.5t201.5 -83.5q121 0 198 81.5t105 237.5z" />
    <glyph glyph-name="Uhorntilde" unicode="&#x1eee;" horiz-adv-x="1441" 
d="M578 1569l14 80q12 89 64.5 140.5t127.5 51.5q49 0 88 -17.5t63.5 -42.5t44.5 -50t41 -42.5t44 -17.5q52 0 68 78l12 72h135l-14 -80q-12 -89 -66 -141t-129 -52q-49 0 -88.5 17.5t-64 42.5t-45 50t-41 42.5t-41.5 17.5q-53 0 -66 -78l-12 -71h-135zM1071 528l160 906
h141q93 0 135.5 47t42.5 112q0 58 -43 107l109 80q78 -82 78 -183q0 -114 -77.5 -191t-211.5 -83l-141 -799q-102 -565 -600 -565q-126 0 -225.5 39t-165 114.5t-89.5 187.5t2 259l156 875h193l-156 -885q-35 -199 44 -304.5t253 -105.5q162 0 261.5 99t133.5 290z" />
    <glyph glyph-name="uhorntilde" unicode="&#x1eef;" horiz-adv-x="1218" 
d="M500 1221h-129l12 84q15 104 69 162.5t138 58.5q47 0 88.5 -19.5t70.5 -47t54.5 -55.5t51.5 -47.5t50 -19.5q73 0 86 84l13 90h129l-13 -86q-15 -102 -69.5 -160.5t-137.5 -58.5q-48 0 -90 19.5t-71 47t-54.5 55.5t-52 47.5t-51.5 19.5q-33 0 -53.5 -22.5t-26.5 -61.5z
M858 442l105 590h135q92 0 136 48t44 112q0 55 -45 106l108 80q78 -82 78 -182q0 -118 -82 -196t-219 -78l-86 -482q-40 -234 -163 -357.5t-326 -123.5q-219 0 -328.5 131.5t-69.5 368.5l103 573h174l-105 -590q-27 -152 36.5 -235.5t201.5 -83.5q121 0 198 81.5t105 237.5z
" />
    <glyph glyph-name="Uhorndotbelow" unicode="&#x1ef0;" horiz-adv-x="1441" 
d="M1071 528l160 906h141q93 0 135.5 47t42.5 112q0 58 -43 107l109 80q78 -82 78 -183q0 -114 -77.5 -191t-211.5 -83l-141 -799q-102 -565 -600 -565q-126 0 -225.5 39t-165 114.5t-89.5 187.5t2 259l156 875h193l-156 -885q-35 -199 44 -304.5t253 -105.5q162 0 261.5 99
t133.5 290zM571 -512q-53 0 -89 35t-36 86t36.5 87t88.5 36q50 0 85.5 -36t35.5 -87t-35.5 -86t-85.5 -35z" />
    <glyph glyph-name="uhorndotbelow" unicode="&#x1ef1;" horiz-adv-x="1218" 
d="M858 442l105 590h135q92 0 136 48t44 112q0 55 -45 106l108 80q78 -82 78 -182q0 -118 -82 -196t-219 -78l-86 -482q-40 -234 -163 -357.5t-326 -123.5q-219 0 -328.5 131.5t-69.5 368.5l103 573h174l-105 -590q-27 -152 36.5 -235.5t201.5 -83.5q121 0 198 81.5
t105 237.5zM465 -512q-53 0 -89 35t-36 86t36.5 87t88.5 36q50 0 85.5 -36t35.5 -87t-35.5 -86t-85.5 -35z" />
    <glyph glyph-name="Ygrave" unicode="&#x1ef2;" horiz-adv-x="1347" 
d="M762 1556l-205 277h201l176 -277h-172zM1497 1434l-706 -793l-113 -641h-193l115 651l-424 783h217l328 -607l536 607h240z" />
    <glyph glyph-name="ygrave" unicode="&#x1ef3;" horiz-adv-x="1091" 
d="M584 1196l-174 340h188l147 -340h-161zM406 -250q-80 -139 -166.5 -200.5t-204.5 -61.5q-122 0 -187 41l27 154q65 -35 141 -35q69 0 127 38t111 128l111 188l-246 1030h184l186 -813l474 813h192z" />
    <glyph glyph-name="Ydotbelow" unicode="&#x1ef4;" horiz-adv-x="1347" 
d="M1497 1434l-706 -793l-113 -641h-193l115 651l-424 783h217l328 -607l536 607h240zM516 -512q-53 0 -89 35t-36 86t36.5 87t88.5 36q50 0 85.5 -36t35.5 -87t-35.5 -86t-85.5 -35z" />
    <glyph glyph-name="ydotbelow" unicode="&#x1ef5;" horiz-adv-x="1091" 
d="M406 -250q-80 -139 -166.5 -200.5t-204.5 -61.5q-122 0 -187 41l27 154q65 -35 141 -35q69 0 127 38t111 128l111 188l-246 1030h184l186 -813l474 813h192zM686 -512q-53 0 -89 35t-36 86t36.5 87t88.5 36q50 0 85.5 -36t35.5 -87t-35.5 -86t-85.5 -35z" />
    <glyph glyph-name="Yhoi" unicode="&#x1ef6;" horiz-adv-x="1347" 
d="M793 1503l-7 115q100 15 142.5 42t42.5 75q0 33 -24.5 54t-69.5 21q-73 0 -158 -63l-60 98q107 86 228 86q96 0 155.5 -50.5t59.5 -135.5q0 -205 -309 -242zM1497 1434l-706 -793l-113 -641h-193l115 651l-424 783h217l328 -607l536 607h240z" />
    <glyph glyph-name="yhoi" unicode="&#x1ef7;" horiz-adv-x="1091" 
d="M616 1135l-4 114q101 15 144 44t43 81q0 36 -25.5 59t-71.5 23q-70 0 -155 -63l-60 96q103 86 230 86q95 0 153.5 -49.5t59.5 -136.5q0 -215 -314 -254zM406 -250q-80 -139 -166.5 -200.5t-204.5 -61.5q-122 0 -187 41l27 154q65 -35 141 -35q69 0 127 38t111 128
l111 188l-246 1030h184l186 -813l474 813h192z" />
    <glyph glyph-name="Ytilde" unicode="&#x1ef8;" horiz-adv-x="1347" 
d="M514 1569l14 80q12 89 65 140.5t128 51.5q49 0 88 -17.5t63 -42.5t44 -50t41 -42.5t44 -17.5q52 0 68 78l12 72h136l-15 -80q-12 -89 -65.5 -141t-128.5 -52q-49 0 -88.5 17.5t-64.5 42.5t-45.5 50t-41 42.5t-41.5 17.5q-52 0 -65 -78l-13 -71h-135zM1497 1434l-706 -793
l-113 -641h-193l115 651l-424 783h217l328 -607l536 607h240z" />
    <glyph glyph-name="ytilde" unicode="&#x1ef9;" horiz-adv-x="1091" 
d="M444 1221h-129l13 84q15 104 69 162.5t138 58.5q47 0 88.5 -19.5t70.5 -47t54.5 -55.5t51.5 -47.5t50 -19.5q73 0 86 84l12 90h129l-12 -86q-15 -102 -69.5 -160.5t-137.5 -58.5q-48 0 -90 19.5t-71 47t-54.5 55.5t-52 47.5t-51.5 19.5q-33 0 -53.5 -22.5t-26.5 -61.5z
M406 -250q-80 -139 -166.5 -200.5t-204.5 -61.5q-122 0 -187 41l27 154q65 -35 141 -35q69 0 127 38t111 128l111 188l-246 1030h184l186 -813l474 813h192z" />
    <glyph glyph-name="enquad" unicode="&#x2000;" horiz-adv-x="1073" 
 />
    <glyph glyph-name="emquad" unicode="&#x2001;" horiz-adv-x="2146" 
 />
    <glyph glyph-name="enspace" unicode="&#x2002;" horiz-adv-x="1073" 
 />
    <glyph glyph-name="emspace" unicode="&#x2003;" horiz-adv-x="2146" 
 />
    <glyph glyph-name="threeperemspace" unicode="&#x2004;" horiz-adv-x="714" 
 />
    <glyph glyph-name="fourperemspace" unicode="&#x2005;" horiz-adv-x="536" 
 />
    <glyph glyph-name="sixperemspace" unicode="&#x2006;" horiz-adv-x="358" 
 />
    <glyph glyph-name="figurespace" unicode="&#x2007;" 
 />
    <glyph glyph-name="punctuationspace" unicode="&#x2008;" horiz-adv-x="552" 
 />
    <glyph glyph-name="thinspace" unicode="&#x2009;" horiz-adv-x="268" 
 />
    <glyph glyph-name="hairspace" unicode="&#x200a;" horiz-adv-x="215" 
 />
    <glyph glyph-name="zerowidthspace" unicode="&#x200b;" horiz-adv-x="0" 
 />
    <glyph glyph-name="zerowidthnonjoiner" unicode="&#x200c;" horiz-adv-x="0" 
 />
    <glyph glyph-name="zerowidthjoiner" unicode="&#x200d;" horiz-adv-x="0" 
 />
    <glyph glyph-name="endash" unicode="&#x2013;" horiz-adv-x="1073" 
d="M57 600h990l-27 -151h-989z" />
    <glyph glyph-name="emdash" unicode="&#x2014;" horiz-adv-x="2146" 
d="M57 600h2063l-27 -151h-2062z" />
    <glyph glyph-name="quoteleft" unicode="&#x2018;" horiz-adv-x="552" 
d="M457 1434h168l-265 -549h-206z" />
    <glyph glyph-name="quoteright" unicode="&#x2019;" horiz-adv-x="552" 
d="M324 885h-168l264 549h207z" />
    <glyph glyph-name="quotesinglbase" unicode="&#x201a;" horiz-adv-x="555" 
d="M111 -328h-170l264 543h207z" />
    <glyph glyph-name="quotedblleft" unicode="&#x201c;" horiz-adv-x="948" 
d="M457 1434h168l-265 -549h-206zM852 1434h168l-264 -549h-207z" />
    <glyph glyph-name="quotedblright" unicode="&#x201d;" horiz-adv-x="948" 
d="M324 885h-168l264 549h207zM719 885h-168l264 549h207z" />
    <glyph glyph-name="quotedblbase" unicode="&#x201e;" horiz-adv-x="948" 
d="M111 -328h-170l264 543h207zM506 -328h-170l264 543h207z" />
    <glyph glyph-name="dagger" unicode="&#x2020;" horiz-adv-x="845" 
d="M291 225l149 844h-309l27 152h309l55 315h164l-55 -315h307l-27 -152h-307l-149 -844h-164z" />
    <glyph glyph-name="daggerdbl" unicode="&#x2021;" horiz-adv-x="845" 
d="M291 225l55 316h-309l26 151h310l67 377h-309l27 152h309l55 315h164l-55 -315h307l-27 -152h-307l-67 -377h309l-27 -151h-309l-55 -316h-164z" />
    <glyph glyph-name="bullet" unicode="&#x2022;" horiz-adv-x="706" 
d="M360 268q-112 0 -190 77t-78 185q0 105 78 179.5t190 74.5t188.5 -74.5t76.5 -179.5q0 -108 -76.5 -185t-188.5 -77z" />
    <glyph glyph-name="ellipsis" unicode="&#x2026;" horiz-adv-x="1406" 
d="M199 -23q-56 0 -94.5 37.5t-38.5 91.5t39 93t94 39t93 -39t38 -93t-38 -91.5t-93 -37.5zM633 -23q-56 0 -94.5 37.5t-38.5 91.5t39 93t94 39t93 -39t38 -93t-38 -91.5t-93 -37.5zM1067 -23q-56 0 -94.5 37.5t-38.5 91.5t39 93t94 39t93 -39t38 -93t-38 -91.5t-93 -37.5z
" />
    <glyph glyph-name="perthousand" unicode="&#x2030;" horiz-adv-x="2482" 
d="M555 1475q141 0 224 -86t83 -218q0 -155 -107.5 -269t-267.5 -114q-143 0 -226 86.5t-83 219.5q0 155 107 268t270 113zM156 0l1261 1434h193l-1262 -1434h-192zM489 911q103 0 169.5 77t66.5 183q0 80 -48 131.5t-128 51.5q-102 0 -169 -78t-67 -184q0 -78 48 -129.5
t128 -51.5zM1290 643q141 0 224 -85.5t83 -217.5q0 -155 -107 -269t-267 -114q-143 0 -226.5 86t-83.5 219q0 155 107 268t270 113zM2073 643q141 0 224 -85.5t83 -217.5q0 -155 -107.5 -269t-267.5 -114q-143 0 -226 86t-83 219q0 155 107 268t270 113zM1225 80
q103 0 169 77t66 183q0 80 -48 131t-128 51q-102 0 -168.5 -78t-66.5 -184q0 -78 48 -129t128 -51zM2007 80q103 0 169.5 77t66.5 183q0 79 -48.5 130.5t-128.5 51.5q-102 0 -168.5 -78t-66.5 -184q0 -78 48 -129t128 -51z" />
    <glyph glyph-name="guilsinglleft" unicode="&#x2039;" horiz-adv-x="651" 
d="M465 98h-176l-193 410l336 410h201l-346 -429z" />
    <glyph glyph-name="guilsinglright" unicode="&#x203a;" horiz-adv-x="651" 
d="M182 918h178l191 -410l-336 -410h-201l348 430z" />
    <glyph glyph-name="fraction" unicode="&#x2044;" horiz-adv-x="444" 
d="M-473 0l1261 1434h193l-1262 -1434h-192z" />
    <glyph glyph-name="wordjoiner" unicode="&#x2060;" horiz-adv-x="0" 
 />
    <glyph glyph-name="zerosuperior" unicode="&#x2070;" horiz-adv-x="772" 
d="M567 1737q145 0 217 -94.5t72 -264.5q0 -111 -26 -212.5t-74 -182.5t-124 -129.5t-169 -48.5q-144 0 -214.5 94t-70.5 264q0 149 43.5 277.5t134 212.5t211.5 84zM463 932q74 0 133 65.5t89 168.5t30 220q0 105 -35.5 164.5t-108.5 59.5q-75 0 -133.5 -66t-88.5 -169
t-30 -220q0 -105 35.5 -164t108.5 -59z" />
    <glyph glyph-name="i.superior" unicode="&#x2071;" horiz-adv-x="331" 
d="M393 1606q-35 0 -61.5 26.5t-26.5 61.5t26.5 60.5t61.5 25.5t60.5 -25.5t25.5 -60.5t-25.5 -61.5t-60.5 -26.5zM176 829l113 635h129l-113 -635h-129z" />
    <glyph glyph-name="foursuperior" unicode="&#x2074;" horiz-adv-x="772" 
d="M528 829l43 246h-409l22 123l467 512h170l-90 -512h92l-20 -123h-94l-43 -246h-138zM332 1198h262l63 358z" />
    <glyph glyph-name="fivesuperior" unicode="&#x2075;" horiz-adv-x="772" 
d="M262 1237l109 473h489l-20 -123h-361l-51 -227h59q157 0 231.5 -71.5t74.5 -190.5q0 -126 -88 -209.5t-234 -83.5q-115 0 -198 48.5t-126 137.5l119 66q70 -129 207 -129q81 0 129.5 44.5t48.5 117.5q0 68 -45 107.5t-135 39.5h-209z" />
    <glyph glyph-name="sixsuperior" unicode="&#x2076;" horiz-adv-x="772" 
d="M618 1737q91 0 164 -41.5t109 -102.5l-111 -77q-59 96 -168 96q-110 0 -183 -87t-97 -231q99 92 215 92q119 0 191.5 -73t72.5 -193q0 -134 -89.5 -224.5t-234.5 -90.5q-141 0 -224 94t-83 256q0 119 28 222.5t81 184.5t137.5 128t191.5 47zM518 1264q-61 0 -113.5 -29.5
t-82.5 -77.5q1 -116 45.5 -172.5t121.5 -56.5q79 0 129 52.5t50 135.5q0 68 -41 108t-109 40z" />
    <glyph glyph-name="sevensuperior" unicode="&#x2077;" horiz-adv-x="770" 
d="M334 829h-166l565 758h-448l22 123h604l-22 -123z" />
    <glyph glyph-name="eightsuperior" unicode="&#x2078;" horiz-adv-x="772" 
d="M807 1087q0 -115 -87 -198.5t-249 -83.5q-148 0 -230.5 70t-82.5 184q0 88 54.5 160t158.5 98q-101 59 -101 170q0 102 77 176t220 74q130 0 203.5 -63.5t73.5 -164.5q0 -72 -43 -129t-127 -84q133 -60 133 -209zM416 1481q0 -57 34.5 -88t102.5 -31q71 0 108 40t37 99
q0 55 -35 87t-102 32q-71 0 -108 -40t-37 -99zM664 1096q0 69 -45 108t-132 39q-91 0 -138.5 -49.5t-47.5 -122.5q0 -68 44.5 -107.5t131.5 -39.5q90 0 138.5 49.5t48.5 122.5z" />
    <glyph glyph-name="ninesuperior" unicode="&#x2079;" horiz-adv-x="772" 
d="M408 805q-91 0 -164 40.5t-109 100.5l113 80q58 -98 168 -98q109 0 181.5 86.5t96.5 228.5q-98 -88 -215 -88q-119 0 -191.5 72.5t-72.5 193.5q0 134 89.5 225t234.5 91q141 0 224 -95t83 -258q0 -118 -28 -221.5t-81 -184t-137.5 -127t-191.5 -46.5zM360 1425
q0 -70 40 -109.5t108 -39.5q61 0 113.5 30t83.5 76q-1 117 -46 173.5t-122 56.5q-79 0 -128 -52t-49 -135z" />
    <glyph glyph-name="n.superior" unicode="&#x207f;" horiz-adv-x="755" 
d="M176 829l113 635h129l-10 -59q87 84 196 84q112 0 169.5 -73t33.5 -206l-68 -381h-129l66 377q14 75 -17 118.5t-98 43.5q-103 0 -180 -111l-76 -428h-129z" />
    <glyph glyph-name="zeroinferior" unicode="&#x2080;" horiz-adv-x="772" 
d="M375 631q145 0 217 -94.5t72 -264.5q0 -150 -44 -278t-135.5 -211.5t-214.5 -83.5q-144 0 -214 94t-70 264q0 149 43.5 277.5t134 212.5t211.5 84zM270 -174q74 0 133 66t89 169t30 220q0 105 -35 164t-108 59q-75 0 -133.5 -66t-88.5 -169t-30 -220q0 -105 35 -164
t108 -59z" />
    <glyph glyph-name="oneinferior" unicode="&#x2081;" horiz-adv-x="772" 
d="M-53 -276l22 122h248l107 605l-222 -113l-55 108l305 160h135l-133 -760h217l-22 -122h-602z" />
    <glyph glyph-name="twoinferior" unicode="&#x2082;" horiz-adv-x="772" 
d="M-43 -276l23 122l360 312q90 78 123 125t33 104q0 54 -35.5 87.5t-91.5 33.5q-107 0 -195 -137l-106 75q114 185 313 185q111 0 183.5 -65t72.5 -167q0 -87 -49 -156t-174 -177l-258 -220h405l-22 -122h-582z" />
    <glyph glyph-name="threeinferior" unicode="&#x2083;" horiz-adv-x="772" 
d="M631 399q0 -71 -43 -127.5t-123 -85.5q67 -31 100 -86.5t33 -122.5q0 -119 -87.5 -198.5t-231.5 -79.5q-117 0 -200 48.5t-126 137.5l119 66q70 -129 209 -129q79 0 127.5 45t48.5 117q0 67 -44 106t-132 39h-111l20 123h119q88 0 133 38t45 99q0 52 -33.5 85.5
t-86.5 33.5q-104 0 -177 -111l-106 74q107 160 295 160q108 0 180 -65t72 -167z" />
    <glyph glyph-name="fourinferior" unicode="&#x2084;" horiz-adv-x="772" 
d="M-31 -31l23 123l467 512h170l-90 -512h92l-21 -123h-94l-43 -245h-137l43 245h-410zM139 92h262l64 359z" />
    <glyph glyph-name="fiveinferior" unicode="&#x2085;" horiz-adv-x="772" 
d="M70 131l108 473h490l-21 -123h-360l-51 -227h59q157 0 231 -71.5t74 -190.5q0 -126 -87.5 -209.5t-233.5 -83.5q-115 0 -198 48.5t-126 137.5l119 66q70 -129 207 -129q81 0 129.5 44.5t48.5 117.5q0 68 -45 107.5t-135 39.5h-209z" />
    <glyph glyph-name="sixinferior" unicode="&#x2086;" horiz-adv-x="772" 
d="M426 631q90 0 163 -41.5t109 -102.5l-110 -77q-59 96 -168 96q-110 0 -183.5 -87.5t-97.5 -230.5q100 93 215 93q119 0 191.5 -73.5t72.5 -193.5q0 -134 -89 -224.5t-234 -90.5q-141 0 -224 94t-83 256q0 119 28 222.5t81 184.5t137.5 128t191.5 47zM326 158
q-61 0 -114 -30t-83 -77q1 -116 46 -172.5t122 -56.5q79 0 128.5 52.5t49.5 135.5q0 69 -40.5 108.5t-108.5 39.5z" />
    <glyph glyph-name="seveninferior" unicode="&#x2087;" horiz-adv-x="770" 
d="M141 -276h-166l566 757h-449l23 123h604l-23 -123z" />
    <glyph glyph-name="eightinferior" unicode="&#x2088;" horiz-adv-x="772" 
d="M78 381q0 102 77 176t220 74q130 0 203 -63.5t73 -164.5q0 -72 -43 -129t-127 -84q133 -60 133 -208q0 -116 -87 -199.5t-248 -83.5q-149 0 -231.5 70.5t-82.5 183.5q0 88 54.5 160t158.5 98q-100 59 -100 170zM223 375q0 -57 34.5 -88t102.5 -31q71 0 108.5 40.5
t37.5 98.5q0 55 -35 87t-102 32q-71 0 -108.5 -40.5t-37.5 -98.5zM471 -10q0 69 -44.5 108t-131.5 39q-91 0 -138.5 -49.5t-47.5 -122.5q0 -68 44.5 -107.5t131.5 -39.5q90 0 138 49.5t48 122.5z" />
    <glyph glyph-name="nineinferior" unicode="&#x2089;" horiz-adv-x="772" 
d="M215 -301q-91 0 -163.5 40t-108.5 101l112 80q58 -98 168 -98q109 0 182 86.5t97 228.5q-98 -88 -215 -88q-119 0 -191.5 72.5t-72.5 193.5q0 134 89.5 225t233.5 91q141 0 224 -95t83 -257q0 -118 -28 -222t-81 -184.5t-137.5 -127t-191.5 -46.5zM168 319
q0 -70 39.5 -109.5t107.5 -39.5q61 0 113.5 30t83.5 76q-1 117 -46 173.5t-122 56.5q-79 0 -127.5 -51.5t-48.5 -135.5z" />
    <glyph glyph-name="Euro" unicode="&#x20ac;" 
d="M53 475l27 152h168q0 3 1 9t1 9q12 104 22 152h-161l26 151h174q76 246 225 386.5t357 140.5q259 0 381 -218l-150 -100q-37 74 -93 114t-146 40q-122 0 -218 -97t-157 -266h549l-27 -151h-567q-16 -64 -29 -152q0 -3 -1 -9t-1 -9h570l-27 -152h-551q3 -352 258 -352
q156 0 285 153l123 -114q-180 -203 -424 -203q-199 0 -312 129.5t-116 386.5h-187z" />
    <glyph glyph-name="numero" unicode="&#x2116;" horiz-adv-x="2404" 
d="M2144 1489q141 0 224 -85.5t83 -217.5q0 -155 -107 -269t-267 -114q-143 0 -226.5 86t-83.5 219q0 155 107 268t270 113zM129 0l254 1434h246l569 -1207l213 1207h193l-254 -1434h-248l-567 1202l-213 -1202h-193zM2079 926q103 0 169 77t66 183q0 80 -48 131t-128 51
q-102 0 -168.5 -78t-66.5 -184q0 -78 48 -129t128 -51zM1712 528l23 125h577l-22 -125h-578z" />
    <glyph glyph-name="trademark" unicode="&#x2122;" horiz-adv-x="1900" 
d="M201 1305l22 129h692l-24 -129h-273l-133 -754h-143l133 754h-274zM924 551l155 883h176l160 -408l309 408h187l-156 -883h-143l123 684l-289 -381h-105l-153 381l-121 -684h-143z" />
    <glyph glyph-name="arrowleft" unicode="&#x2190;" horiz-adv-x="1626" 
d="M682 131l-606 606l608 611l107 -109l-435 -426h1194v-151h-1190l431 -424z" />
    <glyph glyph-name="arrowup" unicode="&#x2191;" horiz-adv-x="1626" 
d="M735 0v1186l-424 -424l-106 106l606 607l610 -609l-108 -106l-426 426v-1186h-152z" />
    <glyph glyph-name="arrowright" unicode="&#x2192;" horiz-adv-x="1626" 
d="M76 815h1186l-424 424l106 107l606 -607l-608 -610l-106 109l426 426h-1186v151z" />
    <glyph glyph-name="arrowdown" unicode="&#x2193;" horiz-adv-x="1626" 
d="M1421 565l-608 -606l-608 608l106 107l428 -428v1188h152v-1184l422 422z" />
    <glyph glyph-name="arrowNW" unicode="&#x2196;" horiz-adv-x="1626" 
d="M291 401v859h862v-152h-606l839 -840l-108 -104l-836 835v-598h-151z" />
    <glyph glyph-name="arrowNE" unicode="&#x2197;" horiz-adv-x="1626" 
d="M397 164l-106 104l839 840h-606v152h862v-859h-151v598z" />
    <glyph glyph-name="arrowSE" unicode="&#x2198;" horiz-adv-x="1626" 
d="M397 1260l838 -836v596h151v-856h-862v151h606l-839 838z" />
    <glyph glyph-name="arrowSW" unicode="&#x2199;" horiz-adv-x="1626" 
d="M291 1020h151v-596l836 836l108 -107l-839 -838h606v-151h-862v856z" />
    <glyph glyph-name="minus" unicode="&#x2212;" 
d="M1102 440h-1002l29 152h999z" />
    <glyph glyph-name="radical" unicode="&#x221a;" 
d="M309 815l127 -655l686 1274h172l-778 -1434h-209l-157 815h159z" />
    <glyph glyph-name="integral" unicode="&#x222b;" horiz-adv-x="770" 
d="M414 1171q33 181 133.5 273t251.5 92q139 0 239 -70l-94 -137q-63 49 -143 49t-137.5 -52.5t-75.5 -154.5l-230 -1314q-33 -180 -133.5 -272.5t-251.5 -92.5q-135 0 -239 70l94 139q62 -49 143 -49q80 0 137.5 51.5t75.5 153.5z" />
    <glyph glyph-name="approxequal" unicode="&#x2248;" 
d="M125 569l10 60q19 129 89.5 201.5t183.5 72.5q61 0 117.5 -21.5t100.5 -52.5t85 -61.5t86 -52t88 -21.5q112 0 133 137l8 50h154l-11 -58q-21 -131 -90.5 -202.5t-181.5 -71.5q-61 0 -117.5 21.5t-100.5 52.5t-85 61.5t-86 52t-88 21.5q-112 0 -133 -137l-8 -52h-154z
M55 174l11 59q19 129 89.5 202t182.5 73q61 0 117.5 -21.5t100.5 -52t85 -61.5t86 -52.5t88 -21.5q112 0 133 137l8 49h154l-10 -57q-21 -131 -90.5 -202.5t-182.5 -71.5q-61 0 -117.5 21.5t-100.5 52t-85 61t-86 52t-88 21.5q-112 0 -133 -137l-8 -51h-154z" />
    <glyph glyph-name="notequal" unicode="&#x2260;" 
d="M1063 219h-649l-213 -219h-176l213 219h-175l25 152h297l283 291h-527l25 151h649l213 219h178l-213 -219h174l-26 -151h-295l-285 -291h529z" />
    <glyph glyph-name="lessequal" unicode="&#x2264;" 
d="M1063 215l-926 428l31 176l1075 428l-29 -170l-878 -352l756 -352zM1024 0h-999l24 152h1002z" />
    <glyph glyph-name="greaterequal" unicode="&#x2265;" 
d="M92 385l879 352l-754 353l27 157l923 -428l-28 -176l-1078 -428zM25 0l24 152h1002l-27 -152h-999z" />
    <glyph glyph-name="lozenge" unicode="&#x25ca;" 
d="M436 0l-229 717l483 717h172l230 -717l-482 -717h-174zM367 702l176 -555l391 582l-176 561z" />
    <glyph glyph-name="circledotted" unicode="&#x25cc;" horiz-adv-x="1236" 
d="M618 -20q-145 0 -268.5 72t-195.5 195.5t-72 268.5t72 269t195.5 196t268.5 72q109 0 208 -43t171 -115t115 -171t43 -208q0 -145 -72 -268.5t-196 -195.5t-269 -72zM618 1032q-140 0 -259 -69t-188 -188t-69 -259t69 -259t188 -188t259 -69t259 69t188.5 188t69.5 259
t-69.5 259t-188.5 188t-259 69z" />
    <glyph glyph-name="zerowidthnobreakspace" unicode="&#xfeff;" horiz-adv-x="0" 
 />
    <glyph glyph-name="Ccedilla.1" horiz-adv-x="1501" 
d="M936 1475q193 0 342 -86.5t231 -225.5l-166 -110q-58 107 -169.5 173t-243.5 66q-173 0 -312.5 -88.5t-216.5 -238t-77 -328.5q0 -137 56 -249.5t163.5 -180.5t247.5 -68q262 0 454 215l137 -125q-98 -119 -235 -187.5t-299 -80.5l-88 -94q80 -1 133 -51t53 -119
q0 -89 -65.5 -147t-171.5 -58q-133 0 -215 82l79 90q53 -63 132 -63q47 0 75.5 23.5t28.5 66.5q0 35 -25.5 58.5t-68.5 23.5q-36 0 -80 -19l-51 74l125 135q-262 23 -424 206.5t-162 455.5q0 169 60 324t164.5 271t258 185.5t330.5 69.5z" />
    <glyph glyph-name="Q.1" horiz-adv-x="1660" 
d="M125 631q0 166 59.5 319t164.5 269.5t260.5 186t336.5 69.5q198 0 350.5 -89t233 -240.5t80.5 -340.5q0 -206 -88 -388t-246 -300l301 -369h-252l-215 275q-153 -64 -324 -64q-148 0 -272.5 52t-209.5 142t-132 213.5t-47 264.5zM1409 807q0 134 -56.5 244t-164.5 176.5
t-248 66.5q-135 0 -251 -55t-195 -147.5t-123.5 -214.5t-44.5 -254t56.5 -241.5t164.5 -176t246 -66.5q135 0 251.5 55t195.5 147.5t124 213.5t45 252z" />
    <glyph glyph-name="Q.2" horiz-adv-x="1660" 
d="M125 631q0 166 59.5 319t164.5 269.5t260.5 186t336.5 69.5q198 0 350.5 -89t233 -240.5t80.5 -340.5q0 -206 -88 -388t-246 -300l227 -211q142 -133 269.5 -189.5t271.5 -56.5q126 0 240 43l-31 -172q-94 -43 -242 -43q-338 0 -637 283l-264 252q-150 -64 -324 -64
q-148 0 -272.5 52t-209.5 142t-132 213.5t-47 264.5zM1409 807q0 134 -56.5 244t-164.5 176.5t-248 66.5q-135 0 -251 -55t-195 -147.5t-123.5 -214.5t-44.5 -254t56.5 -241.5t164.5 -176t246 -66.5q135 0 251.5 55t195.5 147.5t124 213.5t45 252z" />
    <glyph glyph-name="Scedilla.1" horiz-adv-x="1167" 
d="M483 1087q0 -60 29 -110t75 -87t101.5 -73.5t111.5 -77t102 -87t75 -115.5t29 -152q0 -167 -111.5 -285t-292.5 -137l-229 -291h-183l234 297q-219 37 -350 236l149 114q130 -188 322 -188q117 0 189.5 69.5t72.5 170.5q0 60 -29 111t-75 89t-102 74.5t-112 77t-102 87
t-75 115t-29 150.5q0 164 127 282t317 118q284 0 424 -240l-152 -113q-98 181 -280 181q-100 0 -168 -63.5t-68 -152.5z" />
    <glyph glyph-name="germandbls.cap" horiz-adv-x="2301" 
d="M1618 1087q0 -60 29 -110t75 -87t101.5 -73.5t111 -77t101.5 -87t75 -115.5t29 -152q0 -183 -129.5 -304.5t-335.5 -121.5q-308 0 -467 246l150 114q130 -188 321 -188q117 0 190 69.5t73 170.5q0 60 -29 111t-75.5 89t-102 74.5t-111.5 77t-102.5 87t-75.5 115
t-29 150.5q0 164 127.5 282t317.5 118q284 0 424 -240l-152 -113q-98 181 -281 181q-100 0 -167.5 -63.5t-67.5 -152.5zM483 1087q0 -60 29 -110t75 -87t101.5 -73.5t111.5 -77t102 -87t75 -115.5t29 -152q0 -183 -129.5 -304.5t-335.5 -121.5q-308 0 -467 246l149 114
q130 -188 322 -188q117 0 189.5 69.5t72.5 170.5q0 60 -29 111t-75 89t-102 74.5t-112 77t-102 87t-75 115t-29 150.5q0 164 127 282t317 118q284 0 424 -240l-152 -113q-98 181 -280 181q-100 0 -168 -63.5t-68 -152.5z" />
    <glyph glyph-name="Tcedilla.1" horiz-adv-x="1251" 
d="M201 1257l30 177h1110l-30 -177h-459l-215 -1224l-6 -33h-21l-258 -328h-182l270 344l219 1241h-458z" />
    <glyph glyph-name="a.1" horiz-adv-x="1271" 
d="M82 442q0 169 70 312.5t199 231t290 87.5q110 0 201 -44t151 -126l23 129h174l-182 -1032h-174l18 102q-149 -143 -324 -143q-206 0 -326 134t-120 349zM266 453q0 -145 82.5 -237.5t224.5 -92.5q189 0 314 174l69 401q-44 100 -121 155.5t-182 55.5q-167 0 -277 -131
t-110 -325z" />
    <glyph glyph-name="agrave.1" horiz-adv-x="1271" 
d="M637 1196l-174 340h188l148 -340h-162zM82 442q0 169 70 312.5t199 231t290 87.5q110 0 201 -44t151 -126l23 129h174l-182 -1032h-174l18 102q-149 -143 -324 -143q-206 0 -326 134t-120 349zM266 453q0 -145 82.5 -237.5t224.5 -92.5q189 0 314 174l69 401
q-44 100 -121 155.5t-182 55.5q-167 0 -277 -131t-110 -325z" />
    <glyph glyph-name="aacute.1" horiz-adv-x="1271" 
d="M803 1196h-176l268 340h203zM82 442q0 169 70 312.5t199 231t290 87.5q110 0 201 -44t151 -126l23 129h174l-182 -1032h-174l18 102q-149 -143 -324 -143q-206 0 -326 134t-120 349zM266 453q0 -145 82.5 -237.5t224.5 -92.5q189 0 314 174l69 401q-44 100 -121 155.5
t-182 55.5q-167 0 -277 -131t-110 -325z" />
    <glyph glyph-name="acircumflex.1" horiz-adv-x="1271" 
d="M555 1196h-166l268 340h234l147 -340h-149l-123 254zM82 442q0 169 70 312.5t199 231t290 87.5q110 0 201 -44t151 -126l23 129h174l-182 -1032h-174l18 102q-149 -143 -324 -143q-206 0 -326 134t-120 349zM266 453q0 -145 82.5 -237.5t224.5 -92.5q189 0 314 174
l69 401q-44 100 -121 155.5t-182 55.5q-167 0 -277 -131t-110 -325z" />
    </font>
</defs>
</svg>
